<?xml version="1.0" encoding="utf-8"?>
<!-- Generator: Adobe Illustrator 23.0.6, SVG Export Plug-In . SVG Version: 6.00 Build 0)  -->
<svg version="1.1" baseProfile="tiny" id="Layer_1" xmlns="http://www.w3.org/2000/svg" xmlns:xlink="http://www.w3.org/1999/xlink"
	 x="0px" y="0px" viewBox="0 0 100 100" xml:space="preserve">
<title>baggage</title>
<g>
	<path fill="#68ADDF" d="M65.8,86.8H34.2c-5.1,0-9.2-4.1-9.2-9.2V34.2c0-5.1,4.1-9.2,9.2-9.2h9.2c0.5,0,0.9,0.3,1.2,0.7l1,1.9h8.9
		l1-1.9c0.2-0.4,0.7-0.7,1.2-0.7h9.2c5.1,0,9.2,4.1,9.2,9.2v43.4C75,82.7,70.9,86.8,65.8,86.8z M34.2,27.7c-3.6,0-6.6,2.9-6.6,6.6
		v43.4c0,3.6,2.9,6.6,6.6,6.6h31.5c3.6,0,6.6-2.9,6.6-6.6V34.2c0-3.6-2.9-6.6-6.6-6.6h-8.4l-1,1.9c-0.2,0.4-0.7,0.7-1.2,0.7H44.7
		c-0.5,0-0.9-0.3-1.2-0.7l-1-1.9H34.2z"/>
	<path fill="#68ADDF" d="M60.5,17.1h-21c-0.7,0-1.3-0.6-1.3-1.3v-2.6c0-2.2,1.8-3.9,3.9-3.9h15.8c2.2,0,3.9,1.8,3.9,3.9v2.6
		C61.8,16.6,61.2,17.1,60.5,17.1z M40.8,14.5h18.4v-1.3c0-0.7-0.6-1.3-1.3-1.3H42.1c-0.7,0-1.3,0.6-1.3,1.3V14.5z"/>
	<path fill="#68ADDF" d="M55.3,30.3H44.7c-0.5,0-0.9-0.3-1.2-0.7l-1-1.9h-3.1c-0.7,0-1.3-0.6-1.3-1.3V15.8c0-0.7,0.6-1.3,1.3-1.3h21
		c0.7,0,1.3,0.6,1.3,1.3v10.5c0,0.7-0.6,1.3-1.3,1.3h-3.1l-1,1.9C56.2,30,55.8,30.3,55.3,30.3z M45.6,27.7h8.9l1-1.9
		c0.2-0.4,0.7-0.7,1.2-0.7h2.6v-7.9H40.8V25h2.6c0.5,0,0.9,0.3,1.2,0.7L45.6,27.7z"/>
	<path fill="#68ADDF" d="M36.9,90.7c-2.2,0-3.9-1.8-3.9-3.9v-1.3c0-0.7,0.6-1.3,1.3-1.3h5.3c0.7,0,1.3,0.6,1.3,1.3v1.3
		C40.8,89,39,90.7,36.9,90.7z M35.5,86.8c0,0.7,0.6,1.3,1.3,1.3c0.7,0,1.3-0.6,1.3-1.3H35.5z"/>
	<path fill="#68ADDF" d="M63.1,90.7c-2.2,0-3.9-1.8-3.9-3.9v-1.3c0-0.7,0.6-1.3,1.3-1.3s1.3,0.6,1.3,1.3v1.3c0,0.7,0.6,1.3,1.3,1.3
		c0.7,0,1.3-0.6,1.3-1.3v-1.3c0-0.7,0.6-1.3,1.3-1.3s1.3,0.6,1.3,1.3v1.3C67.1,89,65.3,90.7,63.1,90.7z"/>
	<path fill="#68ADDF" d="M63.1,90.7c-2.2,0-3.9-1.8-3.9-3.9v-1.3c0-0.7,0.6-1.3,1.3-1.3s1.3,0.6,1.3,1.3v1.3c0,0.7,0.6,1.3,1.3,1.3
		c0.7,0,1.3-0.6,1.3-1.3v-1.3c0-0.7,0.6-1.3,1.3-1.3s1.3,0.6,1.3,1.3v1.3C67.1,89,65.3,90.7,63.1,90.7z"/>
	<path fill="#68ADDF" d="M50,77.6c-2.2,0-3.9-1.8-3.9-3.9V40.8c0-2.2,1.8-3.9,3.9-3.9c2.2,0,3.9,1.8,3.9,3.9v32.9
		C53.9,75.8,52.2,77.6,50,77.6z M50,39.5c-0.7,0-1.3,0.6-1.3,1.3v32.9c0,0.7,0.6,1.3,1.3,1.3s1.3-0.6,1.3-1.3V40.8
		C51.3,40.1,50.7,39.5,50,39.5z"/>
	<path fill="#68ADDF" d="M36.9,77.6c-2.2,0-3.9-1.8-3.9-3.9V40.8c0-2.2,1.8-3.9,3.9-3.9c2.2,0,3.9,1.8,3.9,3.9v32.9
		C40.8,75.8,39,77.6,36.9,77.6z M36.9,39.5c-0.7,0-1.3,0.6-1.3,1.3v32.9c0,0.7,0.6,1.3,1.3,1.3c0.7,0,1.3-0.6,1.3-1.3V40.8
		C38.2,40.1,37.6,39.5,36.9,39.5z"/>
	<path fill="#68ADDF" d="M63.1,77.6c-2.2,0-3.9-1.8-3.9-3.9V40.8c0-2.2,1.8-3.9,3.9-3.9s3.9,1.8,3.9,3.9v32.9
		C67.1,75.8,65.3,77.6,63.1,77.6z M63.1,39.5c-0.7,0-1.3,0.6-1.3,1.3v32.9c0,0.7,0.6,1.3,1.3,1.3c0.7,0,1.3-0.6,1.3-1.3V40.8
		C64.5,40.1,63.9,39.5,63.1,39.5z"/>
</g>
</svg>
