<?xml version="1.0" encoding="utf-8"?>
<!-- Generator: Adobe Illustrator 23.0.6, SVG Export Plug-In . SVG Version: 6.00 Build 0)  -->
<svg version="1.1" id="Layer_2" xmlns="http://www.w3.org/2000/svg" xmlns:xlink="http://www.w3.org/1999/xlink" x="0px" y="0px"
	 viewBox="0 0 100 100" style="enable-background:new 0 0 100 100;" xml:space="preserve">
<style type="text/css">
	.st0{fill:none;stroke:#000000;stroke-width:2;stroke-linecap:round;stroke-linejoin:round;stroke-miterlimit:10;}
</style>
<g>
	<path class="st0" d="M43.9,79.2c0,1.7-1.4,3.1-3.1,3.1s-3.1-1.4-3.1-3.1"/>
	<path class="st0" d="M62.4,79.2c0,1.7-1.4,3.1-3.1,3.1s-3.1-1.4-3.1-3.1"/>
	<path class="st0" d="M50,71.7L50,71.7c-1.1,0-2-0.9-2-2V41.9c0-1.1,0.9-2,2-2h0c1.1,0,2,0.9,2,2v27.8C52,70.8,51.1,71.7,50,71.7z"
		/>
	<path class="st0" d="M39.2,71.7L39.2,71.7c-1.1,0-2-0.9-2-2V41.9c0-1.1,0.9-2,2-2h0c1.1,0,2,0.9,2,2v27.8
		C41.2,70.8,40.3,71.7,39.2,71.7z"/>
	<path class="st0" d="M60.8,71.7L60.8,71.7c-1.1,0-2-0.9-2-2V41.9c0-1.1,0.9-2,2-2h0c1.1,0,2,0.9,2,2v27.8
		C62.8,70.8,61.9,71.7,60.8,71.7z"/>
</g>
<g>
	<line class="st0" x1="41.2" y1="21.9" x2="58.8" y2="21.9"/>
	<path class="st0" d="M41.2,30.3v-9.7c0-1.8,1.4-3.2,3.2-3.2h11.3c1.8,0,3.2,1.4,3.2,3.2v9.7"/>
	<path class="st0" d="M44.4,30.3l1.6,2.4h8.1l1.6-2.4h6.8c4,0,7.2,3.2,7.2,7.2v34.6c0,4-3.2,7.2-7.2,7.2H37.6c-4,0-7.2-3.2-7.2-7.2
		V37.4c0-4,3.2-7.2,7.2-7.2H44.4z"/>
</g>
</svg>
