<?xml version="1.0" encoding="utf-8"?>
<!-- Generator: Adobe Illustrator 23.0.6, SVG Export Plug-In . SVG Version: 6.00 Build 0)  -->
<svg version="1.1" baseProfile="tiny"
	 id="Layer_1" xmlns:cc="http://creativecommons.org/ns#" xmlns:dc="http://purl.org/dc/elements/1.1/" xmlns:inkscape="http://www.inkscape.org/namespaces/inkscape" xmlns:rdf="http://www.w3.org/1999/02/22-rdf-syntax-ns#" xmlns:sodipodi="http://sodipodi.sourceforge.net/DTD/sodipodi-0.dtd" xmlns:svg="http://www.w3.org/2000/svg"
	 xmlns="http://www.w3.org/2000/svg" xmlns:xlink="http://www.w3.org/1999/xlink" x="0px" y="0px" viewBox="0 0 100 100"
	 xml:space="preserve">
<g transform="translate(0,-280.06665)">
	<path fill="#68ADDF" d="M50,292.6c-20.7,0-37.5,16.8-37.5,37.5c0,20.7,16.8,37.5,37.5,37.5s37.5-16.8,37.5-37.5
		C87.5,309.4,70.7,292.6,50,292.6z M50,295.2c19.2,0,34.8,15.6,34.8,34.8c0,19.2-15.6,34.8-34.8,34.8s-34.8-15.6-34.8-34.8
		C15.2,310.8,30.8,295.2,50,295.2z M50,297.9c-17.7,0-32.1,14.4-32.1,32.1s14.4,32.1,32.1,32.1s32.1-14.4,32.1-32.1
		S67.7,297.9,50,297.9z M50,300.6c16.3,0,29.5,13.2,29.5,29.5c0,16.3-13.2,29.5-29.5,29.5s-29.5-13.2-29.5-29.5
		C20.5,313.8,33.7,300.6,50,300.6z M50,303.3c0,0-0.1,0-0.1,0c-0.7,0.1-1.2,0.7-1.2,1.4v1.3c0,1.8,2.7,1.8,2.7,0v-1.3
		C51.4,303.9,50.7,303.3,50,303.3L50,303.3z M50,310c-0.7,0-1.3,0.6-1.3,1.4v15c-1.5,0.6-2.7,2-2.7,3.8c0,0.6,0.2,1.2,0.4,1.7
		l-5.9,5.9c-1.3,1.3,0.6,3.2,1.9,1.9l5.9-5.9c0.5,0.3,1.1,0.4,1.7,0.4c2.2,0,4-1.8,4-4c0-1.7-1.1-3.2-2.7-3.8v-15
		C51.3,310.6,50.7,310,50,310L50,310z M32,310.7c-1.2,0-1.8,1.5-0.9,2.3L32,314c1.3,1.5,3.4-0.6,1.9-1.9l-0.9-0.9
		C32.7,310.9,32.4,310.7,32,310.7L32,310.7z M68,310.7c-0.3,0-0.7,0.2-0.9,0.4l-0.9,0.9c-1.4,1.3,0.6,3.3,1.9,1.9l0.9-0.9
		C69.8,312.2,69.2,310.7,68,310.7L68,310.7z M24.6,328.7c-1.7,0-1.7,2.6,0,2.7h1.3c1.7,0,1.7-2.6,0-2.7H24.6z M74.1,328.7
		c-1.7,0-1.7,2.6,0,2.7h1.3c1.7,0,1.7-2.6,0-2.7H74.1z M50,328.7c0.7,0,1.3,0.6,1.3,1.3l0,0c0,0.7-0.6,1.3-1.3,1.3c0,0,0,0,0,0
		c-0.7,0-1.3-0.6-1.3-1.3l0,0C48.7,329.3,49.3,328.7,50,328.7C50,328.7,50,328.7,50,328.7z M32.9,345.8c-0.3,0-0.7,0.2-0.9,0.4
		l-0.9,0.9c-1.3,1.3,0.6,3.2,1.9,1.9l0.9-0.9C34.8,347.2,34.1,345.7,32.9,345.8L32.9,345.8z M67,345.8c-1.2,0-1.8,1.5-0.9,2.3
		L67,349c1.3,1.2,3.1-0.6,1.9-1.9l-0.9-0.9C67.7,345.9,67.4,345.8,67,345.8L67,345.8z M50,352.8c-0.7,0-1.3,0.6-1.3,1.4v1.3
		c0,1.8,2.7,1.8,2.7,0v-1.3C51.3,353.4,50.7,352.8,50,352.8z"/>
</g>
</svg>
