<?xml version="1.0" encoding="utf-8"?>
<!-- Generator: Adobe Illustrator 23.0.6, SVG Export Plug-In . SVG Version: 6.00 Build 0)  -->
<svg version="1.1" id="Layer_2" xmlns="http://www.w3.org/2000/svg" xmlns:xlink="http://www.w3.org/1999/xlink" x="0px" y="0px"
	 viewBox="0 0 100 100" style="enable-background:new 0 0 100 100;" xml:space="preserve">
<style type="text/css">
	.st0{fill:none;stroke:#000000;stroke-width:2;stroke-linecap:round;stroke-linejoin:round;stroke-miterlimit:10;}
</style>
<g>
	<path class="st0" d="M78.4,82.5H21.6c-0.9,0-1.6-0.7-1.6-1.6V57.4c0-0.9,0.7-1.6,1.6-1.6h56.8c0.9,0,1.6,0.7,1.6,1.6v23.5
		C80,81.8,79.3,82.5,78.4,82.5z"/>
	<line class="st0" x1="50" y1="44.3" x2="25.2" y2="55.8"/>
	<line class="st0" x1="50" y1="44.3" x2="74.8" y2="55.8"/>
	<line class="st0" x1="26.5" y1="60.7" x2="26.5" y2="77.2"/>
	<line class="st0" x1="33.2" y1="60.7" x2="33.2" y2="77.2"/>
	<line class="st0" x1="39.9" y1="60.7" x2="39.9" y2="77.2"/>
	<line class="st0" x1="46.6" y1="60.7" x2="46.6" y2="77.2"/>
	<line class="st0" x1="53.4" y1="60.7" x2="53.4" y2="77.2"/>
	<line class="st0" x1="60.1" y1="60.7" x2="60.1" y2="77.2"/>
	<line class="st0" x1="66.8" y1="60.7" x2="66.8" y2="77.2"/>
	<line class="st0" x1="73.5" y1="60.7" x2="73.5" y2="77.2"/>
</g>
<g>
	<path class="st0" d="M46.9,41.2c0,1.7,1.4,3.1,3.1,3.1s3.1-1.4,3.1-3.1c0-1.7-1.4-3.1-3.1-3.1v-3.9"/>
	<path class="st0" d="M54.4,25.2h-8.7c-0.5,0-0.9,0.4-0.9,0.9v7.2c0,0.5,0.4,0.9,0.9,0.9h8.7c0.5,0,0.9-0.4,0.9-0.9v-7.2
		C55.3,25.6,54.9,25.2,54.4,25.2z"/>
	<path class="st0" d="M51.9,25.2v-6.8c0-0.5-0.4-0.9-0.9-0.9h-2c-0.5,0-0.9,0.4-0.9,0.9v6.8"/>
</g>
</svg>
