<?xml version="1.0" encoding="utf-8"?>
<!-- Generator: Adobe Illustrator 23.0.6, SVG Export Plug-In . SVG Version: 6.00 Build 0)  -->
<svg version="1.1"
	 id="Layer_1" xmlns:cc="http://creativecommons.org/ns#" xmlns:dc="http://purl.org/dc/elements/1.1/" xmlns:rdf="http://www.w3.org/1999/02/22-rdf-syntax-ns#"
	 xmlns="http://www.w3.org/2000/svg" xmlns:xlink="http://www.w3.org/1999/xlink" x="0px" y="0px" viewBox="0 0 100 100"
	 style="enable-background:new 0 0 100 100;" xml:space="preserve">
<style type="text/css">
	.st0{fill:#68ADDF;}
</style>
<g>
	<path class="st0" d="M73.8,79.3C73.8,79.3,73.8,79.3,73.8,79.3c0.3,0,0.6-0.1,0.9-0.4c0.2-0.2,0.4-0.5,0.4-0.9V61.2
		c0-0.7-0.5-1.2-1.2-1.2l-0.2,0c-0.6,0.1-1.1,0.6-1.1,1.2V78C72.6,78.7,73.1,79.3,73.8,79.3z"/>
	<path class="st0" d="M53.4,79.3C53.4,79.3,53.4,79.3,53.4,79.3c0.3,0,0.6-0.1,0.9-0.4c0.2-0.2,0.4-0.5,0.4-0.9V61.2
		c0-0.7-0.6-1.2-1.2-1.2l-0.1,0c-0.6,0.1-1.1,0.6-1.1,1.2V78c0,0.3,0.1,0.6,0.4,0.9S53.1,79.3,53.4,79.3z"/>
	<path class="st0" d="M67,79.3C67,79.3,67,79.3,67,79.3c0.3,0,0.6-0.1,0.9-0.4c0.2-0.2,0.4-0.5,0.4-0.9V61.2c0-0.7-0.5-1.2-1.2-1.2
		l-0.2,0c-0.6,0.1-1.1,0.6-1.1,1.2V78c0,0.3,0.1,0.6,0.4,0.9C66.4,79.1,66.7,79.3,67,79.3z"/>
	<path class="st0" d="M60.2,79.3C60.2,79.3,60.2,79.3,60.2,79.3c0.3,0,0.6-0.1,0.9-0.4c0.2-0.2,0.4-0.5,0.4-0.9V61.2
		c0-0.7-0.6-1.2-1.2-1.2l-0.1,0C59.4,60,59,60.5,59,61.2V78c0,0.3,0.1,0.6,0.4,0.9S59.9,79.3,60.2,79.3z"/>
	<path class="st0" d="M26.1,79.3C26.1,79.3,26.2,79.3,26.1,79.3c0.3,0,0.6-0.1,0.9-0.4c0.2-0.2,0.4-0.5,0.4-0.9V61.2
		c0-0.3-0.1-0.6-0.4-0.9c-0.2-0.2-0.5-0.4-0.9-0.4l-0.1,0c-0.6,0.1-1.1,0.6-1.1,1.2V78c0,0.3,0.1,0.6,0.4,0.9S25.8,79.3,26.1,79.3z"
		/>
	<path class="st0" d="M80.7,54.7h-5.4L53,44.2c0.8-0.8,1.2-1.9,1.2-3.1c0-1.5-0.8-3-2.1-3.7l0,0l-0.1-0.1c-0.1,0-0.2-0.1-0.3-0.1
		l0,0c-0.1,0-0.3-0.2-0.5-0.3c0,0,0,0-0.1,0c0-0.4,0-1,0-1.7h4c0.7,0,1.2-0.6,1.2-1.2v-9.5c0-0.7-0.6-1.2-1.2-1.2h-2v-6.4
		c0-0.7-0.6-1.2-1.2-1.2l-3.9,0l-0.1,0l-0.1,0c-0.6,0.1-1,0.6-1,1.2v6.4l-1.9,0c-0.1,0-0.2,0-0.3,0c-0.6,0.1-1,0.6-1,1.2v9.5
		c0,0.7,0.6,1.2,1.2,1.2h3.9c0,0.6,0,1.6,0,2.3c0,0.6,0.4,0.9,0.6,1.1c0.2,0.2,0.4,0.3,0.6,0.4c0.4,0.2,0.6,0.4,0.8,0.4
		c0.7,0.3,1.1,1,1.1,1.7c0,1.1-0.8,1.9-1.8,1.9c-1,0-1.8-0.8-1.8-1.9c0-0.3-0.1-0.6-0.4-0.9c-0.2-0.2-0.5-0.4-0.9-0.4
		c-0.3,0-0.6,0.1-0.9,0.4c-0.2,0.2-0.4,0.5-0.4,0.9c0,1.3,0.6,2.5,1.5,3.3L24.5,54.7l-5.3,0l0,0c-0.6,0.1-1.1,0.6-1.1,1.2v27.3
		c0,0.7,0.6,1.2,1.2,1.2h61.4c0.7,0,1.2-0.6,1.2-1.2V55.9C81.9,55.2,81.4,54.7,80.7,54.7z M30.2,54.7l20.1-9.2l19.3,9.2H30.2z
		 M79.5,57.2V82H20.5V57.2H79.5z M49.3,23.1V18h1.4v5.1H49.3z M53.9,25.6v7h-7.9v-7H53.9z"/>
	<path class="st0" d="M46.6,79.3C46.6,79.3,46.6,79.3,46.6,79.3c0.3,0,0.6-0.1,0.9-0.4c0.2-0.2,0.4-0.5,0.4-0.9V61.2
		c0-0.3-0.1-0.6-0.4-0.9c-0.2-0.2-0.5-0.4-0.9-0.4l-0.2,0c-0.6,0.1-1.1,0.6-1.1,1.2V78c0,0.3,0.1,0.6,0.4,0.9S46.2,79.3,46.6,79.3z"
		/>
	<path class="st0" d="M33,79.3C33,79.3,33,79.3,33,79.3c0.3,0,0.6-0.1,0.9-0.4c0.2-0.2,0.4-0.5,0.4-0.9V61.2c0-0.7-0.5-1.2-1.2-1.2
		l-0.2,0c-0.6,0.1-1.1,0.6-1.1,1.2V78c0,0.3,0.1,0.6,0.4,0.9C32.3,79.1,32.6,79.3,33,79.3z"/>
	<path class="st0" d="M39.8,79.3C39.8,79.3,39.8,79.3,39.8,79.3c0.3,0,0.6-0.1,0.9-0.4c0.2-0.2,0.4-0.5,0.4-0.9V61.2
		c0-0.3-0.1-0.6-0.4-0.9c-0.2-0.2-0.5-0.4-0.9-0.4l-0.2,0c-0.6,0.1-1.1,0.6-1.1,1.2V78c0,0.3,0.1,0.6,0.4,0.9S39.4,79.3,39.8,79.3z"
		/>
</g>
</svg>
