<?xml version="1.0" encoding="utf-8"?>
<!-- Generator: Adobe Illustrator 23.0.6, SVG Export Plug-In . SVG Version: 6.00 Build 0)  -->
<svg version="1.1" id="Layer_1" xmlns="http://www.w3.org/2000/svg" xmlns:xlink="http://www.w3.org/1999/xlink" x="0px" y="0px"
	 viewBox="0 0 100 100" style="enable-background:new 0 0 100 100;" xml:space="preserve">
<style type="text/css">
	.st0{fill:#68ADDF;}
</style>
<g>
	<path class="st0" d="M25.4,71.8c2.5,0,3.8-1,4.9-1.8c1-0.7,1.7-1.3,3.2-1.3s2.3,0.5,3.2,1.3c1.1,0.8,2.4,1.8,4.9,1.8
		c2.5,0,3.8-1,4.9-1.8c1-0.7,1.7-1.3,3.2-1.3c0.1,0,0.1,0,0.2,0c0.1,0,0.1,0,0.2,0c1.6,0,2.3,0.5,3.2,1.3c1.1,0.8,2.4,1.8,4.9,1.8
		c2.5,0,3.8-1,4.9-1.8c1-0.7,1.7-1.3,3.2-1.3c1.6,0,2.3,0.5,3.2,1.3c1.1,0.8,2.4,1.8,4.9,1.8c0.8,0,1.4-0.6,1.4-1.4
		c0-0.8-0.6-1.4-1.4-1.4c-1.6,0-2.3-0.5-3.2-1.3c-0.8-0.6-1.9-1.4-3.5-1.7c-1.7-8.8,0.5-18,6.1-24.9c0.3-0.3,0.4-0.8,0.3-1.2
		c-0.1-0.4-0.4-0.7-0.7-0.9L67,35.9c0-1.3,0-6.5,0-6.5c0-0.8-0.6-1.4-1.4-1.4h-3.2v-3.6c0-0.8-0.6-1.4-1.4-1.4h-5.5c0-1.8,0-6,0-6
		c0-0.8-0.6-1.4-1.4-1.4h-8.5c-0.8,0-1.4,0.6-1.4,1.4v6h-5.5c-0.8,0-1.4,0.6-1.4,1.4v3.6h-3.2c-0.8,0-1.4,0.6-1.4,1.4v6.5l-6.5,3.1
		c-0.4,0.2-0.6,0.5-0.7,0.9c-0.1,0.4,0,0.8,0.3,1.2c5.6,7,7.8,16.2,6.1,24.9c-1.6,0.3-2.6,1.1-3.5,1.7c-1,0.7-1.7,1.3-3.2,1.3
		c-0.8,0-1.4,0.6-1.4,1.4C24.1,71.2,24.7,71.8,25.4,71.8z M47.1,18.5h5.8v4.7h-5.8V18.5z M35.8,30.8h3.2c0.8,0,1.4-0.6,1.4-1.4v-3.6
		h19.4v3.6c0,0.8,0.6,1.4,1.4,1.4h3.2v3.8L51,28.2c-0.2-0.1-0.4-0.1-0.6-0.1h-0.9c-0.2,0-0.4,0-0.6,0.1l-13.2,6.4V30.8z M29.2,40.8
		l20.7-10h0.2l20.7,10c-5.2,7.3-7.3,16.5-5.7,25.3c-1.6,0.3-2.7,1.1-3.5,1.7c-1,0.7-1.7,1.3-3.2,1.3c-1.6,0-2.3-0.5-3.2-1.3
		C54,67,52.7,66,50.2,66c-0.1,0-0.1,0-0.2,0c-0.1,0-0.1,0-0.2,0c-2.5,0-3.8,1-4.9,1.8c-1,0.7-1.7,1.3-3.2,1.3
		c-1.6,0-2.3-0.5-3.2-1.3c-0.8-0.6-1.9-1.4-3.5-1.7C36.5,57.3,34.5,48.1,29.2,40.8z"/>
	<path class="st0" d="M74.6,75.3c-1.6,0-2.3-0.5-3.2-1.3c-1.1-0.8-2.4-1.8-4.9-1.8c-2.5,0-3.8,1-4.9,1.8c-1,0.7-1.7,1.3-3.2,1.3
		c-1.6,0-2.3-0.5-3.2-1.3c-1.1-0.8-2.4-1.8-4.9-1.8c-0.1,0-0.1,0-0.2,0c-0.1,0-0.1,0-0.2,0c-2.5,0-3.8,1-4.9,1.8
		c-1,0.7-1.7,1.3-3.2,1.3c-1.6,0-2.3-0.5-3.2-1.3c-1.1-0.8-2.4-1.8-4.9-1.8c-2.5,0-3.8,1-4.9,1.8c-1,0.7-1.7,1.3-3.2,1.3
		c-0.8,0-1.4,0.6-1.4,1.4s0.6,1.4,1.4,1.4c2.5,0,3.8-1,4.9-1.8c1-0.7,1.7-1.3,3.2-1.3s2.3,0.5,3.2,1.3c1.1,0.8,2.4,1.8,4.9,1.8
		c2.5,0,3.8-1,4.9-1.8c1-0.7,1.7-1.3,3.2-1.3c0.1,0,0.1,0,0.2,0c0.1,0,0.1,0,0.2,0c1.6,0,2.3,0.5,3.2,1.3c1.1,0.8,2.4,1.8,4.9,1.8
		c2.5,0,3.8-1,4.9-1.8c1-0.7,1.7-1.3,3.2-1.3c1.6,0,2.3,0.5,3.2,1.3c1.1,0.8,2.4,1.8,4.9,1.8c0.8,0,1.4-0.6,1.4-1.4
		C75.9,75.9,75.3,75.3,74.6,75.3z"/>
	<path class="st0" d="M74.6,81.5c-1.6,0-2.3-0.5-3.2-1.3c-1.1-0.8-2.4-1.8-4.9-1.8c-2.5,0-3.8,1-4.9,1.8c-1,0.7-1.7,1.3-3.2,1.3
		c-1.6,0-2.3-0.5-3.2-1.3c-1.1-0.8-2.4-1.8-4.9-1.8c-0.1,0-0.1,0-0.2,0c-0.1,0-0.1,0-0.2,0c-2.5,0-3.8,1-4.9,1.8
		c-1,0.7-1.7,1.3-3.2,1.3c-1.6,0-2.3-0.5-3.2-1.3c-1.1-0.8-2.4-1.8-4.9-1.8c-2.5,0-3.8,1-4.9,1.8c-1,0.7-1.7,1.3-3.2,1.3
		c-0.8,0-1.4,0.6-1.4,1.4s0.6,1.4,1.4,1.4c2.5,0,3.8-1,4.9-1.8c1-0.7,1.7-1.3,3.2-1.3s2.3,0.5,3.2,1.3c1.1,0.8,2.4,1.8,4.9,1.8
		c2.5,0,3.8-1,4.9-1.8c1-0.7,1.7-1.3,3.2-1.3c0.1,0,0.1,0,0.2,0c0.1,0,0.1,0,0.2,0c1.6,0,2.3,0.5,3.2,1.3c1.1,0.8,2.4,1.8,4.9,1.8
		c2.5,0,3.8-1,4.9-1.8c1-0.7,1.7-1.3,3.2-1.3c1.6,0,2.3,0.5,3.2,1.3c1.1,0.8,2.4,1.8,4.9,1.8c0.8,0,1.4-0.6,1.4-1.4
		S75.3,81.5,74.6,81.5z"/>
</g>
</svg>
