<?xml version="1.0" encoding="utf-8"?>
<!-- Generator: Adobe Illustrator 23.0.6, SVG Export Plug-In . SVG Version: 6.00 Build 0)  -->
<svg version="1.1" id="Layer_2" xmlns="http://www.w3.org/2000/svg" xmlns:xlink="http://www.w3.org/1999/xlink" x="0px" y="0px"
	 viewBox="0 0 100 100" style="enable-background:new 0 0 100 100;" xml:space="preserve">
<style type="text/css">
	.st0{fill:none;stroke:#000000;stroke-width:2;stroke-linecap:round;stroke-linejoin:round;stroke-miterlimit:10;}
</style>
<g>
	<path class="st0" d="M64.9,65.7c-1.3-9.6,0.9-17.8,6-24.7L50,31L29.1,41c5.2,6.9,7.3,15.1,6,24.7"/>
	<polyline class="st0" points="64.3,37.8 64.3,31.3 60.2,31.3 60.2,26.6 39.8,26.6 39.8,31.3 35.7,31.3 35.7,37.8 	"/>
	<polyline class="st0" points="46,26.6 46,20 54,20 54,26.6 	"/>
</g>
<g>
	<path class="st0" d="M27.5,68.8c1.4,0,2.7-0.5,3.8-1.6c2.1-2.1,5.4-2.1,7.5,0c2.1,2.1,5.4,2.1,7.5,0c2.1-2.1,5.4-2.1,7.5,0
		c2.1,2.1,5.4,2.1,7.5,0c2.1-2.1,5.4-2.1,7.5,0c1,1,2.4,1.6,3.8,1.6"/>
	<path class="st0" d="M27.5,74.4c1.4,0,2.7-0.5,3.8-1.6c2.1-2.1,5.4-2.1,7.5,0c2.1,2.1,5.4,2.1,7.5,0c2.1-2.1,5.4-2.1,7.5,0
		c2.1,2.1,5.4,2.1,7.5,0c2.1-2.1,5.4-2.1,7.5,0c1,1,2.4,1.6,3.8,1.6"/>
	<path class="st0" d="M27.5,80c1.4,0,2.7-0.5,3.8-1.6c2.1-2.1,5.4-2.1,7.5,0c2.1,2.1,5.4,2.1,7.5,0c2.1-2.1,5.4-2.1,7.5,0
		c2.1,2.1,5.4,2.1,7.5,0c2.1-2.1,5.4-2.1,7.5,0c1,1,2.4,1.6,3.8,1.6"/>
</g>
</svg>
