<?xml version="1.0" encoding="utf-8"?>
<!-- Generator: Adobe Illustrator 23.0.6, SVG Export Plug-In . SVG Version: 6.00 Build 0)  -->
<svg version="1.1" baseProfile="tiny" id="Layer_1" xmlns="http://www.w3.org/2000/svg" xmlns:xlink="http://www.w3.org/1999/xlink"
	 x="0px" y="0px" viewBox="0 0 100 100" xml:space="preserve">
<title>food-serve-service-restaurant</title>
<g>
	<path fill="#68ADDF" d="M20.2,81.1c0-2.2-1.8-4.1-4.1-4.1s-4.1,1.8-4.1,4.1s1.8,4.1,4.1,4.1S20.2,83.4,20.2,81.1L20.2,81.1z
		 M14.8,81.1c0-0.7,0.6-1.4,1.4-1.4c0.7,0,1.4,0.6,1.4,1.4s-0.6,1.4-1.4,1.4C15.4,82.5,14.8,81.9,14.8,81.1z"/>
	<path fill="#68ADDF" d="M89.3,51.4h-4.1c0-18.9-14.9-34.5-33.9-35.2v-4.1h2.7V9.4h-8.1v2.7h2.7v4.1c-18.9,0.7-33.9,16.3-33.9,35.2
		h-4.1c-0.7,0-1.4,0.6-1.4,1.4c0,5.2,4.2,9.5,9.5,9.5h9.8l-3.6,3c-0.2-0.2-0.5-0.3-0.7-0.3H9.4v2.7h13.5v20.3H9.4v2.7h14.9
		c0.7,0,1.4-0.6,1.4-1.4v-4.1h32.2c2.2,0,4.3-0.8,6-2.2l16.4-13.5c2.2-1.6,2.9-4.7,1.5-7c0-0.1-0.1-0.2-0.2-0.3
		c5.1-0.2,9.1-4.4,9.1-9.5C90.6,52,90,51.4,89.3,51.4z M50,18.9c17.9,0,32.5,14.6,32.5,32.5h-65C17.5,33.4,32.1,18.9,50,18.9z
		 M78.6,67.3L62.2,80.9c-1.2,1-2.7,1.6-4.3,1.6H25.6V68.2l6.1-5.1c0.7-0.6,1.6-0.9,2.6-0.9h17.6c1.1,0,2,0.9,2,2c0,1.1-0.9,2-2,2
		h-8.7c-2.2,0-4.1,1.8-4.1,4.1c0,2.2,1.8,4.1,4.1,4.1h16.2c0.3,0,0.6-0.1,0.8-0.3l15.5-11.1c1.2-0.8,2.8-0.5,3.6,0.6
		c0,0,0.1,0.1,0.1,0.1C80.1,65,79.8,66.6,78.6,67.3z M56.3,62.2h16L59,71.7H43.2c-0.7,0-1.4-0.6-1.4-1.4c0-0.7,0.6-1.4,1.4-1.4H52
		c2.6,0,4.7-2.1,4.7-4.7C56.8,63.5,56.6,62.8,56.3,62.2z M81.1,59.5H18.9c-3.2,0-6-2.3-6.6-5.4h75.6C87.1,57.2,84.4,59.5,81.1,59.5z
		"/>
	<path fill="#68ADDF" d="M25.1,35l2.3,1.5c0.7-1.1,1.5-2.1,2.4-3.1l-2-1.8C26.8,32.6,25.9,33.8,25.1,35z"/>
	<path fill="#68ADDF" d="M31.5,31.6c5-4.7,11.6-7.3,18.5-7.3v-2.7c-7.6,0-14.8,2.9-20.3,8.1L31.5,31.6z"/>
</g>
</svg>
