<?xml version="1.0" encoding="utf-8"?>
<!-- Generator: Adobe Illustrator 23.0.6, SVG Export Plug-In . SVG Version: 6.00 Build 0)  -->
<svg version="1.1" id="Layer_2" xmlns="http://www.w3.org/2000/svg" xmlns:xlink="http://www.w3.org/1999/xlink" x="0px" y="0px"
	 viewBox="0 0 100 100" style="enable-background:new 0 0 100 100;" xml:space="preserve">
<style type="text/css">
	.st0{fill:none;stroke:#000000;stroke-width:2;stroke-linecap:round;stroke-linejoin:round;stroke-miterlimit:10;}
</style>
<g>
	<path class="st0" d="M76.3,51c0-14.5-11.8-26.3-26.3-26.3S23.7,36.4,23.7,51"/>
	<path class="st0" d="M38.2,58.2H26.3c-4,0-7.2-3.2-7.2-7.2h61.8c0,4-3.2,7.2-7.2,7.2H51.9"/>
	<line class="st0" x1="50" y1="24.6" x2="50" y2="20"/>
	<line class="st0" x1="47.7" y1="20" x2="52.3" y2="20"/>
	<path class="st0" d="M50,28.6c-6.2,0-11.8,2.5-15.8,6.5"/>
</g>
<g>
	<polyline class="st0" points="19.1,62.3 29.9,62.3 29.9,80 19.1,80 	"/>
	<circle class="st0" cx="23.8" cy="73.7" r="2.3"/>
	<path class="st0" d="M30,63.9l4.1-4.1c0.9-0.9,2.7-1.6,4-1.6h13.7c1.5,0,2.6,1.2,2.6,2.6c0,1.5-1.2,2.6-2.6,2.6c0,0-7.4,0-7.4,0
		c-1.1,0-1.9,0.9-1.9,1.9s0.9,1.9,1.9,1.9h13.9l9.9-8.3c1.4-1.2,3.4-1,4.6,0.4c1.2,1.4,1,3.4-0.4,4.6L60.1,74.3
		c-1,0.8-2.8,1.5-4.1,1.5H30"/>
</g>
</svg>
