<?xml version="1.0" encoding="utf-8"?>
<!-- Generator: Adobe Illustrator 23.0.6, SVG Export Plug-In . SVG Version: 6.00 Build 0)  -->
<svg version="1.1" baseProfile="tiny"
	 id="Layer_1" xmlns:cc="http://creativecommons.org/ns#" xmlns:dc="http://purl.org/dc/elements/1.1/" xmlns:inkscape="http://www.inkscape.org/namespaces/inkscape" xmlns:rdf="http://www.w3.org/1999/02/22-rdf-syntax-ns#" xmlns:sodipodi="http://sodipodi.sourceforge.net/DTD/sodipodi-0.dtd" xmlns:svg="http://www.w3.org/2000/svg"
	 xmlns="http://www.w3.org/2000/svg" xmlns:xlink="http://www.w3.org/1999/xlink" x="0px" y="0px" viewBox="0 0 100 100"
	 xml:space="preserve">
<g>
	<path fill="#68ADDF" d="M89.4,86L84,49.8c-0.1-0.7-0.7-1.2-1.4-1.2H65.9c-0.3,0.6-0.6,1.1-0.8,1.7c-0.2,0.4-0.4,0.8-0.6,1.2h16.9
		l1.2,8H60.6l-0.7,1.4c-0.5,1-1,2.1-1.5,3.1l16.7,20.8h-28L35.5,70.2l6.5-5.5l-1.3-2.6l-7,5.9L20.4,51.4h15.1L35,50.2
		c-0.3-0.6-0.5-1.1-0.8-1.7H17.4c-0.8,0-1.1,0.3-1.4,1.3L10.6,86c-0.1,0.4,0.1,0.8,0.4,1.1c0.3,0.3,0.7,0.5,1.1,0.5h76
		c0.4,0,0.8-0.2,1.1-0.5C89.3,86.8,89.5,86.3,89.4,86z M13.7,84.8l4.7-31.3l25.1,31.3H13.7z M60.8,62.3H83l1.5,9.8H68.6L60.8,62.3z
		 M78.7,84.8L70.9,75h14l1.5,9.8H78.7z"/>
	<path fill="#68ADDF" d="M50,21.4c-4.8,0-8.7,3.9-8.7,8.7c0,4.8,3.9,8.7,8.7,8.7s8.7-3.9,8.7-8.7C58.7,25.3,54.8,21.4,50,21.4z
		 M50,35.9c-3.2,0-5.8-2.6-5.8-5.8s2.6-5.8,5.8-5.8s5.8,2.6,5.8,5.8S53.2,35.9,50,35.9z"/>
	<path fill="#68ADDF" d="M50,12.4c-9.9,0-17.7,7.7-17.7,17.5c0,2.3,0.6,5.5,1.4,7.6C37.4,45.3,41.2,53.1,45,61l3.7,7.7
		c0.2,0.5,0.8,0.8,1.3,0.8s1.1-0.3,1.3-0.8c2.3-4.8,4.6-9.6,6.9-14.3c2.7-5.5,5.5-11.3,8.1-16.9c0.8-2.2,1.4-5.2,1.4-7.6
		C67.7,20.1,59.9,12.4,50,12.4z M63.6,36.4c-3.3,6.9-6.7,13.9-9.9,20.7L50,64.8l-0.3-0.7c-2-4.3-4.1-8.6-6.1-12.7
		c-2.4-4.9-4.9-9.9-7.2-15c-0.6-1.5-1.2-4.7-1.2-6.5c0-8.3,6.4-14.6,14.8-14.6c8.3,0,14.9,6.4,14.9,14.6
		C64.9,31.7,64.2,34.9,63.6,36.4z"/>
</g>
</svg>
