<?xml version="1.0" encoding="utf-8"?>
<!-- Generator: Adobe Illustrator 23.0.6, SVG Export Plug-In . SVG Version: 6.00 Build 0)  -->
<svg version="1.1" id="Layer_2" xmlns="http://www.w3.org/2000/svg" xmlns:xlink="http://www.w3.org/1999/xlink" x="0px" y="0px"
	 viewBox="0 0 100 100" style="enable-background:new 0 0 100 100;" xml:space="preserve">
<style type="text/css">
	.st0{fill:none;stroke:#000000;stroke-width:2;stroke-linecap:round;stroke-linejoin:round;stroke-miterlimit:10;}
</style>
<g>
	<path class="st0" d="M65.6,71.9L30.1,56.5H17.1c-3.4,0-6.1-2.7-6.1-6.1V43c0-3.4,2.7-6.1,6.1-6.1h12.9l35.5-15.4
		c0-1.6,1.3-2.8,2.8-2.8l0,0c1.6,0,2.8,1.3,2.8,2.8v50.4c0,1.6-1.3,2.8-2.8,2.8l0,0C66.8,74.7,65.6,73.5,65.6,71.9z"/>
	<line class="st0" x1="65.6" y1="71.9" x2="65.6" y2="21.5"/>
	<line class="st0" x1="30.1" y1="36.9" x2="30.1" y2="56.5"/>
	<polyline class="st0" points="17.5,56.5 21.7,81.3 30.1,81.3 25.9,56.5 	"/>
</g>
<g>
	<line class="st0" x1="16.9" y1="41.8" x2="23.9" y2="41.8"/>
	<line class="st0" x1="16.9" y1="46.7" x2="23.9" y2="46.7"/>
	<line class="st0" x1="16.9" y1="51.6" x2="23.9" y2="51.6"/>
	<polyline class="st0" points="26.6,60.7 30.5,62.4 31.5,67.4 27.7,67.4 	"/>
	<path class="st0" d="M71.2,38.4c4.6,0,8.3,3.7,8.3,8.3S75.8,55,71.2,55"/>
	<line class="st0" x1="82.5" y1="41.7" x2="86.1" y2="38.8"/>
	<line class="st0" x1="84.3" y1="46.7" x2="89.1" y2="46.7"/>
	<line class="st0" x1="82.5" y1="51.7" x2="86.1" y2="54.6"/>
</g>
</svg>
