<?xml version="1.0" encoding="utf-8"?>
<!-- Generator: Adobe Illustrator 23.0.6, SVG Export Plug-In . SVG Version: 6.00 Build 0)  -->
<svg version="1.1" baseProfile="tiny" id="Layer_1" xmlns="http://www.w3.org/2000/svg" xmlns:xlink="http://www.w3.org/1999/xlink"
	 x="0px" y="0px" viewBox="0 0 100 100" xml:space="preserve">
<g>
	<path fill="#68ADDF" d="M50,27c-15.7,0-28.4,12.7-28.4,28.4S34.3,83.9,50,83.9s28.4-12.7,28.4-28.4C78.4,39.7,65.7,27,50,27z
		 M69.9,56.8h5.7C75,69.9,64.5,80.4,51.4,81.1v-4.4c0-0.7-0.6-1.4-1.4-1.4s-1.4,0.6-1.4,1.4v4.4C35.5,80.4,25,69.9,24.3,56.8h5.8
		c0.7,0,1.4-0.6,1.4-1.4c0-0.7-0.6-1.4-1.4-1.4h-5.8C25,40.9,35.5,30.5,48.6,29.8v4.4c0,0.7,0.6,1.4,1.4,1.4s1.4-0.6,1.4-1.4v-4.4
		C64.5,30.5,75,40.9,75.7,54.1h-5.8c-0.7,0-1.4,0.6-1.4,1.4C68.6,56.2,69.2,56.8,69.9,56.8z"/>
	<path fill="#68ADDF" d="M51.4,20.2v-2.7h4.1c0.7,0,1.4-0.6,1.4-1.4v-5.4c0-0.7-0.6-1.4-1.4-1.4H44.6c-0.7,0-1.4,0.6-1.4,1.4v5.4
		c0,0.7,0.6,1.4,1.4,1.4h4.1v2.7C29.2,21,14.1,37.3,14.8,56.8s17.1,34.6,36.5,33.8c19.4-0.7,34.6-17.1,33.8-36.5
		C84.5,35.7,69.7,20.9,51.4,20.2z M45.9,14.8v-2.7h8.1v2.7H45.9z M50,87.9c-17.9,0-32.5-14.6-32.5-32.5S32.1,22.9,50,22.9
		s32.5,14.6,32.5,32.5C82.5,73.4,67.9,87.9,50,87.9z"/>
	<path fill="#68ADDF" d="M63.3,39.5l-17.9,11c0,0,0,0,0,0c-0.1,0.1-0.2,0.1-0.2,0.2C45,50.9,45,50.9,44.9,51c0,0,0,0,0,0l-10,18.5
		c-0.4,0.7-0.1,1.5,0.5,1.8c0.4,0.2,0.9,0.2,1.3,0l17.9-11c0,0,0,0,0,0c0.1-0.1,0.2-0.1,0.2-0.2c0.1-0.1,0.1-0.1,0.2-0.2
		c0,0,0,0,0,0l10-18.5c0.4-0.7,0.1-1.5-0.5-1.8C64.2,39.3,63.7,39.3,63.3,39.5L63.3,39.5z M39.6,66.3l6.8-12.5l5.3,5L39.6,66.3z
		 M53.6,56.9l-5.3-5l12.1-7.4L53.6,56.9z"/>
</g>
</svg>
