<?xml version="1.0" encoding="utf-8"?>
<!-- Generator: Adobe Illustrator 23.0.6, SVG Export Plug-In . SVG Version: 6.00 Build 0)  -->
<svg version="1.1" id="Layer_2" xmlns="http://www.w3.org/2000/svg" xmlns:xlink="http://www.w3.org/1999/xlink" x="0px" y="0px"
	 viewBox="0 0 100 100" style="enable-background:new 0 0 100 100;" xml:space="preserve">
<style type="text/css">
	.st0{fill:none;stroke:#000000;stroke-width:2;stroke-linecap:round;stroke-linejoin:round;stroke-miterlimit:10;}
</style>
<g>
	<line class="st0" x1="50" y1="38.2" x2="50" y2="33.9"/>
	<line class="st0" x1="33.9" y1="54.3" x2="29.6" y2="54.3"/>
	<line class="st0" x1="50" y1="74.7" x2="50" y2="70.4"/>
	<line class="st0" x1="70.4" y1="54.3" x2="66.1" y2="54.3"/>
	<line class="st0" x1="46.6" y1="50.9" x2="53.4" y2="57.7"/>
	<path class="st0" d="M46.6,50.9L60,43.6c0.7-0.4,1-0.1,0.6,0.6l-7.3,13.5"/>
	<path class="st0" d="M46.6,50.9l-7.3,13.4c-0.4,0.7-0.1,1,0.6,0.6l13.4-7.3"/>
	<rect x="45.9" y="20" class="st0" width="8.1" height="4.4"/>
	<line class="st0" x1="50" y1="28.6" x2="50" y2="24.4"/>
</g>
<g>
	<circle class="st0" cx="50" cy="54.3" r="25.7"/>
	<circle class="st0" cx="50" cy="54.3" r="20.4"/>
</g>
</svg>
