<?xml version="1.0" encoding="utf-8"?>
<!-- Generator: Adobe Illustrator 23.0.6, SVG Export Plug-In . SVG Version: 6.00 Build 0)  -->
<svg version="1.1" id="Layer_1" xmlns="http://www.w3.org/2000/svg" xmlns:xlink="http://www.w3.org/1999/xlink" x="0px" y="0px"
	 viewBox="0 0 100 100" enable-background="new 0 0 100 100" xml:space="preserve">
<title>News-Icon-B</title>
<desc>Created with Sketch.</desc>
<g>
	<path fill="#009C56" d="M74,43c0-11.9-10.5-22-23-22c-12.5,0-23,10.1-23,22v27h-6v4h18c0,5.5,4.5,10,10,10c5.5,0,10-4.5,10-10h20
		v-4h-6V43z M50,80c-3.3,0-6-2.7-6-6h12C56,77.3,53.3,80,50,80z M32,70V43c0-9.8,8.7-18,19-18s19,8.2,19,18v27H32z"/>
	<path fill="#009C56" d="M39.3,16.9l-1.5-3.7c-9,3.6-16,11.2-18.7,20.3l3.8,1.1C25.3,26.6,31.4,20,39.3,16.9z"/>
	<path fill="#009C56" d="M77.6,34.6l3.8-1.1c-2.7-9.1-9.7-16.7-18.7-20.3l-1.5,3.7C69.1,20,75.2,26.6,77.6,34.6z"/>
</g>
</svg>
