<?xml version="1.0" encoding="utf-8"?>
<!-- Generator: Adobe Illustrator 23.0.6, SVG Export Plug-In . SVG Version: 6.00 Build 0)  -->
<svg version="1.1" id="Layer_2" xmlns="http://www.w3.org/2000/svg" xmlns:xlink="http://www.w3.org/1999/xlink" x="0px" y="0px"
	 viewBox="0 0 100 100" style="enable-background:new 0 0 100 100;" xml:space="preserve">
<style type="text/css">
	.st0{fill:none;stroke:#000000;stroke-width:2;stroke-linecap:round;stroke-linejoin:round;stroke-miterlimit:10;}
</style>
<g>
	<line class="st0" x1="44.6" y1="21.6" x2="44.6" y2="73.6"/>
	<line class="st0" x1="20.1" y1="38.9" x2="69.1" y2="38.9"/>
	<line class="st0" x1="20.1" y1="56.3" x2="56.1" y2="56.3"/>
	<path class="st0" d="M58.5,52.8c0.2-1.7,0.3-3.4,0.3-5.2c0-14.4-6.4-26-14.2-26s-14.2,11.6-14.2,26s6.4,26,14.2,26
		c5.6,0,10.4-5.9,12.7-14.4"/>
</g>
<g>
	<path class="st0" d="M68.8,57.1c1.1-2.9,1.8-6.1,1.8-9.5c0-14.4-11.6-26-26-26s-26,11.6-26,26s11.6,26,26,26
		c6.2,0,11.9-2.2,16.3-5.8"/>
	<path class="st0" d="M72.7,64.7c-0.6-0.6-0.4-1.3,0.4-1.5l4.8-1.3c0.8-0.2,0.9-0.7,0.1-1l-22.7-9.4c-0.8-0.3-1.2,0.1-0.9,0.9
		L63.9,75c0.3,0.8,0.8,0.8,1-0.1l1.3-4.8c0.2-0.8,0.9-1,1.5-0.4L73,75c0.6,0.6,1.6,0.6,2.2,0l2.8-2.8c0.6-0.6,0.6-1.6,0-2.2
		L72.7,64.7z"/>
</g>
</svg>
