<?xml version="1.0" encoding="utf-8"?>
<!-- Generator: Adobe Illustrator 23.0.6, SVG Export Plug-In . SVG Version: 6.00 Build 0)  -->
<svg version="1.1" baseProfile="tiny"
	 id="Layer_1" xmlns:cc="http://creativecommons.org/ns#" xmlns:dc="http://purl.org/dc/elements/1.1/" xmlns:inkscape="http://www.inkscape.org/namespaces/inkscape" xmlns:rdf="http://www.w3.org/1999/02/22-rdf-syntax-ns#" xmlns:sodipodi="http://sodipodi.sourceforge.net/DTD/sodipodi-0.dtd" xmlns:svg="http://www.w3.org/2000/svg"
	 xmlns="http://www.w3.org/2000/svg" xmlns:xlink="http://www.w3.org/1999/xlink" x="0px" y="0px" viewBox="0 0 100 100"
	 xml:space="preserve">
<path fill="#68ADDF" d="M69,87.9c0.4,0.2,0.8,0.3,1.2,0.2c0.4-0.1,0.7-0.4,0.9-0.7l3.8-6.5l6.9,7.9c0.6,0.6,1.6,0.7,2.2,0.1l5.7-5.3
	c0.6-0.6,0.7-1.5,0.1-2.2L83,73.6l6.4-2.9c0.8-0.3,1.1-1.3,0.8-2.1c-0.1-0.3-0.4-0.6-0.6-0.7l-13.7-7.8l0.1-0.3
	c2.1-4.6,3.2-9.4,3.2-14.5c0-19.1-15.5-34.6-34.6-34.6S9.8,26.3,9.8,45.3C9.8,64.4,25.3,80,44.4,80c5.6,0,11.3-1.4,16.3-4.1
	c0.4-0.2,0.7-0.5,0.8-0.9c0.1-0.4,0.1-0.8-0.1-1.2c-0.4-0.8-1.3-1.1-2.1-0.7l-0.1,0c-1.7,0.9-3.6,1.7-5.4,2.3l-1.3,0.4l0.9-1
	c1.4-1.6,2.7-3.5,3.8-5.8c1.2-2.5,2.3-5.4,3.1-8.7l0.4-1.4l7.5,28C68.4,87.4,68.6,87.7,69,87.9z M14.7,56c-1.2-3.4-1.8-7-1.8-10.7
	c0-13.9,8.9-26,22.1-30.1l1.3-0.4l-0.9,1c-1.4,1.6-2.7,3.6-3.8,5.8c-1.3,2.6-2.4,5.8-3.3,9.3l-0.1,0.3h-7.4c-0.8,0-1.6,0.7-1.6,1.5
	c0,0.4,0.2,0.8,0.4,1.1c0.3,0.3,0.7,0.5,1.1,0.5h6.8l-0.1,0.4c-0.6,3.5-0.9,7-0.9,10.5c0,3.6,0.3,7.1,0.8,10.5l0.1,0.4H14.8L14.7,56
	z M35,75.5C27.1,73,20.3,67.4,16.5,60l-0.3-0.5h12l0.1,0.3c0.8,3.5,1.9,6.6,3.3,9.3c1.1,2.3,2.4,4.2,3.8,5.8l0.9,1L35,75.5z
	 M42.9,76.1L42.4,76c-3-0.9-5.8-3.9-8-8.3c-1.1-2.2-2.1-4.8-2.8-7.7l-0.1-0.5h11.4V76.1z M42.9,56.3H30.7L30.7,56
	c-0.6-3.4-0.9-7-0.9-10.6c0-3.5,0.3-7.1,0.9-10.6l0.1-0.3h12.1V56.3z M42.9,31.3H31.4l0.1-0.5c0.7-2.9,1.7-5.5,2.8-7.7
	c2.2-4.4,5.1-7.4,8-8.3l0.5-0.2V31.3z M46,14.6l0.5,0.2c3,0.9,5.8,3.9,8,8.3c1.1,2.2,2.1,4.8,2.8,7.7l0.1,0.5H46V14.6z M57.3,59.9
	c-0.7,2.9-1.7,5.5-2.8,7.7c-2.2,4.5-5.1,7.4-8,8.3L46,76.1V59.4h11.4L57.3,59.9z M58.1,56l-0.1,0.3H46V34.4H58l0.1,0.3
	c0.6,3.5,0.9,7.1,0.9,10.6C59,49,58.7,52.6,58.1,56z M60.6,31.3L60.5,31c-0.8-3.5-1.9-6.7-3.3-9.3c-1.1-2.2-2.4-4.2-3.8-5.8l-0.9-1
	l1.3,0.4c7.9,2.5,14.7,8.1,18.5,15.4l0.3,0.5H60.6z M61.3,34.8l-0.1-0.4H74l0.1,0.2c1.2,3.4,1.9,7,1.9,10.7c0,4.4-0.9,8.8-2.8,12.8
	L73,58.6l-11.2-6.4l0-0.2c0.2-2.2,0.3-4.4,0.3-6.6C62.2,41.8,61.9,38.3,61.3,34.8z M85.2,69.2l-5.5,2.4c-0.4,0.2-0.7,0.5-0.8,0.9
	c-0.1,0.4-0.1,0.8,0,1.2c0.1,0.1,0.1,0.3,0.2,0.4l7.2,8.2L83,85.5l-7.3-8.3c-0.6-0.6-1.6-0.7-2.2-0.1c-0.1,0.1-0.2,0.2-0.3,0.4
	l-3,5.1l-7-25.9L85.2,69.2z"/>
</svg>
