<svg height='100px' width='100px'  fill="#000000" xmlns="http://www.w3.org/2000/svg" xmlns:xlink="http://www.w3.org/1999/xlink" version="1.1" x="0px" y="0px" viewBox="0 0 113.4 113.4" style="enable-background:new 0 0 113.4 113.4;" xml:space="preserve">
<path d="M98.1,14.2H15.2c-2.3,0-4.2,1.9-4.2,4.2v5.9c0,2.3,1.9,4.2,4.2,4.2h0.9v48.4c0,1.1,0.9,2,2,2h36.6V85  c-3,0.9-5.2,3.6-5.2,6.9c0,4,3.2,7.2,7.2,7.2s7.2-3.2,7.2-7.2c0-3.3-2.2-6.1-5.2-6.9v-6.2h36.6c1.1,0,2-0.9,2-2V28.4h0.9  c2.3,0,4.2-1.9,4.2-4.2v-5.9C102.3,16.1,100.5,14.2,98.1,14.2z M59.9,92c0,1.8-1.4,3.2-3.2,3.2s-3.2-1.4-3.2-3.2s1.4-3.2,3.2-3.2  S59.9,90.2,59.9,92z M93.3,74.8H20.1V28.4h73.1V74.8z M98.3,24.2c0,0.1-0.1,0.2-0.2,0.2h-2.9H18.1h-2.9c-0.1,0-0.2-0.1-0.2-0.2v-5.9  c0-0.1,0.1-0.2,0.2-0.2h82.9c0.1,0,0.2,0.1,0.2,0.2V24.2z M41.2,69.6C41.2,69.6,41.2,69.6,41.2,69.6c8.8,0,15.9-7.1,15.9-15.9  c0-1.1-0.9-2-2-2H43.2V39.8c0-0.5-0.2-1-0.6-1.4c-0.4-0.4-0.9-0.6-1.4-0.6c-8.8,0-15.9,7.1-15.9,15.9C25.4,62.4,32.5,69.6,41.2,69.6  z M39.2,42v11.7c0,1.1,0.9,2,2,2h11.7c-1,5.6-5.8,9.9-11.7,9.9c0,0,0,0,0,0c-6.5,0-11.9-5.3-11.9-11.9C29.4,47.8,33.6,42.9,39.2,42z   M47,50h13.9c1.1,0,2-0.9,2-2c0-8.8-7.1-15.9-15.9-15.9h0c-1.1,0-2,0.9-2,2V48C45,49.1,45.9,50,47,50z M49,36.3  c4.9,0.8,8.9,4.8,9.7,9.7H49V36.3z M65.9,44c0-1.1,0.9-2,2-2h15.8c1.1,0,2,0.9,2,2s-0.9,2-2,2H67.9C66.8,46,65.9,45.2,65.9,44z   M65.9,53.7c0-1.1,0.9-2,2-2h15.8c1.1,0,2,0.9,2,2s-0.9,2-2,2H67.9C66.8,55.7,65.9,54.8,65.9,53.7z M65.9,63.3c0-1.1,0.9-2,2-2h15.8  c1.1,0,2,0.9,2,2c0,1.1-0.9,2-2,2H67.9C66.8,65.3,65.9,64.4,65.9,63.3z"></path>
</svg>