<svg height='100px' width='100px'  fill="#000000" xmlns="http://www.w3.org/2000/svg" xmlns:xlink="http://www.w3.org/1999/xlink" version="1.1" x="0px" y="0px" viewBox="0 0 70 70" style="enable-background:new 0 0 70 70;" xml:space="preserve"><g><path d="M61.7480469,15.9765625c0-0.0216064-0.0113525-0.0407104-0.0127563-0.0621338   c-0.0058594-0.0933228-0.0241699-0.1830444-0.055542-0.2710571c-0.0113525-0.0317383-0.0205688-0.0623779-0.0350342-0.0928345   c-0.0514526-0.1085815-0.1159058-0.2114258-0.2062378-0.2976074L47.8457031,2.2763672   c-0.0853271-0.0814209-0.1844482-0.1397705-0.2886353-0.1856689C47.526062,2.0770264,47.4944458,2.069458,47.4622192,2.059021   c-0.0803223-0.026123-0.161377-0.0419922-0.2455444-0.0472412C47.1956177,2.010437,47.1765137,2,47.1552734,2H9.2470703   C8.9819336,2,8.7275391,2.1054688,8.5400391,2.2929688S8.2470703,2.734375,8.2470703,3l0.0048828,64c0,0.5527344,0.4477539,1,1,1   h51.5009766c0.2651367,0,0.5195312-0.1054688,0.7070312-0.2929688S61.7529297,67.2646484,61.7529297,67L61.7480469,15.9765625z    M48.1552734,5.3373413l9.3360596,8.9125977l0.7611084,0.7266235h-10.097168V5.3373413z M10.2519531,66L10.2470703,4h35.9082031   v11.9765625c0,0.5527344,0.4477539,1,1,1h12.5928345L59.7529297,66H10.2519531z"></path><path d="M24.9448242,29.7041016c5.2490234,0,9.519043-4.2705078,9.519043-9.5195312   c0-0.8098145-0.1125488-1.592041-0.303772-2.3431396c-0.0025635-0.0117188,0.0011597-0.0230713-0.0018921-0.03479   s-0.0117798-0.0197754-0.0151978-0.031311c-1.071106-4.0838623-4.7827759-7.109314-9.1981812-7.109314   c-5.2490234,0-9.519043,4.2695312-9.519043,9.5185547S19.6958008,29.7041016,24.9448242,29.7041016z M25.9399414,12.7396851   c2.7098389,0.3607788,4.9668579,2.1646118,5.9668579,4.6159668l-5.9668579,1.5408325V12.7396851z M23.9399414,12.7412109V20.1875   c0,0.3095703,0.1430664,0.6015625,0.3876953,0.7910156c0.1772461,0.1367188,0.3930664,0.2089844,0.6123047,0.2089844   c0.0834961,0,0.1674805-0.0107422,0.25-0.0322266l7.2158203-1.8637695c0.0349731,0.293457,0.0581055,0.5903931,0.0581055,0.8930664   c0,4.1464844-3.3730469,7.5195312-7.519043,7.5195312s-7.519043-3.3730469-7.519043-7.5195312   C17.4257812,16.3805542,20.2685547,13.2349854,23.9399414,12.7412109z"></path><path d="M53.3139648,54.9560547h-1.5099487l-0.0042114-25.3916016c0-0.5527344-0.4477539-1-1-1h-4.6806641   c-0.2651367,0-0.5195312,0.1054688-0.7070312,0.2929688s-0.2929688,0.4423828-0.2929688,0.7070312l0.0042114,25.3916016h-2.5299072   l-0.0040894-12.1972656c0-0.5527344-0.4477539-1-1-1h-4.6806641c-0.2651367,0-0.5195312,0.1054688-0.7070312,0.2929688   s-0.2929688,0.4423828-0.2929688,0.7070312l0.0040894,12.1972656H33.383606l-0.0042114-20.3691406c0-0.5527344-0.4477539-1-1-1   h-4.6806641c-0.2651367,0-0.5195312,0.1054688-0.7070312,0.2929688s-0.2929688,0.4423828-0.2929688,0.7070312l0.0042114,20.3691406   h-2.5298462l-0.0041504-15.4726562c0-0.5527344-0.4477539-1-1-1h-4.6806641c-0.2651367,0-0.5195312,0.1054688-0.7070312,0.2929688   s-0.2929688,0.4423828-0.2929688,0.7070312l0.0041504,15.4726562h-1.5095215c-0.5522461,0-1,0.4472656-1,1s0.4477539,1,1,1   h2.5097656h4.6806641h4.5297852h4.6806641h4.5292969H41.59375h4.5297852h4.6806641h2.5097656c0.5522461,0,1-0.4472656,1-1   S53.8662109,54.9560547,53.3139648,54.9560547z M19.4921875,54.9560547l-0.003418-14.4726562h2.6806641l0.003418,14.4726562   H19.4921875z M28.703125,54.9560547l-0.0043945-19.3691406h2.6806641l0.0043945,19.3691406H28.703125z M37.9125977,54.9560547   l-0.003418-11.1972656h2.6806641l0.003418,11.1972656H37.9125977z M47.1235352,54.9560547l-0.0043945-24.3916016h2.6806641   l0.0043945,24.3916016H47.1235352z"></path></g></svg>