<?xml version="1.0" encoding="utf-8"?>
<!-- Generator: Adobe Illustrator 23.0.6, SVG Export Plug-In . SVG Version: 6.00 Build 0)  -->
<svg version="1.1" id="Layer_1" xmlns="http://www.w3.org/2000/svg" xmlns:xlink="http://www.w3.org/1999/xlink" x="0px" y="0px"
	 viewBox="0 0 100 100" style="enable-background:new 0 0 100 100;" xml:space="preserve">
<style type="text/css">
	.st0{fill:#68ADDF;}
</style>
<path class="st0" d="M84.9,75.7c0.8,0,1.4-0.6,1.4-1.4s-0.6-1.4-1.4-1.4h-8.5V57.2c0-0.8-0.6-1.4-1.4-1.4s-1.4,0.6-1.4,1.4v15.7
	h-9.2V52.2c0-0.8-0.6-1.4-1.4-1.4s-1.4,0.6-1.4,1.4v20.7h-9.2V59.2c0-0.8-0.6-1.4-1.4-1.4c-0.8,0-1.4,0.6-1.4,1.4v13.7h-9.2V49.2
	c0-0.8-0.6-1.4-1.4-1.4s-1.4,0.6-1.4,1.4v23.7h-9.2V60.2c0-0.8-0.6-1.4-1.4-1.4s-1.4,0.6-1.4,1.4v12.7h-8.5c-0.8,0-1.4,0.6-1.4,1.4
	s0.6,1.4,1.4,1.4H84.9z"/>
<path class="st0" d="M75.1,41c0.7,0,1.3-0.6,1.4-1.2l1-12.9c0-0.4-0.1-0.8-0.3-1.1c-0.2-0.2-0.5-0.4-0.8-0.4l-12.9-1
	c-0.4,0-0.8,0.1-1.1,0.3c-0.2,0.2-0.4,0.5-0.4,0.8c0,0.4,0.1,0.8,0.3,1.1c0.2,0.2,0.5,0.4,0.8,0.4l8.7,0.6L53.6,42.2L39.8,31.3
	c-0.3-0.2-0.6-0.3-0.9-0.3c-0.3,0-0.6,0.1-0.9,0.4L23.8,45c-0.5,0.5-0.6,1.4-0.1,1.9c0.3,0.3,0.7,0.4,1,0.4c0.3,0,0.7-0.1,1-0.4
	l13.3-12.8l13.8,10.9c0.5,0.4,1.2,0.4,1.7,0l19.9-16l-0.8,10.4c0,0.4,0.1,0.8,0.3,1.1c0.2,0.2,0.5,0.4,0.8,0.4H75.1z"/>
</svg>
