<?xml version="1.0" encoding="utf-8"?>
<!-- Generator: Adobe Illustrator 23.0.6, SVG Export Plug-In . SVG Version: 6.00 Build 0)  -->
<svg version="1.1" id="Layer_2" xmlns="http://www.w3.org/2000/svg" xmlns:xlink="http://www.w3.org/1999/xlink" x="0px" y="0px"
	 viewBox="0 0 100 100" style="enable-background:new 0 0 100 100;" xml:space="preserve">
<style type="text/css">
	.st0{fill:none;stroke:#000000;stroke-width:2;stroke-linecap:round;stroke-linejoin:round;stroke-miterlimit:10;}
</style>
<g>
	<polyline class="st0" points="25.7,41.9 37.9,31.9 49.7,48.2 74.3,23.6 	"/>
	<polyline class="st0" points="74.3,36.6 74.3,23.6 61.3,23.6 	"/>
</g>
<g>
	<line class="st0" x1="15" y1="75" x2="85" y2="75"/>
	<path class="st0" d="M22.7,75V57.3c0-0.9,0.8-1.7,1.7-1.7H27c0.9,0,1.7,0.8,1.7,1.7V75"/>
	<path class="st0" d="M47,75V62c0-0.9,0.8-1.7,1.7-1.7h2.7c0.9,0,1.7,0.8,1.7,1.7v13"/>
	<path class="st0" d="M71.3,75V47.3c0-0.9,0.8-1.7,1.7-1.7h2.7c0.9,0,1.7,0.8,1.7,1.7V75"/>
	<path class="st0" d="M34.8,75V49.9c0-0.9,0.8-1.7,1.7-1.7h2.7c0.9,0,1.7,0.8,1.7,1.7V75"/>
	<path class="st0" d="M59.1,75V54.1c0-0.9,0.8-1.7,1.7-1.7h2.7c0.9,0,1.7,0.8,1.7,1.7V75"/>
</g>
</svg>
