<?xml version="1.0" encoding="utf-8"?>
<!-- Generator: Adobe Illustrator 23.0.6, SVG Export Plug-In . SVG Version: 6.00 Build 0)  -->
<svg version="1.1" baseProfile="tiny" id="Layer_1" xmlns="http://www.w3.org/2000/svg" xmlns:xlink="http://www.w3.org/1999/xlink"
	 x="0px" y="0px" viewBox="0 0 100 100" xml:space="preserve">
<g>
	<path fill="#68ADDF" d="M16.8,85.5c-1.3,0.9-3.1,0.9-4.4,0c-0.6-0.5-1.4-0.4-1.9,0.2c-0.5,0.6-0.4,1.4,0.2,1.9c0,0,0.1,0,0.1,0.1
		c2.3,1.6,5.3,1.6,7.6,0l1.1-0.8c1.3-0.9,3.1-0.9,4.4,0l1.1,0.8c2.3,1.6,5.3,1.6,7.6,0l1.1-0.8c1.3-0.9,3.1-0.9,4.4,0l1.1,0.8
		c2.3,1.6,5.3,1.6,7.6,0l1.1-0.8c1.3-0.9,3.1-0.9,4.4,0l1.1,0.8c2.3,1.6,5.3,1.6,7.6,0l1.1-0.8c1.3-0.9,3.1-0.9,4.4,0l1.1,0.8
		c2.3,1.6,5.3,1.6,7.6,0l1.1-0.8c1.3-0.9,3.1-0.9,4.4,0l1.1,0.8c2.3,1.6,5.3,1.6,7.6,0c0.6-0.4,0.8-1.2,0.4-1.8
		c-0.4-0.6-1.2-0.8-1.8-0.4c0,0-0.1,0.1-0.1,0.1c-1.3,0.9-3.1,0.9-4.4,0l-1.1-0.8c-0.6-0.5-1.4-0.8-2.2-1l5.7-18.3
		c0.2-0.7-0.2-1.4-0.9-1.7c0,0-0.1,0-0.1,0l-1.6-0.3v-13c0-0.7-0.6-1.3-1.3-1.3h-9.3V37.2c0-0.7-0.6-1.3-1.3-1.3h-9.3V23.9
		c0-0.7-0.6-1.3-1.3-1.3H54v-3l17.2-0.8v3.8c0,0.7,0.6,1.3,1.3,1.3s1.3,0.6,1.3,1.3c0,0.7-0.6,1.3-1.3,1.3s-1.3-0.6-1.3-1.3h-2.6
		c0,2.2,1.8,4,4,4s4-1.8,4-4c0-1.7-1.1-3.2-2.6-3.7v-2.8l1.4-0.1c0.7,0,1.3-0.6,1.3-1.3V16c0-2.2-1.8-4-4-4H50c-2.2,0-4,1.8-4,4v6.6
		h-6.6c-0.7,0-1.3,0.6-1.3,1.3v11.9h-9.3c-0.7,0-1.3,0.6-1.3,1.3v11.9h-9.3c-0.7,0-1.3,0.6-1.3,1.3v13l-1.6,0.3
		c-0.7,0.1-1.2,0.8-1,1.5c0,0,0,0.1,0,0.1l5.7,18.3c-0.8,0.2-1.5,0.5-2.2,1L16.8,85.5z M74.5,84.7l-1.1,0.8c-1.3,0.9-3.1,0.9-4.4,0
		l-1.1-0.8c-2.3-1.6-5.3-1.6-7.6,0l-1.1,0.8c-1.3,0.9-3.1,0.9-4.4,0l-1.1-0.8c-2.3-1.6-5.3-1.6-7.6,0l-1.1,0.8
		c-1.3,0.9-3.1,0.9-4.4,0l-1.1-0.8c-2.3-1.6-5.3-1.6-7.6,0L31,85.5c-1.3,0.9-3.1,0.9-4.4,0l-1.1-0.8c-0.8-0.6-1.7-0.9-2.7-1.1
		l-1.3-4.1h56.9l-1.3,4.1C76.2,83.7,75.3,84.1,74.5,84.7z M80.4,62.8l-18.5-3.6v-7.6h18.5V62.8z M46,51.7v6l-5.3,1v-7.1H46z
		 M54,51.7h5.3v7.1l-5.3-1V51.7z M69.9,49.1H54V38.5h15.9V49.1z M59.3,25.2v10.6H54V25.2H59.3z M51.3,57h-2.6V19.9l2.6-0.1V57z
		 M48.7,16c0-0.7,0.6-1.3,1.3-1.3h22.5c0.7,0,1.3,0.6,1.3,1.3l-25.1,1.3V16z M40.7,25.2H46v10.6h-5.3V25.2z M30.2,38.5H46v10.6H30.2
		V38.5z M19.6,51.7h18.5v7.6l-18.5,3.6V51.7z M50,59.7L82.7,66l-3.4,10.9H20.7L17.3,66L50,59.7z"/>
</g>
</svg>
