<?xml version="1.0" encoding="utf-8"?>
<!-- Generator: Adobe Illustrator 23.0.6, SVG Export Plug-In . SVG Version: 6.00 Build 0)  -->
<svg version="1.1" id="Layer_2" xmlns="http://www.w3.org/2000/svg" xmlns:xlink="http://www.w3.org/1999/xlink" x="0px" y="0px"
	 viewBox="0 0 100 100" style="enable-background:new 0 0 100 100;" xml:space="preserve">
<style type="text/css">
	.st0{fill:none;stroke:#000000;stroke-width:2;stroke-linecap:round;stroke-linejoin:round;stroke-miterlimit:10;}
</style>
<g>
	<polyline class="st0" points="52.3,50.4 75.6,50.4 75.6,61.6 	"/>
	<polyline class="st0" points="24.4,61.6 24.4,50.4 47.7,50.4 	"/>
	<polyline class="st0" points="52.3,39.7 66.9,39.7 66.9,50.4 	"/>
	<polyline class="st0" points="33.1,50.4 33.1,39.7 47.7,39.7 	"/>
	<line class="st0" x1="41.5" y1="58.2" x2="41.5" y2="50.4"/>
	<line class="st0" x1="58.5" y1="50.4" x2="58.5" y2="58.2"/>
	<polyline class="st0" points="52.3,29.1 58.5,29.1 58.5,39.7 	"/>
	<polyline class="st0" points="41.5,39.7 41.5,29.1 47.7,29.1 	"/>
</g>
<g>
	<path class="st0" d="M18.6,78.9c1.6,1.6,4.1,1.6,5.7,0c1.6-1.6,4.1-1.6,5.7,0c1.6,1.6,4.1,1.6,5.7,0c1.6-1.6,4.1-1.6,5.7,0
		c1.6,1.6,4.1,1.6,5.7,0c1.6-1.6,4.1-1.6,5.7,0c1.6,1.6,4.1,1.6,5.7,0c1.6-1.6,4.1-1.6,5.7,0c1.6,1.6,4.1,1.6,5.7,0
		c1.6-1.6,4.1-1.6,5.7,0c1.6,1.6,4.1,1.6,5.7,0"/>
	<polyline class="st0" points="72.8,77.8 77.3,62 50,56.6 22.7,62 27.2,77.8 	"/>
	<line class="st0" x1="25.7" y1="72.7" x2="74.3" y2="72.7"/>
	<line class="st0" x1="52.3" y1="24.7" x2="52.3" y2="57.1"/>
	<path class="st0" d="M47.7,57.1V23.7c0-2,1.6-3.5,3.5-3.5h15.6c2,0,3.5,1.6,3.5,3.5L47.7,25"/>
	<path class="st0" d="M65.7,30.2c0,1.3,1,2.3,2.3,2.3s2.3-1,2.3-2.3s-1-2.3-2.3-2.3v-4.1"/>
</g>
</svg>
