<?xml version="1.0" encoding="utf-8"?>
<!-- Generator: Adobe Illustrator 23.0.6, SVG Export Plug-In . SVG Version: 6.00 Build 0)  -->
<svg version="1.1" id="Layer_1" xmlns="http://www.w3.org/2000/svg" xmlns:xlink="http://www.w3.org/1999/xlink" x="0px" y="0px"
	 viewBox="0 0 100 100" style="enable-background:new 0 0 100 100;" xml:space="preserve">
<style type="text/css">
	.st0{fill:#009C56;}
</style>
<title>Stock-Icon-B</title>
<desc>Created with Sketch.</desc>
<path class="st0" d="M20.1,72.5l14-18.1C35,54.8,36,55,37,55c2,0,3.9-0.9,5.1-2.3L53,57.8c0,0.1,0,0.1,0,0.2c0,3.9,3.1,7,7,7
	s7-3.1,7-7c0-1.2-0.3-2.4-0.9-3.4l15.3-16.1c0.8,0.3,1.7,0.5,2.6,0.5c3.9,0,7-3.1,7-7s-3.1-7-7-7s-7,3.1-7,7c0,1.5,0.5,2.9,1.3,4
	l-15,15.8c-1-0.5-2.1-0.8-3.3-0.8c-2.4,0-4.5,1.2-5.7,3l-10.4-4.8C44,48.8,44,48.4,44,48c0-3.9-3.1-7-7-7s-7,3.1-7,7
	c0,1.4,0.4,2.6,1.1,3.7l-14,18c-0.4-0.2-0.7-0.3-1.1-0.5V15.9h-4v53.4c-2.9,0.9-5,3.5-5,6.7c0,3.9,3.1,7,7,7c3.2,0,5.8-2.1,6.7-5H89
	v-4H20.7C20.5,73.5,20.3,73,20.1,72.5z M84,29c1.7,0,3,1.3,3,3s-1.3,3-3,3s-3-1.3-3-3S82.3,29,84,29z M60,55c1.7,0,3,1.3,3,3
	s-1.3,3-3,3s-3-1.3-3-3S58.3,55,60,55z M37,45c1.7,0,3,1.3,3,3c0,1.7-1.3,3-3,3s-3-1.3-3-3C34,46.3,35.3,45,37,45z M14,79
	c-1.7,0-3-1.3-3-3s1.3-3,3-3s3,1.3,3,3S15.7,79,14,79z"/>
</svg>
