<?xml version="1.0" encoding="utf-8"?>
<!-- Generator: Adobe Illustrator 23.0.6, SVG Export Plug-In . SVG Version: 6.00 Build 0)  -->
<svg version="1.1" baseProfile="tiny" id="Layer_1" xmlns="http://www.w3.org/2000/svg" xmlns:xlink="http://www.w3.org/1999/xlink"
	 x="0px" y="0px" viewBox="0 0 100 100" xml:space="preserve">
<path fill="#68ADDF" d="M21.8,62.2c-2.5,0-4.5,2-4.5,4.5s2,4.5,4.5,4.5s4.5-2,4.5-4.5C26.2,64.3,24.2,62.2,21.8,62.2z M21.8,68.8
	c-1.2,0-2.1-0.9-2.1-2.1c0-1.2,0.9-2.1,2.1-2.1c1.1,0,2.1,0.9,2.1,2.1C23.9,67.9,22.9,68.8,21.8,68.8z"/>
<path fill="#68ADDF" d="M76.5,62.2c-2.5,0-4.5,2-4.5,4.5s2,4.5,4.5,4.5s4.5-2,4.5-4.5C81,64.3,79,62.2,76.5,62.2z M76.5,68.8
	c-1.2,0-2.1-0.9-2.1-2.1c0-1.2,0.9-2.1,2.1-2.1c1.2,0,2.1,0.9,2.1,2.1C78.6,67.9,77.7,68.8,76.5,68.8z"/>
<rect x="26.8" y="51.3" fill="#68ADDF" width="6" height="2.4"/>
<path fill="#68ADDF" d="M91,24.1H37.4c-0.7,0-1.2,0.5-1.2,1.2v5H20.7c-3.9,0-10.2,12.8-12.8,18.3c-0.1,0.2-0.1,0.3-0.1,0.5v17.6
	c0,0.7,0.5,1.2,1.2,1.2h3.7c0.6,4.5,4.4,8,9.1,8s8.5-3.5,9.1-8h36.6c0.6,4.5,4.4,8,9.1,8c4.7,0,8.5-3.5,9.1-8H91
	c0.7,0,1.2-0.5,1.2-1.2V25.3C92.2,24.6,91.7,24.1,91,24.1z M38.6,26.5h51.2v31.1H38.6V26.5z M20.7,32.7h3.7v15.2H10.9
	C14.8,39.6,19.2,32.8,20.7,32.7z M10.2,54.2l3,0l0,2h-3V54.2z M21.8,73.5c-3.7,0-6.8-3-6.8-6.8c0-3.7,3-6.8,6.8-6.8s6.8,3,6.8,6.8
	C28.6,70.5,25.5,73.5,21.8,73.5z M30.9,65.5c-0.6-4.5-4.4-8-9.1-8s-8.5,3.5-9.1,8h-2.5v-6.9h3c1.3,0,2.4-1.1,2.4-2.4v-2
	c0-1.3-1.1-2.4-2.4-2.4h-3v-1.5h15.4c0.7,0,1.2-0.5,1.2-1.2V32.7h9.5l0,32.8L30.9,65.5L30.9,65.5z M38.6,59.9h31.8
	c-1.6,1.4-2.7,3.4-2.9,5.6H38.6V59.9z M76.5,73.5c-3.7,0-6.8-3-6.8-6.8c0-3.7,3-6.8,6.8-6.8c3.7,0,6.8,3,6.8,6.8
	C83.3,70.5,80.3,73.5,76.5,73.5z M85.6,65.5c-0.3-2.2-1.4-4.2-2.9-5.6h7.1v5.6H85.6z"/>
</svg>
