<?xml version="1.0" encoding="utf-8"?>
<!-- Generator: Adobe Illustrator 23.0.6, SVG Export Plug-In . SVG Version: 6.00 Build 0)  -->
<svg version="1.1" id="Layer_2" xmlns="http://www.w3.org/2000/svg" xmlns:xlink="http://www.w3.org/1999/xlink" x="0px" y="0px"
	 viewBox="0 0 100 100" style="enable-background:new 0 0 100 100;" xml:space="preserve">
<style type="text/css">
	.st0{fill:none;stroke:#000000;stroke-width:2;stroke-linecap:round;stroke-linejoin:round;stroke-miterlimit:10;}
</style>
<g>
	<line class="st0" x1="32.8" y1="64.1" x2="65.6" y2="64.1"/>
	<path class="st0" d="M79.3,64.1H85v-35H39.2v5.2c0,0-11.7,0-12.9,0c-4.5,0-11.3,12-11.3,15c0,2.3,0,14.8,0,14.8h4.1"/>
	<path class="st0" d="M25.5,34.3"/>
	<polyline class="st0" points="15,49.3 28.8,49.3 28.8,34.3 	"/>
	<path class="st0" d="M15,52.4h3.5c0.5,0,0.9,0.4,0.9,0.9v2.1c0,0.5-0.4,0.9-0.9,0.9H15"/>
	<line class="st0" x1="30.9" y1="52.4" x2="34.3" y2="52.4"/>
	<line class="st0" x1="39.2" y1="34.3" x2="39.2" y2="64.1"/>
	<line class="st0" x1="85" y1="57.2" x2="39.2" y2="57.2"/>
</g>
<g>
	<circle class="st0" cx="25.9" cy="64.1" r="6.9"/>
	<circle class="st0" cx="25.9" cy="64.1" r="2.9"/>
	<circle class="st0" cx="72.4" cy="64.1" r="6.9"/>
	<circle class="st0" cx="72.4" cy="64.1" r="2.9"/>
</g>
</svg>
