<?xml version="1.0" encoding="utf-8"?>
<!-- Generator: Adobe Illustrator 23.0.6, SVG Export Plug-In . SVG Version: 6.00 Build 0)  -->
<svg version="1.1" id="Layer_1" xmlns="http://www.w3.org/2000/svg" xmlns:xlink="http://www.w3.org/1999/xlink" x="0px" y="0px"
	 viewBox="0 0 750 600" style="enable-background:new 0 0 750 600;" xml:space="preserve">
<g id="Background" style="opacity:0.25;">
	<path style="fill:#DCDCDC;" d="M80.5,100c0.3,0.3,0.7,0.5,1.2,0.5h3.3l2.4,2.4l-7.1,7.1c-0.3,0.3-0.5,0.7-0.5,1.2
		c0,0.4,0.2,0.9,0.5,1.2l11.8,11.6L89,127c-0.6,0.6-0.6,1.7,0,2.3l5.8,5.8c0.6,0.6,1.7,0.6,2.3,0c0,0,2.6-3,3.3-2.4l9.1,9.2
		l-8.2,8.2c-0.3,0.3-0.5,0.7-0.5,1.2c0,0.4,0.2,0.9,0.5,1.2l12.9,12.9c0.6,0.6,1.7,0.6,2.3,0l9.3-9.3h5.8v2.8l-8,8
		c-0.3,0.3-0.5,0.7-0.5,1.2c0,0.4,0.2,0.9,0.5,1.2l6.5,6.5c0.3,0.3,0.7,0.5,1.2,0.5h4.6l-0.1,17.1H132c-0.9,0-1.6,0.7-1.6,1.6v2.8
		H120c-0.4,0-0.8,0.2-1.2,0.5l-10.6,10.6c-0.5,0.5-0.6,1.2-0.4,1.8c0.2,0.6,0.8,1,1.5,1h3.2c0.4,0,0.8-0.2,1.2-0.5l3-3h2.7v4.7
		l-2.8,2.8c-0.3,0.3-0.5,0.7-0.5,1.2v7h-3.3c-0.9,0-1.6,0.7-1.6,1.6v2.8h-10.6c-0.9,0-1.6,0.7-1.6,1.6v6.1c0,0.9,0.7,1.6,1.6,1.6
		h11.6v1.8c0,0.9,0.7,1.6,1.6,1.6h4.3v3.9c0,0.9,0.7,1.6,1.6,1.6h9.5c0.4,0,0.9-0.2,1.2-0.5l3.1-3.1h5.2c0.4,0,0.9-0.2,1.2-0.5
		l6.8-6.8l1,1l-11.9,11.9h-15c-0.4,0-0.9,0.2-1.2,0.5l-2.7,2.7h-5c-0.9,0-1.6,0.7-1.6,1.6v6.2L96.7,273h-7.2c-0.9,0-1.6,0.7-1.6,1.6
		v4.2c0,0.9,0.7,1.6,1.6,1.6h6v2.3c0,0.9,0.7,1.6,1.6,1.6h4.2c0.9,0,1.6-0.7,1.6-1.6v-4.3h5c0.9,0,1.6-0.7,1.6-1.6v-3.3h4.8l4.7,4.7
		c0.3,0.3,0.7,0.5,1.2,0.5h9.3c0.9,0,1.6-0.7,1.6-1.6v-13.9h6.1l3.1,3.1c0.3,0.3,0.7,0.5,1.2,0.5h18.8c0.4,0,0.9-0.2,1.2-0.5
		l4.6-4.6h15.6l3.2,3.2c0.3,0.3,0.7,0.5,1.2,0.5h7.6c0.9,0,1.6-0.7,1.6-1.6v-4h9.2c0.9,0,1.6-0.7,1.6-1.6v-4h7.4
		c0.9,0,1.6-0.7,1.6-1.6v-4.4c0-0.9-0.7-1.6-1.6-1.6h-18v-0.9h9.4c0.9,0,1.6-0.7,1.6-1.6v-4.1c0-0.9-0.7-1.6-1.6-1.6h-1.7l13.9-14.3
		c0.3-0.3,0.5-0.7,0.5-1.1v-12c0-0.4-0.2-0.8-0.5-1.2l-3.7-3.7c-0.3-0.3-0.7-0.5-1.2-0.5h-14.2c-0.4,0-0.8,0.2-1.2,0.5l-4.9,4.9
		l-2.1-2.1l4.4-4.4c0.3-0.3,0.5-0.7,0.5-1.2v-6.1c0-0.9-0.7-1.6-1.6-1.6h-5.5l-2.6-2.6h5.6c0.9,0,1.6-0.7,1.6-1.6v-3.9
		c0-0.4-0.2-0.8-0.5-1.2l-51-58.8c-0.3-0.4-0.8-0.6-1.3-0.6h-4.9l1.1-1.1h8.6c0.9,0,1.6-0.7,1.6-1.6V119c0-0.9-0.7-1.6-1.6-1.6h-9.4
		l14.9-12.8c0.4-0.3,0.6-0.8,0.6-1.2v-6.7h6.2c0.9,0,1.6-0.7,1.6-1.6V83.1c0-0.9-0.7-1.6-1.6-1.6h-25c-0.4,0-0.8,0.2-1.2,0.5
		l-4.9,4.9h-6v-1.1l19.2-19.2c0.3-0.3,0.5-0.7,0.5-1.2v-1.3c0-0.4-0.2-0.9-0.5-1.2c-0.3-0.3-0.7-0.5-1.2-0.5L100.8,63
		c-0.9,0-1.6,0.7-1.6,1.6v12.8h-2.2L91.5,72c-0.6-0.6-1.4-0.8-2-0.2l-17.8,17c-0.6,0.6-0.6,1.7,0,2.3L80.5,100z"/>
	<path style="fill:#DCDCDC;" d="M21.5,195.3c-0.9,0-1.6-0.7-1.6-1.6v-6.9c0-0.9,0.7-1.6,1.6-1.6h7.9V183h-5.7
		c-0.9,0-1.6-0.7-1.6-1.6v-3.6c0-0.9,0.7-1.6,1.6-1.6h28.3v-4.3h-7.2c-0.9,0-1.6-0.7-1.6-1.6v-4.9c0-0.9,0.7-1.6,1.6-1.6h6.7v-12.2
		c0-0.9,0.7-1.6,1.6-1.6h3.2c0.4,0,0.8,0.2,1.1,0.5l3,3h4.1l4.7-4c0.3-0.3,0.7-0.4,1.1-0.4h6.2l3-3c0.6-0.6,1.7-0.6,2.3,0l10.4,10.5
		c0.3,0.3,0.5,0.7,0.5,1.2v3.9h2.2c0.9,0,1.6,0.7,1.6,1.6v7.9c0,0.4-0.2,0.9-0.5,1.2l-7.5,7.5c-0.3,0.3-0.7,0.5-1.2,0.5h-5.6v10.8
		l7,7c0.3,0.3,0.5,0.7,0.5,1.2v10.7c0,0.4-0.2,0.8-0.5,1.1l-3.8,3.8v18.2c0,0.9-0.7,1.6-1.6,1.6H66.4l-5.7,5.7
		c-0.3,0.3-0.7,0.5-1.2,0.5H48.7v4.5c0,0.9-0.7,1.6-1.6,1.6h-7.4v2.8c0,0.9-0.7,1.6-1.6,1.6h-9.2c-0.4,0-0.8-0.2-1.2-0.5l-6.1-6.1
		c-0.3-0.3-0.5-0.7-0.5-1.2v-21.2c0-0.9,0.7-1.6,1.6-1.6h7.6l8.9-18.9l-11.9-1c-0.9,0-1.6-0.7-1.6-1.6v-3.8H21.5"/>
	<path style="fill:#DCDCDC;" d="M336.9,441c0.2-0.5,0.7-0.6,1.2-0.2l8.2,8.2c0.4,0.4,0.8,1.2,0.8,1.8v17.5c0,0.6-0.5,1.1-1.1,1.1
		h-15.2c-0.6,0-1.1-0.5-1.1-1.1V460c0-0.6,0.2-1.5,0.4-2L336.9,441z"/>
	<path style="fill:#DCDCDC;" d="M332.8,476.4c-0.5,0.3-1.2,0.9-1.6,1.3l-8,8c-0.4,0.4-0.8,1.2-0.8,1.8V512c0,0.6,0,1.5,0,2.1V525
		c0,0.6,0.3,0.7,0.8,0.3l8.6-8.6c0.4-0.4,1.1-1.1,1.5-1.5l13.4-13.4c0.4-0.4,0.8-1.2,0.8-1.8v-15.2c0-0.6-0.3-1.4-0.8-1.8l-8.7-8.7
		c-0.4-0.4-1.2-0.5-1.6-0.2L332.8,476.4z"/>
	<path style="fill:#DCDCDC;" d="M390.4,544.1c0.5-0.2,1.3-0.8,1.7-1.2l4.8-4.8c0.4-0.4,1.1-0.4,1.5,0l9.5,9.5
		c0.4,0.4,1.2,0.8,1.8,0.8H425c0.6,0,1.4,0.3,1.8,0.8l0.6,0.6c0.4,0.4,0.8,1.2,0.8,1.8v7.7c0,0.6,0,1.5,0,2.1v9.1
		c0,0.6-0.5,1.1-1.1,1.1H410c-0.6,0-1.4-0.3-1.8-0.8l-15.4-15.4c-0.4-0.4-1.1-1.1-1.5-1.5l-6.4-6.4c-0.4-0.4-0.3-0.9,0.2-1.2
		L390.4,544.1z"/>
	<path style="fill:#DCDCDC;" d="M623.1,360.6l-0.1-15.9l-22.5-22.7l-5.9,5.9h-17.9h-24.3l-5.6,5.6l-0.2,0.2L536,322.9v-9.2l7-7
		v-12.4l21.4-21.4v-9.4l-9.9-9.9v-22v-7.9l12.4-12.4l-11.7-11.7V183l36-0.2l0.5-26.1l12.6-13.5l0.2-6.6l5.3,0.6
		c5.4-6,21.3-22.6,21.9-23.2c-0.2-0.1-1.1-0.9-4.7-4.5c-2-7.4,1.4-16.9-4.7-23c-1.7-1.7-3.3-3.8-5-4.1l-0.7-0.8l13.9-13.9
		l-12.2-12.2V43.9l9.3-9.3V28l-6.5-6.5h-17.6H586h-11.7L563,32.8h-9.9v14.9l7.7,7.7l7.7,7.7v11c0,0,0,0,0,0c0,6.8-0.2,21.2-0.2,21.2
		s-5,2.4-9.1-0.1c-6.2-3.8-13-13.4-17.9-17.5c-7.4,8.1-16.9,14.2-23,23.7c0.2,14.7,0.2,30.7,0.9,46c0.3-0.2,28.3,0.8,28.3,0.8v25.7
		l-1.5-1.5H508v-4.3h-16.2H481l-6.8-6.8h-14.1l-5.4,5.4l-13.9,13.9h-18.5h-14.2l-5.4-5.4l-4.3-4.3h-10.4l-10.8,10.8H363V169h-10.1
		l-5.9-5.9l-5.6-5.6v-9.3l5.1-5.1v-8.3l6.1-6.1l9-9l-7.2-7.2v-10.8v-8.1v-8.1h-5.9h-8.1v8.4h-12.3L314.1,108v24.6l11.5,11.5v27.5
		V185h-17.6l-15.7,15.7h-17.7l-11.3,11.3v18.8l-18.8,18.8h-13.9L219,261.2V274L207.1,286l-12.2,12.2h-13.1l-7.7-7.7h-8.6v6.8V308
		l-7.2,7.2h-18h-11.7v12.6l14,14l13.1,13.1l11.7,11.7v33.3v37.2l9.8,9.8h24h23l10.3,10.3h4.1v-0.1v-13.5l14.4-14.4l16.7,10.4h16.7
		l11.3-11.3H317v-13.6h17.7l13.7,13.7l9.7,9.7l11.3,11.3l13.3,13.3l13.5,13.5l9.5,9.5l13.6,13.6h13.3l8.8,8.8v16.7l-14.6,14.6
		l7.4,7.4l8.8-8.8l9.5-9.5l7.9-7.9l-9-9v-10.8h9.9l5.9,5.9h5.4V500V489h-18.4l-14.3-14.3V465l-9.2-9.2h-20.7V440v-8.3h-12.4
		l-14.6-14.6v-20.3V384h14.6l5.6-5.6l8.3,8.3l13.3,13.3l9.9,9.9l20.3,20.3l22.3,22.3l4.3-4.3l-9.2-9.2l-16-16l-18.5-18.5v-11.7h15.8
		h15.3l8.1,8.1h15.2V422v10.4l8.9,8.9v10.5l9.2,9.2h8l6-6H538l9.7,9.7v11.8h16.7h14h15l6.1-6.1l6.9-6.9h10.4h11l-8.3-8.3l6.3-6.3
		v-11.3l7.2-7.2l-0.2-7.3h0.2v-8.9l10.8-10.8l7.9-7.9l3.5-3.5l-23.3,0.1l-0.3-23.1L623.1,360.6z"/>
	<polygon style="fill:#DCDCDC;" points="606.7,85 606.7,85 606.7,85 	"/>
</g>
<g id="Borders">
	
		<line style="fill:none;stroke:#DCDCDC;stroke-linecap:round;stroke-linejoin:round;stroke-miterlimit:10;" x1="684.1" y1="227.4" x2="722" y2="227.4"/>
	<path style="fill:none;stroke:#DCDCDC;stroke-linecap:round;stroke-linejoin:round;stroke-miterlimit:10;" d="M631.6,114l12.2,12.2
		c0.4,0.4,1.2,0.8,1.8,0.8H670c0.6,0,1.1,0.5,1.1,1.1v32.1c0,0.6,0.3,1.4,0.8,1.8l23.5,23.5c0.4,0.4,0.8,1.2,0.8,1.8v11.2
		c0,0.6-0.5,1.1-1.1,1.1H683c-0.6,0-1,0.5-1,1.1l2.1,26.9"/>
	<path style="fill:none;stroke:#DCDCDC;stroke-linecap:round;stroke-linejoin:round;stroke-miterlimit:10;" d="M616.6,81.4l8.7,8.7
		c0.4,0.4,0.8,1.2,0.8,1.8v15.4c0,0.6,0.3,1.4,0.8,1.8l4.8,4.8"/>
	<path style="fill:none;stroke:#DCDCDC;stroke-linecap:round;stroke-linejoin:round;stroke-miterlimit:10;" d="M568.4,74.2V64
		c0-0.6-0.3-1.4-0.8-1.8l-13.8-13.8c-0.4-0.4-0.8-1.2-0.8-1.8V33.8c0-0.6,0.5-1.1,1.1-1.1h7.8c0.6,0,1.4-0.3,1.8-0.8l9.8-9.8
		c0.4-0.4,1.2-0.8,1.8-0.8H620c0.6,0,1.4,0.3,1.8,0.8l5,5c0.4,0.4,0.8,1.2,0.8,1.8v4.4c0,0.6-0.3,1.4-0.8,1.8l-7.8,7.8
		c-0.4,0.4-0.8,1.2-0.8,1.8v9.2c0,0.6,0.3,1.4,0.8,1.8l10.7,10.7c0.4,0.4,0.4,1.1,0,1.5l-13.2,13.2"/>
	<path style="fill:none;stroke:#DCDCDC;stroke-linecap:round;stroke-linejoin:round;stroke-miterlimit:10;" d="M518.6,125.2V101
		c0-0.6,0.3-1.4,0.8-1.8l20.9-20.9c0.4-0.4,1.1-0.4,1.5,0l16.2,16.2c0.4,0.4,1.2,0.8,1.8,0.8h7.6c0.6,0,1.1-0.5,1.1-1.1V74.2"/>
	
		<line style="fill:none;stroke:#DCDCDC;stroke-linecap:round;stroke-linejoin:round;stroke-miterlimit:10;" x1="518.6" y1="147.5" x2="518.6" y2="125.2"/>
	<path style="fill:none;stroke:#DCDCDC;stroke-linecap:round;stroke-linejoin:round;stroke-miterlimit:10;" d="M508,167.9l9.8-9.8
		c0.4-0.4,0.8-1.2,0.8-1.8v-8.7"/>
	<path style="fill:none;stroke:#DCDCDC;stroke-linecap:round;stroke-linejoin:round;stroke-miterlimit:10;" d="M412.7,180.3h27.1
		c0.6,0,1.4-0.3,1.8-0.8l17.8-17.8c0.4-0.4,1.2-0.8,1.8-0.8h12c0.6,0,1.4,0.3,1.8,0.8l5.3,5.3c0.4,0.4,1.2,0.8,1.8,0.8H508"/>
	<path style="fill:none;stroke:#DCDCDC;stroke-linecap:round;stroke-linejoin:round;stroke-miterlimit:10;" d="M341.4,157.3
		l10.7,10.9c0.4,0.4,1.2,0.8,1.8,0.8h8c0.6,0,1.1,0.5,1.1,1.1v10.3c0,0.6,0.5,1.1,1.1,1.1h12.3c0.6,0,1.4-0.3,1.8-0.8l9.3-9.3
		c0.4-0.4,1.2-0.8,1.8-0.8h8.2c0.6,0,1.4,0.3,1.8,0.8l2.8,2.8c0.4,0.4,1.1,1.1,1.5,1.5l3.9,3.9c0.4,0.4,1.2,0.8,1.8,0.8h3.4"/>
	<path style="fill:none;stroke:#DCDCDC;stroke-linecap:round;stroke-linejoin:round;stroke-miterlimit:10;" d="M325.6,157.3v-12.2
		c0-0.6-0.3-1.4-0.8-1.8l-10-10c-0.4-0.4-0.8-1.2-0.8-1.8v-22.4c0-0.6,0.3-1.4,0.8-1.8l12.6-12.6c0.4-0.4,1.2-0.8,1.8-0.8h10.2
		c0.6,0,1.1-0.5,1.1-1.1v-6.3c0-0.6,0.5-1.1,1.1-1.1h11.8c0.6,0,1.1,0.5,1.1,1.1v24.9c0,0.6,0.3,1.4,0.8,1.8l5.7,5.7
		c0.4,0.4,0.4,1.1,0,1.5l-13.6,13.6c-0.4,0.4-0.8,1.2-0.8,1.8v6.2c0,0.6-0.3,1.4-0.8,1.8l-3.6,3.6c-0.4,0.4-0.8,1.2-0.8,1.8v8.1"/>
	<path style="fill:none;stroke:#DCDCDC;stroke-linecap:round;stroke-linejoin:round;stroke-miterlimit:10;" d="M298,195l9.2-9.2
		c0.4-0.4,1.2-0.8,1.8-0.8h15.5c0.6,0,1.1-0.5,1.1-1.1v-26.6"/>
	<path style="fill:none;stroke:#DCDCDC;stroke-linecap:round;stroke-linejoin:round;stroke-miterlimit:10;" d="M245.3,248.7
		l17.2-17.2c0.4-0.4,0.8-1.2,0.8-1.8v-16.6c0-0.6,0.3-1.4,0.8-1.8l9.8-9.8c0.4-0.4,1.2-0.8,1.8-0.8h15.5c0.6,0,1.4-0.3,1.8-0.8l5-5"
		/>
	<path style="fill:none;stroke:#DCDCDC;stroke-linecap:round;stroke-linejoin:round;stroke-miterlimit:10;" d="M230.6,249.6h12.8
		c0.6,0,1.3-0.2,1.5-0.4c0.2-0.2,0.4-0.4,0.4-0.4"/>
	<path style="fill:none;stroke:#DCDCDC;stroke-linecap:round;stroke-linejoin:round;stroke-miterlimit:10;" d="M167.4,437.1V401
		c0-0.6,0-1.5,0-2.1v-31.2c0-0.6-0.3-1.4-0.8-1.8l-10.2-10.2c-0.4-0.4-1.1-1.1-1.5-1.5l-11.6-11.6c-0.4-0.4-1.1-1.1-1.5-1.5
		l-12.5-12.5c-0.4-0.4-0.8-1.2-0.8-1.8v-10.5c0-0.6,0.5-1.1,1.1-1.1h9.6c0.6,0,1.5,0,2.1,0h15.9c0.6,0,1.4-0.3,1.8-0.8l5.7-5.7
		c0.4-0.4,0.8-1.2,0.8-1.8v-8.7c0-0.6,0-1.5,0-2.1v-4.6c0-0.6,0.5-1.1,1.1-1.1h6.4c0.6,0,1.4,0.3,1.8,0.8l6.2,6.2
		c0.4,0.4,1.2,0.8,1.8,0.8h10.9c0.6,0,1.4-0.3,1.8-0.8l10.7-10.7c0.4-0.4,1.1-1.1,1.5-1.5l10.4-10.4c0.4-0.4,0.8-1.2,0.8-1.8v-10.7
		c0-0.6,0.3-1.4,0.8-1.8l10.8-10.8"/>
	<path style="fill:none;stroke:#DCDCDC;stroke-linecap:round;stroke-linejoin:round;stroke-miterlimit:10;" d="M49.4,464.8v-19.7
		c0-0.6,0.3-1.4,0.8-1.8l5.3-5.3c0.4-0.4,1.1-1.1,1.5-1.5l10.7-10.7c0.4-0.4,1.2-0.8,1.8-0.8h40.2c0.6,0,1.4,0.3,1.8,0.8l10.4,10.4
		c0.4,0.4,1.2,0.8,1.8,0.8h43.8"/>
	<path style="fill:none;stroke:#DCDCDC;stroke-linecap:round;stroke-linejoin:round;stroke-miterlimit:10;" d="M76.8,565.3H61.3
		c-0.6,0-1.4-0.3-1.9-0.7c0,0-7.3-5.7-7.3-7.5c0-1.8,0-18.3,0-18.3c0-0.6-0.3-1.4-0.8-1.8l-2.8-2.8c-0.4-0.4-1.1-1.1-1.5-1.5
		l-5.5-5.5c-0.4-0.4-0.8-1.2-0.8-1.8v-13.6c0-0.6,0.3-1.4,0.8-1.8l7.1-7.1c0.4-0.4,0.8-1.2,0.8-1.8v-18.6c0-0.6,0-1.5,0-2.1v-15.6"
		/>
	<path style="fill:none;stroke:#DCDCDC;stroke-linecap:round;stroke-linejoin:round;stroke-miterlimit:10;" d="M238.6,457.2v12.4
		c0,0.6-0.5,1.1-1.1,1.1h-23.1c-0.6,0-1.4,0.3-1.8,0.8l-18.1,18.1c-0.4,0.4-1.1,1.1-1.5,1.5l-10.7,10.7c-0.4,0.4-0.8,1.2-0.8,1.8
		V516c0,0.6,0.3,1.4,0.8,1.8l11.9,11.9c0.4,0.4,0.4,1.1,0,1.5l-11.4,11.4c-0.4,0.4-1.1,1.1-1.5,1.5l-5.5,5.5
		c-0.4,0.4-1.1,1.1-1.5,1.5l-7.7,7.7c-0.4,0.4-1.1,1.1-1.5,1.5l-5.5,5.5c-0.4,0.4-1.2,0.8-1.8,0.8h-8.7c-0.6,0-1.5,0-2.1,0h-13.6
		c-0.6,0-1.5,0-2.1,0h-11.8c-0.6,0-1.4,0.3-1.8,0.8l-10.9,10.9c-0.4,0.4-1.2,0.8-1.8,0.8H92.4c-0.6,0-1.1-0.5-1.1-1.1v-11.6
		c0-0.6-0.5-1.1-1.1-1.1H76.8"/>
	<path style="fill:none;stroke:#DCDCDC;stroke-linecap:round;stroke-linejoin:round;stroke-miterlimit:10;" d="M317,414.7v12.6
		c0,0.6-0.5,1.1-1.1,1.1h-17.2c-0.6,0-1.4,0.3-1.8,0.8l-9.8,9.8c-0.4,0.4-1.2,0.8-1.8,0.8h-14.5c-0.6,0-1.5-0.3-2-0.6l-14.9-9.2
		c-0.5-0.3-1.2-0.2-1.7,0.2l-12.9,12.9c-0.4,0.4-0.8,1.2-0.8,1.8v12.5"/>
	<path style="fill:none;stroke:#DCDCDC;stroke-linecap:round;stroke-linejoin:round;stroke-miterlimit:10;" d="M403,378.3l-4.9,4.9
		c-0.4,0.4-1.2,0.8-1.8,0.8h-12.5c-0.6,0-1.1,0.5-1.1,1.1v31c0,0.6,0.3,1.4,0.8,1.8l13.1,13.1c0.4,0.4,1.2,0.8,1.8,0.8h10.3
		c0.6,0,1.1,0.5,1.1,1.1v22c0,0.6,0.5,1.1,1.1,1.1h18.6c0.6,0,1.4,0.3,1.8,0.8l7.7,7.7c0.4,0.4,0.8,1.2,0.8,1.8v7.6
		c0,0.6,0.3,1.4,0.8,1.8l12.8,12.8c0.4,0.4,1.2,0.8,1.8,0.8h16.2c0.6,0,1.1,0.5,1.1,1.1v15.6c0,0.6-0.5,1.1-1.1,1.1h-3.3
		c-0.6,0-1.4-0.3-1.8-0.8l-4.4-4.4c-0.4-0.4-1.2-0.8-1.8-0.8h-7.8c-0.6,0-1.1,0.5-1.1,1.1v8.7c0,0.6,0.3,1.4,0.8,1.8l7.5,7.5
		c0.4,0.4,0.4,1.1,0,1.5l-24.6,24.6c-0.4,0.4-1.1,0.4-1.5,0l-5.9-5.9c-0.4-0.4-0.4-1.1,0-1.5l13.1-13.1c0.4-0.4,0.8-1.2,0.8-1.8
		v-14.5c0-0.6-0.3-1.4-0.8-1.8l-7.3-7.3c-0.4-0.4-1.2-0.8-1.8-0.8h-11.2c-0.6,0-1.4-0.3-1.8-0.8l-83.1-83.1
		c-0.4-0.4-1.2-0.8-1.8-0.8H317"/>
	
		<line style="fill:none;stroke:#DCDCDC;stroke-linecap:round;stroke-linejoin:round;stroke-miterlimit:10;" x1="411.4" y1="386.7" x2="403" y2="378.3"/>
	
		<line style="fill:none;stroke:#DCDCDC;stroke-linecap:round;stroke-linejoin:round;stroke-miterlimit:10;" x1="477.2" y1="452.4" x2="411.4" y2="386.7"/>
	
		<line style="fill:none;stroke:#DCDCDC;stroke-linecap:round;stroke-linejoin:round;stroke-miterlimit:10;" x1="481.4" y1="448.2" x2="477.2" y2="452.4"/>
	<path style="fill:none;stroke:#DCDCDC;stroke-linecap:round;stroke-linejoin:round;stroke-miterlimit:10;" d="M492.2,400.8H478
		c-0.6,0-1.4-0.3-1.8-0.8l-6.6-6.6c-0.4-0.4-1.2-0.8-1.8-0.8h-29c-0.6,0-1.1,0.5-1.1,1.1v9.6c0,0.6,0.3,1.4,0.8,1.8l42.9,42.9"/>
	
		<line style="fill:none;stroke:#DCDCDC;stroke-linecap:round;stroke-linejoin:round;stroke-miterlimit:10;" x1="492.2" y1="426.7" x2="492.2" y2="400.8"/>
	<path style="fill:none;stroke:#DCDCDC;stroke-linecap:round;stroke-linejoin:round;stroke-miterlimit:10;" d="M504.2,455.1
		l-2.4-2.4c-0.4-0.4-0.8-1.2-0.8-1.8v-8.4c0-0.6-0.3-1.4-0.8-1.8l-7.4-7.4c-0.4-0.4-0.8-1.2-0.8-1.8v-4.7"/>
	
		<line style="fill:none;stroke:#DCDCDC;stroke-linecap:round;stroke-linejoin:round;stroke-miterlimit:10;" x1="510.3" y1="461.1" x2="504.2" y2="455.1"/>
	<path style="fill:none;stroke:#DCDCDC;stroke-linecap:round;stroke-linejoin:round;stroke-miterlimit:10;" d="M540.5,457.6
		l-1.7-1.7c-0.4-0.4-1.2-0.8-1.8-0.8h-11.6c-0.6,0-1.4,0.3-1.8,0.8l-4.5,4.5c-0.4,0.4-1.2,0.8-1.8,0.8h-6.9"/>
	<path style="fill:none;stroke:#DCDCDC;stroke-linecap:round;stroke-linejoin:round;stroke-miterlimit:10;" d="M547.7,476.6v-10.8
		c0-0.6-0.3-1.4-0.8-1.8l-6.5-6.5"/>
	<path style="fill:none;stroke:#DCDCDC;stroke-linecap:round;stroke-linejoin:round;stroke-miterlimit:10;" d="M601.4,468.5
		l-7.4,7.4c-0.4,0.4-1.2,0.8-1.8,0.8h-44.6"/>
	<path style="fill:none;stroke:#DCDCDC;stroke-linecap:round;stroke-linejoin:round;stroke-miterlimit:10;" d="M632.8,423.3v6.3
		c0,0.6-0.3,1.4-0.8,1.8l-5.7,5.7c-0.4,0.4-0.8,1.2-0.8,1.8v9.1c0,0.6-0.3,1.4-0.8,1.8l-4.8,4.8c-0.4,0.4-0.4,1.1,0,1.5l6.8,6.8
		c0.4,0.4,0.3,0.8-0.3,0.8h-8.9c-0.6,0-1.5,0-2.1,0h-8.2c-0.6,0-1.4,0.3-1.8,0.8l-4.1,4.1"/>
	<path style="fill:none;stroke:#DCDCDC;stroke-linecap:round;stroke-linejoin:round;stroke-miterlimit:10;" d="M655.2,392
		l-21.6,21.6c-0.4,0.4-0.8,1.2-0.8,1.8v7.8"/>
	<path style="fill:none;stroke:#DCDCDC;stroke-linecap:round;stroke-linejoin:round;stroke-miterlimit:10;" d="M738.7,369.8h-52.1
		c-0.6,0-1.4-0.3-1.8-0.8l-7.5-7.5c-0.4-0.4-1.1-0.4-1.5,0l-18.3,18.3c-0.4,0.4-0.8,1.2-0.8,1.8v7.8c0,0.6-0.3,1.4-0.8,1.8l-0.8,0.8
		"/>
	<path style="fill:none;stroke:#DCDCDC;stroke-linecap:round;stroke-linejoin:round;stroke-miterlimit:10;" d="M390.4,544.1
		c0.5-0.2,1.3-0.8,1.7-1.2l4.8-4.8c0.4-0.4,1.1-0.4,1.5,0l9.5,9.5c0.4,0.4,1.2,0.8,1.8,0.8H425c0.6,0,1.4,0.3,1.8,0.8l0.6,0.6
		c0.4,0.4,0.8,1.2,0.8,1.8v18.9c0,0.6-0.5,1.1-1.1,1.1H410c-0.6,0-1.4-0.3-1.8-0.8l-23.3-23.3c-0.4-0.4-0.3-0.9,0.2-1.2L390.4,544.1
		z"/>
	<path style="fill:none;stroke:#DCDCDC;stroke-linecap:round;stroke-linejoin:round;stroke-miterlimit:10;" d="M336.9,441
		c0.2-0.5,0.7-0.6,1.2-0.2l8.2,8.2c0.4,0.4,0.8,1.2,0.8,1.8v17.5c0,0.6-0.5,1.1-1.1,1.1h-15.2c-0.6,0-1.1-0.5-1.1-1.1V460
		c0-0.6,0.2-1.5,0.4-2L336.9,441z"/>
	<path style="fill:none;stroke:#DCDCDC;stroke-linecap:round;stroke-linejoin:round;stroke-miterlimit:10;" d="M332.8,476.4
		c-0.5,0.3-1.2,0.9-1.6,1.3l-8,8c-0.4,0.4-0.8,1.2-0.8,1.8V525c0,0.6,0.3,0.7,0.8,0.3l23.5-23.5c0.4-0.4,0.8-1.2,0.8-1.8v-15.2
		c0-0.6-0.3-1.4-0.8-1.8l-8.7-8.7c-0.4-0.4-1.2-0.5-1.6-0.2L332.8,476.4z"/>
	<path style="fill:none;stroke:#DCDCDC;stroke-linecap:round;stroke-linejoin:round;stroke-miterlimit:10;" d="M167.4,437.1l9,9
		c0.4,0.4,1.2,0.8,1.8,0.8h44.8c0.6,0,1.4,0.3,1.8,0.8l8.8,8.8c0.4,0.4,1.2,0.8,1.8,0.8h3"/>
	<path style="fill:none;stroke:#DCDCDC;stroke-linecap:round;stroke-linejoin:round;stroke-miterlimit:10;" d="M301.9,377.1v25.9
		c0,0.6,0.4,1.3,0.9,1.7l14.2,10.1"/>
	<path style="fill:none;stroke:#DCDCDC;stroke-linecap:round;stroke-linejoin:round;stroke-miterlimit:10;" d="M306.4,339.5v3.3
		c0,0.6-0.3,1.4-0.8,1.8l-14.9,14.9c-0.4,0.4-0.4,1.1,0,1.5l10.4,10.4c0.4,0.4,0.8,1.2,0.8,1.8v3.8"/>
	<path style="fill:none;stroke:#DCDCDC;stroke-linecap:round;stroke-linejoin:round;stroke-miterlimit:10;" d="M288.6,292.1
		l17.1,16.1c0.4,0.4,0.8,1.2,0.8,1.8v13.2c0,0.6,0,1.5,0,2.1v14.1"/>
	<path style="fill:none;stroke:#DCDCDC;stroke-linecap:round;stroke-linejoin:round;stroke-miterlimit:10;" d="M230.6,249.6v12.1
		c0,0.6,0.3,1.4,0.8,1.8l12.5,12.5c0.4,0.4,1.1,1.1,1.5,1.5l14,13.9c0.4,0.4,1.2,0.7,1.8,0.7h17.2"/>
	<path style="fill:none;stroke:#DCDCDC;stroke-linecap:round;stroke-linejoin:round;stroke-miterlimit:10;" d="M482.5,292
		l-24.8-24.8c-0.4-0.4-1.2-0.8-1.8-0.8h-18.5c-0.6,0-1.5-0.2-2-0.5l-12.9-6.3"/>
	<path style="fill:none;stroke:#DCDCDC;stroke-linecap:round;stroke-linejoin:round;stroke-miterlimit:10;" d="M447.9,317.2h8.4
		c0.6,0,1.4-0.3,1.8-0.8l24.4-24.4"/>
	<path style="fill:none;stroke:#DCDCDC;stroke-linecap:round;stroke-linejoin:round;stroke-miterlimit:10;" d="M404.6,314.8h15.2
		c0.6,0,1.4-0.3,1.8-0.8l6.9-6.9c0.4-0.4,1.1-0.4,1.5,0l9.3,9.3c0.4,0.4,1.2,0.8,1.8,0.8h6.7"/>
	<path style="fill:none;stroke:#DCDCDC;stroke-linecap:round;stroke-linejoin:round;stroke-miterlimit:10;" d="M422.5,259.7l-6,6
		c-0.4,0.4-1.2,0.8-1.8,0.8h-24.6c-0.6,0-1.4,0.3-1.8,0.8l-9.1,9.1c-0.4,0.4-0.4,1.1,0,1.5l22.3,22.3c0.4,0.4,0.8,1.2,0.8,1.8v11.7
		c0,0.6,0.5,1.1,1.1,1.1h1.3"/>
	<path style="fill:none;stroke:#DCDCDC;stroke-linecap:round;stroke-linejoin:round;stroke-miterlimit:10;" d="M412.7,180.3v38.1
		c0,0.6,0.3,1.4,0.8,1.8l10.7,10.7c0.4,0.4,0.8,1.2,0.8,1.8v23.6c0,0.6-0.3,1.4-0.8,1.8l-1.6,1.6"/>
	<path style="fill:none;stroke:#DCDCDC;stroke-linecap:round;stroke-linejoin:round;stroke-miterlimit:10;" d="M354.8,359.2
		l-5.8,5.8c-0.4,0.4-1.2,0.8-1.8,0.8h-7c-0.6,0-1.5,0-2.1,0h-3.6c-0.6,0-1.4,0.3-1.8,0.8l-5.8,5.8c-0.4,0.4-1.2,0.8-1.8,0.8h-6.5
		c-0.6,0-1.4,0.3-1.8,0.8l-2.5,2.5c-0.4,0.4-1.2,0.8-1.8,0.8h-10.5"/>
	<path style="fill:none;stroke:#DCDCDC;stroke-linecap:round;stroke-linejoin:round;stroke-miterlimit:10;" d="M343.8,339.5v7.7
		c0,0.6,0.3,1.4,0.8,1.8l10.2,10.2"/>
	
		<line style="fill:none;stroke:#DCDCDC;stroke-linecap:round;stroke-linejoin:round;stroke-miterlimit:10;" x1="306.4" y1="339.5" x2="343.8" y2="339.5"/>
	
		<line style="fill:none;stroke:#DCDCDC;stroke-linecap:round;stroke-linejoin:round;stroke-miterlimit:10;" x1="288.6" y1="292.1" x2="278.4" y2="292.1"/>
	
		<line style="fill:none;stroke:#DCDCDC;stroke-linecap:round;stroke-linejoin:round;stroke-miterlimit:10;" x1="288.6" y1="279.3" x2="288.6" y2="292.1"/>
	<path style="fill:none;stroke:#DCDCDC;stroke-linecap:round;stroke-linejoin:round;stroke-miterlimit:10;" d="M278.4,292.1v-5.3
		c0-0.6,0.3-1.4,0.8-1.8l4.9-4.9c0.4-0.4,1.2-0.8,1.8-0.8h2.7"/>
	<path style="fill:none;stroke:#DCDCDC;stroke-linecap:round;stroke-linejoin:round;stroke-miterlimit:10;" d="M282.8,254.2l-5,5
		c-0.4,0.4-0.4,1.1,0,1.5l9.9,9.7c0.4,0.4,0.8,1.2,0.8,1.8v7.1"/>
	<path style="fill:none;stroke:#DCDCDC;stroke-linecap:round;stroke-linejoin:round;stroke-miterlimit:10;" d="M245.3,248.7l3.7,3.7
		c0.4,0.4,1.2,0.8,1.8,0.8h5.1c0.6,0,1.4-0.3,1.8-0.8l7.2-7.2c0.4-0.4,1.1-0.4,1.5,0l8.3,8.3c0.4,0.4,1.2,0.8,1.8,0.8h6.3"/>
	<path style="fill:none;stroke:#DCDCDC;stroke-linecap:round;stroke-linejoin:round;stroke-miterlimit:10;" d="M298,195l7.4,7.4
		c0.4,0.4,0.4,1.1,0,1.5l-6.2,6.2c-0.4,0.4-0.8,1.2-0.8,1.8v9.6c0,0.6,0.3,1.4,0.8,1.8l2.3,2.3c0.4,0.4,0.4,1.1,0,1.5l-10.1,10.1
		c-0.4,0.4-1.2,0.8-1.8,0.8h-6.1c-0.6,0-0.7,0.4-0.3,0.8l6.8,7.4c0.4,0.4,0.4,1.1-0.1,1.5l-7.1,6.6"/>
	<path style="fill:none;stroke:#DCDCDC;stroke-linecap:round;stroke-linejoin:round;stroke-miterlimit:10;" d="M343.8,339.5l6,6
		c0.4,0.4,1.1,0.4,1.5,0l7.3-7.3c0.4-0.4,1.2-0.8,1.8-0.8h16.5c0.6,0,1.5,0,2.1,0h12.1c0.6,0,1.1-0.5,1.1-1.1v-8
		c0-0.6,0.3-1.4,0.8-1.8l11.7-11.7"/>
	<path style="fill:none;stroke:#DCDCDC;stroke-linecap:round;stroke-linejoin:round;stroke-miterlimit:10;" d="M354.8,359.2h9.3
		c0.6,0,1.4-0.4,1.7-0.8l2.6-3.4c0.4-0.5,1.1-0.8,1.7-0.8h5.8c0.6,0,1.4,0.3,1.8,0.8l5.3,5.3c0.4,0.4,1.2,0.8,1.8,0.8h17.7
		c0.6,0,1.1,0.5,1.1,1.1v16.3"/>
	<path style="fill:none;stroke:#DCDCDC;stroke-linecap:round;stroke-linejoin:round;stroke-miterlimit:10;" d="M450.2,338.1v-1.3
		c0-0.6,0.3-1.4,0.8-1.8l6.6-6.6c0.4-0.4,0.4-1.1,0-1.5l-9.7-9.7"/>
	<path style="fill:none;stroke:#DCDCDC;stroke-linecap:round;stroke-linejoin:round;stroke-miterlimit:10;" d="M439.6,354.1l9.9-9.9
		c0.4-0.4,0.8-1.2,0.8-1.8v-4.3"/>
	<path style="fill:none;stroke:#DCDCDC;stroke-linecap:round;stroke-linejoin:round;stroke-miterlimit:10;" d="M403.6,361l6.4,6.4
		c0.4,0.4,1.2,0.8,1.8,0.8h12.7c0.6,0,1.4-0.3,1.8-0.8l13.2-13.2"/>
	<path style="fill:none;stroke:#DCDCDC;stroke-linecap:round;stroke-linejoin:round;stroke-miterlimit:10;" d="M445.5,363.8v-2.7
		c0-0.6-0.3-1.4-0.8-1.8l-5.2-5.2"/>
	<path style="fill:none;stroke:#DCDCDC;stroke-linecap:round;stroke-linejoin:round;stroke-miterlimit:10;" d="M411.4,386.7
		c3,0,7.4,0,7.4,0c0.6,0,1.5,0,2.1,0h9c0.6,0,1.1-0.5,1.1-1.1V373c0-0.6,0.5-1.1,1.1-1.1h12.4c0.6,0,1.1-0.5,1.1-1.1v-7"/>
	<path style="fill:none;stroke:#DCDCDC;stroke-linecap:round;stroke-linejoin:round;stroke-miterlimit:10;" d="M483,376.6v9.1
		c0,0.6,0.3,1.4,0.8,1.8l7.6,7.5c0.4,0.4,0.8,1.2,0.8,1.8v4.1"/>
	<path style="fill:none;stroke:#DCDCDC;stroke-linecap:round;stroke-linejoin:round;stroke-miterlimit:10;" d="M445.5,363.8h7
		c0.6,0,1.4,0.3,1.8,0.8l11.3,11.3c0.4,0.4,1.2,0.8,1.8,0.8H483"/>
	<path style="fill:none;stroke:#DCDCDC;stroke-linecap:round;stroke-linejoin:round;stroke-miterlimit:10;" d="M508,371.7h-23.9
		c-0.6,0-1.1,0.5-1.1,1.1v3.8"/>
	<path style="fill:none;stroke:#DCDCDC;stroke-linecap:round;stroke-linejoin:round;stroke-miterlimit:10;" d="M546.7,333.6
		l-9.2,9.2c-0.4,0.4-1.1,1.1-1.5,1.5l-8.3,8.3c-0.4,0.4-0.8,1.2-0.8,1.8v9.4c0,0.6-0.3,1.4-0.8,1.8l-5.4,5.4
		c-0.4,0.4-1.2,0.8-1.8,0.8H508"/>
	<path style="fill:none;stroke:#DCDCDC;stroke-linecap:round;stroke-linejoin:round;stroke-miterlimit:10;" d="M536,318.7v3.2
		c0,0.6,0.3,1.4,0.8,1.8l9.9,9.9"/>
	<path style="fill:none;stroke:#DCDCDC;stroke-linecap:round;stroke-linejoin:round;stroke-miterlimit:10;" d="M542.9,302v3.7
		c0,0.6-0.3,1.4-0.8,1.8l-5.5,5.5c-0.4,0.4-0.8,1.2-0.8,1.8v3.9"/>
	<path style="fill:none;stroke:#DCDCDC;stroke-linecap:round;stroke-linejoin:round;stroke-miterlimit:10;" d="M554.5,243.2v9.4
		c0,0.6,0.3,1.4,0.8,1.8l8.4,8.4c0.4,0.4,0.8,1.2,0.8,1.8v7.3c0,0.6-0.3,1.4-0.8,1.8l-19.9,19.9c-0.4,0.4-0.8,1.2-0.8,1.8v6.6"/>
	<path style="fill:none;stroke:#DCDCDC;stroke-linecap:round;stroke-linejoin:round;stroke-miterlimit:10;" d="M555.2,182.7v15.8
		c0,0.6,0.3,1.4,0.8,1.8l10.2,10.2c0.4,0.4,0.4,1.1,0,1.5L555.2,223c-0.4,0.4-0.8,1.2-0.8,1.8v18.4"/>
	<path style="fill:none;stroke:#DCDCDC;stroke-linecap:round;stroke-linejoin:round;stroke-miterlimit:10;" d="M547.2,173.6l7.2,7.2
		c0.4,0.4,0.8,1,0.8,1.3s0,0.6,0,0.6"/>
	<path style="fill:none;stroke:#DCDCDC;stroke-linecap:round;stroke-linejoin:round;stroke-miterlimit:10;" d="M508,167.9v3.3
		c0,0.6,0.5,1.1,1.1,1.1h35.7c0.6,0,1.4,0.3,1.7,0.7c0.4,0.4,0.7,0.7,0.7,0.7"/>
	<path style="fill:none;stroke:#DCDCDC;stroke-linecap:round;stroke-linejoin:round;stroke-miterlimit:10;" d="M631.4,385.1v6
		c0,0.6,0.5,1.1,1.1,1.1H655"/>
	<path style="fill:none;stroke:#DCDCDC;stroke-linecap:round;stroke-linejoin:round;stroke-miterlimit:10;" d="M600.4,322.1
		l10.9,10.9c0.4,0.4,1.1,1.1,1.5,1.5l9.5,9.5c0.4,0.4,0.8,1.2,0.8,1.8v13.9c0,0.6,0.3,1.4,0.8,1.8l6.9,6.9c0.4,0.4,0.8,1.2,0.8,1.8
		v14.9"/>
	<path style="fill:none;stroke:#DCDCDC;stroke-linecap:round;stroke-linejoin:round;stroke-miterlimit:10;" d="M535.7,408.7l6.5,6.5
		c0.4,0.4,0.8,1.2,0.8,1.8v9.9c0,0.6,0.3,1.4,0.8,1.8l6.4,6.4c0.4,0.4,0.4,1.1,0,1.5l-8.9,8.9c-0.4,0.4-0.8,1.2-0.8,1.8v10.3"/>
	<path style="fill:none;stroke:#DCDCDC;stroke-linecap:round;stroke-linejoin:round;stroke-miterlimit:10;" d="M508,371.7v8.2
		c0,0.6,0.3,1.4,0.8,1.8l27,27"/>
	<path style="fill:none;stroke:#DCDCDC;stroke-linecap:round;stroke-linejoin:round;stroke-miterlimit:10;" d="M535.7,408.7l4.7-4.7
		c0.4-0.4,1.1-0.4,1.5,0l7.1,7.1c0.4,0.4,0.8,1.2,0.8,1.8v9.2c0,0.6,0.5,1.1,1.1,1.1h82"/>
	<path style="fill:none;stroke:#DCDCDC;stroke-linecap:round;stroke-linejoin:round;stroke-miterlimit:10;" d="M515.1,485.4h31.5
		c0.6,0,1.1-0.5,1.1-1.1v-7.7"/>
	<path style="fill:none;stroke:#DCDCDC;stroke-linecap:round;stroke-linejoin:round;stroke-miterlimit:10;" d="M510.3,461.1v23.3
		c0,0.6,0.5,1.1,1.1,1.1h3.8"/>
	<path style="fill:none;stroke:#DCDCDC;stroke-linecap:round;stroke-linejoin:round;stroke-miterlimit:10;" d="M554.5,243.2h15.7
		c0.6,0,1.1-0.5,1.1-1.1v-6.7c0-0.6,0.5-1.1,1.1-1.1h26.3c0.6,0,1.4,0.3,1.8,0.8l15.6,15.6c0.4,0.4,1.2,0.8,1.8,0.8h48.7
		c0.6,0,1.1-0.5,1.1-1.1v-12.6c0-0.6,0.5-1.1,1.1-1.1H683c0.6,0,1.1-0.5,1.1-1.1v-8.1"/>
	<path style="fill:none;stroke:#DCDCDC;stroke-linecap:round;stroke-linejoin:round;stroke-miterlimit:10;" d="M604.1,136.9h3.8
		c0.6,0,1.4-0.3,1.8-0.8l21.8-22.2"/>
	<path style="fill:none;stroke:#DCDCDC;stroke-linecap:round;stroke-linejoin:round;stroke-miterlimit:10;" d="M518.6,125.2l9.3-9.3
		c0.4-0.4,1.2-0.8,1.8-0.8h43.8c0.6,0,1.4,0.3,1.8,0.8l20.3,20.3c0.4,0.4,1.2,0.8,1.8,0.8h6.7"/>
	<path style="fill:none;stroke:#DCDCDC;stroke-linecap:round;stroke-linejoin:round;stroke-miterlimit:10;" d="M555.2,182.7h35.3
		c0.6,0,1.1-0.5,1.1-1.1v-24.9c0-0.6,0.3-1.4,0.8-1.8l11.2-11.2c0.4-0.4,0.8-1.2,0.8-1.8v-5"/>
	<path style="fill:none;stroke:#DCDCDC;stroke-linecap:round;stroke-linejoin:round;stroke-miterlimit:10;" d="M518.6,147.5h17.8
		c0.6,0,1.5,0,2.1,0h7.7c0.6,0,1.1,0.5,1.1,1.1v25"/>
	<path style="fill:none;stroke:#DCDCDC;stroke-linecap:round;stroke-linejoin:round;stroke-miterlimit:10;" d="M600.4,322.1
		l-5.2,5.2c-0.4,0.4-1.2,0.8-1.8,0.8h-40.1c-0.6,0-1.4,0.3-1.8,0.8l-4.9,4.9"/>
	<path style="fill:none;stroke:#DCDCDC;stroke-linecap:round;stroke-linejoin:round;stroke-miterlimit:10;" d="M631.4,385.1h7.6
		c0.6,0,1.1-0.5,1.1-1.1v-11.7c0-0.6,0.5-1.1,1.1-1.1h8c0.6,0,1.4-0.3,1.8-0.8l4.4-4.4c0.4-0.4,0.8-1.2,0.8-1.8v-4.5
		c0-0.6-0.3-1.4-0.7-1.8l-0.8-0.8c-0.4-0.4-0.7-1.2-0.7-1.8v-20.1c0-0.6-0.3-1.4-0.8-1.8l-17-17c-0.4-0.4-1.2-0.8-1.8-0.8h-26.4
		c-0.6,0-1.4,0.3-1.8,0.8l-5.7,5.7"/>
	<path style="fill:none;stroke:#DCDCDC;stroke-linecap:round;stroke-linejoin:round;stroke-miterlimit:10;" d="M482.5,292h13.6
		c0.6,0,1.5,0,2.1,0H514c0.6,0,1.1,0.5,1.1,1.1v7.8c0,0.6,0.5,1.1,1.1,1.1h13.4c0.6,0,1.5,0,2.1,0h11.2"/>
	<path style="fill:none;stroke:#DCDCDC;stroke-linecap:round;stroke-linejoin:round;stroke-miterlimit:10;" d="M450.2,338.1h15.9
		c0.6,0,1.1-0.5,1.1-1.1v-7.3c0-0.6,0.5-1.1,1.1-1.1h20.2c0.6,0,1.5,0,2.1,0h12.4c0.6,0,1.4-0.3,1.8-0.8l8.5-8.5
		c0.4-0.4,1.2-0.8,1.8-0.8h6.2c0.6,0,1.5,0,2.1,0H536"/>
	<path style="fill:none;stroke:#DCDCDC;stroke-linecap:round;stroke-linejoin:round;stroke-miterlimit:10;" d="M481.4,448.2v-10
		c0-0.6,0.3-1.4,0.8-1.8l10-9.7"/>
	<path style="fill:none;stroke:#DCDCDC;stroke-linecap:round;stroke-linejoin:round;stroke-miterlimit:10;" d="M492.5,467.8v-11.7
		c0-0.6,0.5-1.1,1.1-1.1h10.7"/>
	
		<line style="fill:none;stroke:#DCDCDC;stroke-linecap:round;stroke-linejoin:round;stroke-miterlimit:10;" x1="477.2" y1="452.4" x2="492.5" y2="467.8"/>
	<path style="fill:none;stroke:#DCDCDC;stroke-linecap:round;stroke-linejoin:round;stroke-miterlimit:10;" d="M506.7,508.9l7.7-7.7
		c0.4-0.4,0.8-1.2,0.8-1.8v-14"/>
	<path style="fill:none;stroke:#DCDCDC;stroke-linecap:round;stroke-linejoin:round;stroke-miterlimit:10;" d="M492.5,467.8V494
		c0,0.6,0.3,1.4,0.8,1.8l13.4,13.1"/>
	<path style="fill:none;stroke:#DCDCDC;stroke-linecap:round;stroke-linejoin:round;stroke-miterlimit:10;" d="M506.7,508.9v9.7
		c0,0.6,0.3,1.4,0.8,1.8l17.1,17.1c0.4,0.4,0.4,1.1,0,1.5l-6.3,6.3c-0.4,0.4-0.4,1.1,0,1.5l27.9,27.9c0.4,0.4,1.1,0.4,1.5,0l6.3-6.3
		c0.4-0.4,0.4-1.1,0-1.5l-9.8-9.8c-0.4-0.4-0.4-1.1,0-1.5l20.7-20.7c0.4-0.4,0.4-1.1,0-1.5l-15.1-15.1c-0.4-0.4-0.8-1.2-0.8-1.8
		v-5.1c0-0.6-0.3-1.4-0.8-1.8l-4.3-4.3c-0.4-0.4-0.8-1.2-0.8-1.8v-7.9c0-0.6,0.5-1.1,1.1-1.1h21.6c0.6,0,1.1-0.5,1.1-1.1V489
		c0-0.6,0.5-1.1,1.1-1.1H595c0.6,0,1.4-0.3,1.8-0.8l5.4-5.4c0.4-0.4,0.8-1.2,0.8-1.8v-8.9c0-0.6-0.3-1.4-0.7-1.8
		c-0.4-0.4-0.7-0.7-0.7-0.7"/>
	<path style="fill:none;stroke:#DCDCDC;stroke-linecap:round;stroke-linejoin:round;stroke-miterlimit:10;" d="M49.4,464.8
		l10.3-10.3c0.4-0.4,1.1-0.4,1.5,0l9.8,9.8c0.4,0.4,1.2,0.8,1.8,0.8H88c0.6,0,1.4,0.3,1.8,0.8L94,470c0.4,0.4,0.4,1.1,0,1.5
		l-8.1,8.1c-0.4,0.4-0.8,1.2-0.8,1.8v44.1c0,0.6-0.3,1.4-0.8,1.8l-6.9,6.9c-0.4,0.4-0.8,1.2-0.8,1.8v29.2"/>
	<path style="fill:none;stroke:#DCDCDC;stroke-linecap:round;stroke-linejoin:round;stroke-miterlimit:10;" d="M227.8,512.6
		c-0.5-0.3-0.6-0.9-0.2-1.3l8.6-8.6c0.4-0.4,1.1-0.4,1.5,0l5.9,5.9c0.4,0.4,0.4,1.1,0,1.5l-6.6,6.6c-0.4,0.4-1.2,0.5-1.7,0.2
		L227.8,512.6z"/>
	<path style="fill:none;stroke:#DCDCDC;stroke-linecap:round;stroke-linejoin:round;stroke-miterlimit:10;" d="M210.8,521.7
		c0.2-0.6,0.8-1,1.4-1h4.6c0.6,0,1.1,0.5,1.1,1.1v5.5c0,0.6-0.5,1.1-1.1,1.1h-7.3c-0.6,0-0.9-0.5-0.7-1L210.8,521.7z"/>
	<path style="fill:none;stroke:#DCDCDC;stroke-linecap:round;stroke-linejoin:round;stroke-miterlimit:10;" d="M250.4,503.6
		c-0.3-0.5-0.2-1.3,0.3-1.7l2.6-2.6c0.4-0.4,1.1-0.4,1.5,0l4.4,4.4c0.4,0.4,0.4,1.1,0,1.5l-4.4,4.4c-0.4,0.4-1,0.3-1.2-0.2
		L250.4,503.6z"/>
	<path style="fill:none;stroke:#DCDCDC;stroke-linecap:round;stroke-linejoin:round;stroke-miterlimit:10;" d="M80.5,100
		c0.3,0.3,0.7,0.5,1.2,0.5h3.3l2.4,2.4l-7.1,7.1c-0.3,0.3-0.5,0.7-0.5,1.2c0,0.4,0.2,0.9,0.5,1.2l11.8,11.6L89,127
		c-0.6,0.6-0.6,1.7,0,2.3l5.8,5.8c0.6,0.6,1.7,0.6,2.3,0c0,0,2.6-3,3.3-2.4l9.1,9.2l-8.2,8.2c-0.3,0.3-0.5,0.7-0.5,1.2
		c0,0.4,0.2,0.9,0.5,1.2l12.9,12.9c0.6,0.6,1.7,0.6,2.3,0l9.3-9.3h5.8v2.8l-8,8c-0.3,0.3-0.5,0.7-0.5,1.2c0,0.4,0.2,0.9,0.5,1.2
		l6.5,6.5c0.3,0.3,0.7,0.5,1.2,0.5h4.6l-0.1,17.1H132c-0.9,0-1.6,0.7-1.6,1.6v2.8H120c-0.4,0-0.8,0.2-1.2,0.5l-10.6,10.6
		c-0.5,0.5-0.6,1.2-0.4,1.8c0.2,0.6,0.8,1,1.5,1h3.2c0.4,0,0.8-0.2,1.2-0.5l3-3h2.7v4.7l-2.8,2.8c-0.3,0.3-0.5,0.7-0.5,1.2v7h-3.3
		c-0.9,0-1.6,0.7-1.6,1.6v2.8h-10.6c-0.9,0-1.6,0.7-1.6,1.6v6.1c0,0.9,0.7,1.6,1.6,1.6h11.6v1.8c0,0.9,0.7,1.6,1.6,1.6h4.3v3.9
		c0,0.9,0.7,1.6,1.6,1.6h9.5c0.4,0,0.9-0.2,1.2-0.5l3.1-3.1h5.2c0.4,0,0.9-0.2,1.2-0.5l6.8-6.8l1,1l-11.9,11.9h-15
		c-0.4,0-0.9,0.2-1.2,0.5l-2.7,2.7h-5c-0.9,0-1.6,0.7-1.6,1.6v6.2L96.7,273h-7.2c-0.9,0-1.6,0.7-1.6,1.6v4.2c0,0.9,0.7,1.6,1.6,1.6
		h6v2.3c0,0.9,0.7,1.6,1.6,1.6h4.2c0.9,0,1.6-0.7,1.6-1.6v-4.3h5c0.9,0,1.6-0.7,1.6-1.6v-3.3h4.8l4.7,4.7c0.3,0.3,0.7,0.5,1.2,0.5
		h9.3c0.9,0,1.6-0.7,1.6-1.6v-13.9h6.1l3.1,3.1c0.3,0.3,0.7,0.5,1.2,0.5h18.8c0.4,0,0.9-0.2,1.2-0.5l4.6-4.6h15.6l3.2,3.2
		c0.3,0.3,0.7,0.5,1.2,0.5h7.6c0.9,0,1.6-0.7,1.6-1.6v-4h9.2c0.9,0,1.6-0.7,1.6-1.6v-4h7.4c0.9,0,1.6-0.7,1.6-1.6v-4.4
		c0-0.9-0.7-1.6-1.6-1.6h-18v-0.9h9.4c0.9,0,1.6-0.7,1.6-1.6v-4.1c0-0.9-0.7-1.6-1.6-1.6h-1.7l13.9-14.3c0.3-0.3,0.5-0.7,0.5-1.1
		v-12c0-0.4-0.2-0.8-0.5-1.2l-3.7-3.7c-0.3-0.3-0.7-0.5-1.2-0.5h-14.2c-0.4,0-0.8,0.2-1.2,0.5l-4.9,4.9l-2.1-2.1l4.4-4.4
		c0.3-0.3,0.5-0.7,0.5-1.2v-6.1c0-0.9-0.7-1.6-1.6-1.6h-5.5l-2.6-2.6h5.6c0.9,0,1.6-0.7,1.6-1.6v-3.9c0-0.4-0.2-0.8-0.5-1.2
		l-51-58.8c-0.3-0.4-0.8-0.6-1.3-0.6h-4.9l1.1-1.1h8.6c0.9,0,1.6-0.7,1.6-1.6V119c0-0.9-0.7-1.6-1.6-1.6h-9.4l14.9-12.8
		c0.4-0.3,0.6-0.8,0.6-1.2v-6.7h6.2c0.9,0,1.6-0.7,1.6-1.6V83.1c0-0.9-0.7-1.6-1.6-1.6h-25c-0.4,0-0.8,0.2-1.2,0.5l-4.9,4.9h-6v-1.1
		l19.2-19.2c0.3-0.3,0.5-0.7,0.5-1.2v-1.3c0-0.4-0.2-0.9-0.5-1.2c-0.3-0.3-0.7-0.5-1.2-0.5L100.8,63c-0.9,0-1.6,0.7-1.6,1.6v12.8
		h-2.2L91.5,72c-0.6-0.6-1.4-0.8-2-0.2l-17.8,17c-0.6,0.6-0.6,1.7,0,2.3L80.5,100z"/>
	<path style="fill:none;stroke:#DCDCDC;stroke-linecap:round;stroke-linejoin:round;stroke-miterlimit:10;" d="M21.5,195.3
		c-0.9,0-1.6-0.7-1.6-1.6v-6.9c0-0.9,0.7-1.6,1.6-1.6h7.9V183h-5.7c-0.9,0-1.6-0.7-1.6-1.6v-3.6c0-0.9,0.7-1.6,1.6-1.6h28.3v-4.3
		h-7.2c-0.9,0-1.6-0.7-1.6-1.6v-4.9c0-0.9,0.7-1.6,1.6-1.6h6.7v-12.2c0-0.9,0.7-1.6,1.6-1.6h3.2c0.4,0,0.8,0.2,1.1,0.5l3,3h4.1
		l4.7-4c0.3-0.3,0.7-0.4,1.1-0.4h6.2l3-3c0.6-0.6,1.7-0.6,2.3,0l10.4,10.5c0.3,0.3,0.5,0.7,0.5,1.2v3.9h2.2c0.9,0,1.6,0.7,1.6,1.6
		v7.9c0,0.4-0.2,0.9-0.5,1.2l-7.5,7.5c-0.3,0.3-0.7,0.5-1.2,0.5h-5.6v10.8l7,7c0.3,0.3,0.5,0.7,0.5,1.2v10.7c0,0.4-0.2,0.8-0.5,1.1
		l-3.8,3.8v18.2c0,0.9-0.7,1.6-1.6,1.6H66.4l-5.7,5.7c-0.3,0.3-0.7,0.5-1.2,0.5H48.7v4.5c0,0.9-0.7,1.6-1.6,1.6h-7.4v2.8
		c0,0.9-0.7,1.6-1.6,1.6h-9.2c-0.4,0-0.8-0.2-1.2-0.5l-6.1-6.1c-0.3-0.3-0.5-0.7-0.5-1.2v-21.2c0-0.9,0.7-1.6,1.6-1.6h7.6l8.9-18.9
		l-11.9-1c-0.9,0-1.6-0.7-1.6-1.6v-3.8H21.5"/>
	<path style="fill:none;stroke:#DCDCDC;stroke-linecap:round;stroke-linejoin:round;stroke-miterlimit:10;" d="M63.7,153.4v13
		c0,0.6,0.5,1.1,1.1,1.1h7.7c0.6,0,1.4,0.3,1.8,0.8l6.4,6.4c0.4,0.4,1.2,0.8,1.8,0.8h9.9"/>
	
		<line style="fill:none;stroke:#DCDCDC;stroke-linecap:round;stroke-linejoin:round;stroke-miterlimit:10;" x1="325.6" y1="157.3" x2="341.4" y2="157.3"/>
	<path style="fill:none;stroke:#DCDCDC;stroke-linecap:round;stroke-linejoin:round;stroke-miterlimit:10;" d="M568.4,74.2l14.3-6.3
		c0.5-0.2,1.4-0.2,1.9,0.1l12.1,7c0.5,0.3,1.2,0.9,1.6,1.3l6.7,7.8c0.4,0.4,1.1,0.7,1.7,0.5l9.8-3.3"/>
</g>
<g id="Countries" style="opacity:0.35;">
	<g>
		<text transform="matrix(1 0 0 1 340.5958 394.1787)" style="font-family:'RobotoCondensed-Light'; font-size:8px;">Italy</text>
	</g>
	<g>
		<text transform="matrix(1 0 0 1 302.3482 360.6289)" style="font-family:'RobotoCondensed-Light'; font-size:8px;">Switzerland</text>
	</g>
	<text transform="matrix(1 0 0 1 220.1705 360.6299)" style="font-family:'RobotoCondensed-Light'; font-size:8px;">France</text>
	<g>
		<text transform="matrix(1 0 0 1 408.7146 377.8094)" style="font-family:'RobotoCondensed-Light'; font-size:8px;">Slovenia</text>
	</g>
	<g>
		<text transform="matrix(1 0 0 1 438.5909 385.6631)" style="font-family:'RobotoCondensed-Light'; font-size:8px;">Croatia</text>
	</g>
	<g>
		<text transform="matrix(1 0 0 1 479.0362 351.001)" style="font-family:'RobotoCondensed-Light'; font-size:8px;">Hungary</text>
	</g>
	<g>
		<text transform="matrix(1 0 0 1 408.9962 342.5674)" style="font-family:'RobotoCondensed-Light'; font-size:8px;">Austria</text>
	</g>
	<g>
		<text transform="matrix(1 0 0 1 507.1397 428.2627)" style="font-family:'RobotoCondensed-Light'; font-size:8px;">Serbia</text>
	</g>
	<g>
		<text transform="matrix(1 0 0 1 567.713 450.1846)" style="font-family:'RobotoCondensed-Light'; font-size:8px;">Bulgaria</text>
	</g>
	<g>
		<text transform="matrix(1 0 0 1 562.587 379.959)" style="font-family:'RobotoCondensed-Light'; font-size:8px;">Romania</text>
	</g>
	<g>
		<text transform="matrix(1 0 0 1 479.0548 313.6005)" style="font-family:'RobotoCondensed-Light'; font-size:8px;">Slovakia</text>
	</g>
	<g>
		<text transform="matrix(1 0 0 1 407.1831 289.7464)" style="font-family:'RobotoCondensed-Light'; font-size:8px;">Czech Republic</text>
	</g>
	<g>
		<text transform="matrix(1 0 0 1 482.2599 227.6253)" style="font-family:'RobotoCondensed-Light'; font-size:8px;">Poland</text>
	</g>
	<g>
		<text transform="matrix(1 0 0 1 581.3064 50.66)" style="font-family:'RobotoCondensed-Light'; font-size:8px;">Estonia</text>
	</g>
	<g>
		<text transform="matrix(1 0 0 1 588.7762 108.0381)" style="font-family:'RobotoCondensed-Light'; font-size:8px;">Latvia</text>
	</g>
	<g>
		<text transform="matrix(1 0 0 1 556.023 147.5473)" style="font-family:'RobotoCondensed-Light'; font-size:8px;">Lithuania</text>
	</g>
	<g>
		<text transform="matrix(1 0 0 1 331.28 257.042)" style="font-family:'RobotoCondensed-Light'; font-size:8px;">Germany</text>
	</g>
	<g>
		<text transform="matrix(1 0 0 1 250.5877 273.4659)" style="font-family:'RobotoCondensed-Light'; font-size:8px;">Belgium</text>
	</g>
	<g>
		<text transform="matrix(1 0 0 1 271.166 219.0942)" style="font-family:'RobotoCondensed-Light'; font-size:8px;">Netherlands</text>
	</g>
	<g>
		<text transform="matrix(1 0 0 1 44.525 221.0942)" style="font-family:'RobotoCondensed-Light'; font-size:8px;">Ireland</text>
	</g>
	<g>
		<text transform="matrix(1 0 0 1 156.1628 221.0942)" style="font-family:'RobotoCondensed-Light'; font-size:8px;">U.K</text>
	</g>
</g>
<g id="Routes">
	<path style="fill:none;stroke:#68ADDF;stroke-width:2;stroke-linecap:round;stroke-linejoin:round;stroke-miterlimit:10;" d="
		M225.5,247.4c10.3-13.2,19.6-17.1,34.2-13.2"/>
	<path style="fill:none;stroke:#68ADDF;stroke-width:2;stroke-linecap:round;stroke-linejoin:round;stroke-miterlimit:10;" d="
		M78.1,273.5c0,14.8,9.8,24.7,30.4,24.7c24.7,0,37.8-19.7,55.8-19.7c5.7,0,16.8,0,22.7,0c16.8,0,32.3-23.3,38.5-31.1"/>
	<path style="fill:none;stroke:#68ADDF;stroke-width:2;stroke-linecap:round;stroke-linejoin:round;stroke-miterlimit:10;" d="
		M94.1,225.8c-9.8,15.3-16,35.1-16,47.7"/>
	<path style="fill:none;stroke:#68ADDF;stroke-width:2;stroke-linecap:round;stroke-linejoin:round;stroke-miterlimit:10;" d="
		M95.3,168.1c15.1,17.8,13,35.6-1.2,57.8"/>
	<path style="fill:none;stroke:#68ADDF;stroke-width:2;stroke-linecap:round;stroke-linejoin:round;stroke-miterlimit:10;" d="
		M40.3,246c18.9-0.8,32.4,5,37.8,27.4"/>
	<path style="fill:none;stroke:#68ADDF;stroke-width:2;stroke-linecap:round;stroke-linejoin:round;stroke-miterlimit:10;" d="
		M89.7,203.6c5,2,9.7,13,4.4,22.2"/>
	<path style="fill:none;stroke:#68ADDF;stroke-width:2;stroke-linecap:round;stroke-linejoin:round;stroke-miterlimit:10;" d="
		M225.5,247.4c9.9-9.4,23.5-6.6,32.2,4.2"/>
</g>
<g id="Ports">
	<g>
		<text transform="matrix(1 0 0 1 267.0643 238.338)" style="font-family:'RobotoCondensed-Light'; font-size:12px;">Rotterdam</text>
	</g>
	<g>
		<text transform="matrix(1 0 0 1 30.0865 237.9289)" style="font-family:'RobotoCondensed-Light'; font-size:12px;">Cork</text>
	</g>
	<g>
		<text transform="matrix(1 0 0 1 54.721 171.2784)" style="font-family:'RobotoCondensed-Light'; font-size:12px;">Belfast</text>
	</g>
	<g>
		<text transform="matrix(1 0 0 1 53.0377 206.7223)" style="font-family:'RobotoCondensed-Light'; font-size:12px;">Dublin</text>
	</g>
	<g>
		<text transform="matrix(1 0 0 1 265.3843 255.6948)" style="font-family:'RobotoCondensed-Light'; font-size:12px;">Antwerp</text>
	</g>
	<g>
		<path style="fill:#68ADDF;" d="M264.7,234.2c0,2.8-2.2,5-5,5l0,0c-2.8,0-5-2.2-5-5l0,0c0-2.8,2.2-5,5-5l0,0
			C262.5,229.2,264.7,231.4,264.7,234.2L264.7,234.2z"/>
	</g>
	<g>
		<path style="fill:#68ADDF;" d="M262.7,251.6c0,2.8-2.2,5-5,5l0,0c-2.8,0-5-2.2-5-5l0,0c0-2.8,2.2-5,5-5l0,0
			C260.4,246.6,262.7,248.8,262.7,251.6L262.7,251.6z"/>
	</g>
	<g>
		<g>
			<path style="fill:#68ADDF;" d="M100.3,168.1c0,2.8-2.2,5-5,5l0,0c-2.8,0-5-2.2-5-5l0,0c0-2.8,2.2-5,5-5l0,0
				C98,163.1,100.3,165.3,100.3,168.1L100.3,168.1z"/>
		</g>
	</g>
	<g>
		<g>
			<path style="fill:#68ADDF;" d="M94.7,203.6c0,2.8-2.2,5-5,5l0,0c-2.8,0-5-2.2-5-5l0,0c0-2.8,2.2-5,5-5l0,0
				C92.5,198.6,94.7,200.9,94.7,203.6L94.7,203.6z"/>
		</g>
	</g>
	<g>
		<path style="fill:#68ADDF;" d="M45.3,246c0,2.8-2.2,5-5,5l0,0c-2.8,0-5-2.2-5-5l0,0c0-2.8,2.2-5,5-5l0,0
			C43.1,241,45.3,243.3,45.3,246L45.3,246z"/>
	</g>
</g>
</svg>
