<?xml version="1.0" encoding="utf-8"?>
<!-- Generator: Adobe Illustrator 23.0.6, SVG Export Plug-In . SVG Version: 6.00 Build 0)  -->
<svg version="1.1" id="Layer_1" xmlns="http://www.w3.org/2000/svg" xmlns:xlink="http://www.w3.org/1999/xlink" x="0px" y="0px"
	 viewBox="0 0 420 420" style="enable-background:new 0 0 420 420;" xml:space="preserve">
<g>
	<path style="fill:none;stroke:#DCDCDC;stroke-linecap:round;stroke-linejoin:round;stroke-miterlimit:10;" d="M405.3,63.2
		c-0.4,0.4-1.2,0.7-1.7,0.7H392c-0.6,0-1,0.5-1,1v91.3c0,0.6-0.3,1.4-0.7,1.8l-25.7,25.7c-0.4,0.4-1.2,0.7-1.8,0.7h-42.5
		c-0.6,0-1,0.5-1,1v37.8c0,0.6-0.3,1.4-0.7,1.8l-37.2,37.2c-0.4,0.4-1.2,0.7-1.8,0.7h-21.3c-0.6,0-1,0.5-1,1v17.7
		c0,0.6-0.3,1.4-0.7,1.8l-24.2,24.2c-0.4,0.4-1.2,0.7-1.8,0.7h-10.8c-0.6,0-1.4-0.3-1.8-0.7l-8.1-8.1c-0.4-0.4-1.2-0.7-1.8-0.7h-8
		c-0.6,0-1.5,0.2-2,0.4l-1.8,1.8c-0.2,0.5-0.4,1.4-0.4,2v21.7c0,0.6-0.5,1-1,1h-48.1c-0.6,0-1.5,0.2-2,0.4l-1.8,1.8
		c-0.2,0.5-0.4,1.4-0.4,2v8.6c0,0.6,0.2,1.5,0.3,2l1.2,1.5c0.5,0.3,1.2,0.8,1.7,1.1l44.4,25.2c0.5,0.3,0.9,1,0.9,1.5v22.9
		c0,0.6,0.1,1.4,0.2,1.9c0.1,0.5,1.1,1.7,1.5,2.1l13.8,13.8c0.4,0.4,0.7,1.2,0.7,1.8"/>
	<path style="fill:none;stroke:#DCDCDC;stroke-linecap:round;stroke-linejoin:round;stroke-miterlimit:10;" d="M99.5,59.5
		c0.4,0.4,0.9,0.6,1.4,0.6h3.9l2.9,2.9l-8.4,8.4c-0.4,0.4-0.6,0.9-0.6,1.4c0,0.5,0.2,1,0.6,1.4L113.3,88l-3.7,3.7
		c-0.8,0.8-0.8,2,0,2.8l6.9,6.9c0.8,0.8,2,0.8,2.8,0c0,0,3.1-3.6,3.9-2.8l10.9,11l-9.8,9.8c-0.4,0.4-0.6,0.9-0.6,1.4
		c0,0.5,0.2,1,0.6,1.4l15.4,15.4c0.8,0.8,2,0.8,2.8,0l11.2-11.1h6.9v3.4l-9.5,9.5c-0.4,0.4-0.6,0.9-0.6,1.4c0,0.5,0.2,1,0.6,1.4
		l7.8,7.8c0.4,0.4,0.9,0.6,1.4,0.6h5.5l-0.1,20.4H161c-1.1,0-2,0.9-2,1.9v3.3h-12.4c-0.5,0-1,0.2-1.4,0.6l-12.6,12.6
		c-0.6,0.6-0.7,1.4-0.4,2.1c0.3,0.7,1,1.2,1.8,1.2h3.8c0.5,0,1-0.2,1.4-0.6l3.5-3.5h3.2v5.6l-3.4,3.4c-0.4,0.4-0.6,0.9-0.6,1.4v8.3
		h-3.9c-1.1,0-2,0.9-2,2v3.3h-12.7c-1.1,0-2,0.9-2,1.9v7.3c0,1.1,0.9,2,2,2h13.9v2.1c0,1.1,0.9,2,2,2h5.1v4.6c0,1.1,0.9,2,2,2h11.3
		c0.5,0,1-0.2,1.4-0.6l3.7-3.7h6.2c0.5,0,1-0.2,1.4-0.6l8.1-8.1l1.2,1.2l-14.2,14.2h-18c-0.5,0-1,0.2-1.4,0.6l-3.2,3.2h-5.9
		c-1.1,0-1.9,0.9-1.9,1.9v7.4l-16.2,16.1h-8.6c-1.1,0-2,0.9-2,2v5c0,1.1,0.9,1.9,2,1.9h7.1v2.7c0,1.1,0.9,2,1.9,2h5c1.1,0,2-0.9,2-2
		v-5.1h6c1.1,0,2-0.9,2-1.9v-3.9h5.7l5.6,5.6c0.4,0.4,0.9,0.6,1.4,0.6H158c1.1,0,2-0.9,2-2v-16.6h7.3l3.8,3.7
		c0.4,0.4,0.9,0.6,1.4,0.6h22.4c0.5,0,1-0.2,1.4-0.6l5.4-5.4h18.6l3.8,3.8c0.4,0.4,0.9,0.6,1.4,0.6h9.1c1.1,0,2-0.9,2-1.9v-4.8h10.9
		c1.1,0,2-0.9,2-2v-4.8h8.9c1.1,0,2-0.9,2-2v-5.3c0-1.1-0.9-2-2-2h-21.5v-1.1h11.2c1.1,0,2-0.9,2-2v-4.8c0-1.1-0.9-2-2-2h-2
		l16.6-17.1c0.4-0.4,0.6-0.9,0.6-1.4v-14.4c0-0.5-0.2-1-0.6-1.4l-4.4-4.4c-0.4-0.4-0.9-0.6-1.4-0.6h-17c-0.5,0-1,0.2-1.4,0.6
		l-5.8,5.8l-2.5-2.5l5.2-5.2c0.4-0.4,0.6-0.9,0.6-1.4v-7.3c0-1.1-0.9-2-2-2h-6.5l-3.1-3.1h6.7c1.1,0,2-0.9,2-2v-4.7
		c0-0.5-0.2-1-0.6-1.4L171.6,92c-0.4-0.5-0.9-0.7-1.5-0.7h-5.8l1.4-1.4h10.3c1.1,0,1.9-0.9,1.9-1.9v-5.9c0-1.1-0.9-1.9-1.9-1.9
		h-11.2l17.7-15.3c0.4-0.4,0.7-0.9,0.7-1.5v-8h7.4c1.1,0,2-0.9,2-1.9V39.3c0-1.1-0.9-2-2-2h-29.9c-0.5,0-1,0.2-1.4,0.6l-5.9,5.9
		h-7.2v-1.3l22.9-22.9c0.4-0.4,0.6-0.9,0.6-1.4V10c0-0.5-0.2-1-0.6-1.4c-0.4-0.4-0.9-0.6-1.4-0.6l-44,0.6c-1.1,0-1.9,0.9-1.9,2v21.9
		h-2.7l-6.5-6.5c-0.8-0.8-1.7-1-2.4-0.2L88.9,46.1c-0.8,0.8-0.8,2,0,2.8L99.5,59.5z"/>
	<path style="fill:none;stroke:#DCDCDC;stroke-linecap:round;stroke-linejoin:round;stroke-miterlimit:10;" d="M29.1,173.2
		c-1.1,0-2-0.9-2-2v-8.2c0-1.1,0.9-2,2-2h9.5v-2.5h-6.8c-1.1,0-1.9-0.9-1.9-2v-4.4c0-1.1,0.9-2,1.9-2h33.8v-5.2h-8.6
		c-1.1,0-2-0.9-2-2v-5.9c0-1.1,0.9-1.9,2-1.9h8v-14.5c0-1.1,0.9-2,2-2h3.8c0.5,0,1,0.2,1.4,0.6l3.5,3.5h4.9l5.6-4.8
		c0.4-0.3,0.8-0.5,1.3-0.5h7.4l3.5-3.5c0.7-0.7,2-0.7,2.8,0l12.5,12.5c0.4,0.4,0.6,0.9,0.6,1.4v4.6h2.6c1.1,0,2,0.9,2,1.9v9.4
		c0,0.5-0.2,1-0.6,1.4l-8.9,9c-0.4,0.4-0.9,0.6-1.4,0.6H101v12.9l8.4,8.4c0.4,0.4,0.6,0.9,0.6,1.4v12.8c0,0.5-0.2,1-0.6,1.4
		l-4.5,4.5v21.8c0,1.1-0.9,2-1.9,2H82.6l-6.8,6.8c-0.4,0.4-0.9,0.6-1.4,0.6h-13v5.4c0,1.1-0.9,2-2,2h-8.9v3.3c0,1.1-0.9,1.9-2,1.9
		h-11c-0.5,0-1-0.2-1.4-0.6l-7.3-7.3c-0.4-0.4-0.6-0.9-0.6-1.4v-25.3c0-1.1,0.9-2,2-2h9.1L50,180.8l-14.2-1.1c-1.1,0-2-0.9-2-1.9
		v-4.5H29.1"/>
</g>
<g>
	<g>
		<text transform="matrix(1 0 0 1 55.0137 214.0938)" style="font-family:'RobotoCondensed-Light'; font-size:12px;">Rosslare</text>
	</g>
	<g>
		<text transform="matrix(1 0 0 1 69.0694 193.6604)" style="font-family:'RobotoCondensed-Light'; font-size:12px;">Dublin</text>
	</g>
	<g>
		<text transform="matrix(1 0 0 1 153.1036 193.6609)" style="font-family:'RobotoCondensed-Light'; font-size:12px;">Holyhead</text>
	</g>
	<g>
		<text transform="matrix(1 0 0 1 148.1033 219.0944)" style="font-family:'RobotoCondensed-Light'; font-size:12px;">Pembroke</text>
	</g>
	<g>
		<text transform="matrix(1 0 0 1 203.5917 324.0797)" style="font-family:'RobotoCondensed-Light'; font-size:12px;">Cherbourg</text>
	</g>
</g>
<g>
	<path style="fill:none;stroke:#009C56;stroke-width:2;stroke-linecap:round;stroke-linejoin:round;stroke-miterlimit:10;" d="
		M144.8,189.5c-11-6.5-26.1-6.8-37.9,0.9"/>
	<path style="fill:none;stroke:#009C56;stroke-width:2;stroke-linecap:round;stroke-linejoin:round;stroke-miterlimit:10;" d="
		M106.9,190.3c7.5,7.1,11.8,17.1,8.5,27.8c-5.3,17.4-18.5,27.7-18.5,48.6c0,14.5,8.9,30.6,27.1,39.5c20,9.9,49.1,10,74.7,5"/>
	<path style="fill:none;stroke:#F05A28;stroke-width:2;stroke-linecap:round;stroke-miterlimit:10;" d="M101.8,219.1
		c10.9,10.4,24.7,12.9,41.9,7.9"/>
	<path style="fill:none;stroke:#F05A28;stroke-width:2;stroke-linecap:round;stroke-miterlimit:10;" d="M144.8,189.5
		c-11.6,5.9-27.3,5.9-37.9,0.9"/>
</g>
<g>
	<g>
		<path style="fill:#009C56;" d="M203.6,311.3c0,2.8-2.2,5-5,5l0,0c-2.8,0-5-2.2-5-5l0,0c0-2.8,2.2-5,5-5l0,0
			C201.4,306.3,203.6,308.5,203.6,311.3L203.6,311.3z"/>
	</g>
	<g>
		<path style="fill:#009C56;" d="M148.7,227c0,2.8-2.2,5-5,5l0,0c-2.8,0-5-2.2-5-5l0,0c0-2.8,2.2-5,5-5l0,0
			C146.5,222,148.7,224.2,148.7,227L148.7,227z"/>
	</g>
	<g>
		<path style="fill:#009C56;" d="M106.8,219.1c0,2.8-2.2,5-5,5l0,0c-2.8,0-5-2.2-5-5l0,0c0-2.8,2.2-5,5-5l0,0
			C104.6,214.1,106.8,216.3,106.8,219.1L106.8,219.1z"/>
	</g>
	<g>
		<path style="fill:#009C56;" d="M149.8,189.5c0,2.8-2.2,5-5,5l0,0c-2.8,0-5-2.2-5-5l0,0c0-2.8,2.2-5,5-5l0,0
			C147.5,184.5,149.8,186.7,149.8,189.5L149.8,189.5z"/>
	</g>
	<g>
		<path style="fill:#009C56;" d="M111.9,190.3c0,2.8-2.2,5-5,5l0,0c-2.8,0-5-2.2-5-5l0,0c0-2.8,2.2-5,5-5l0,0
			C109.6,185.3,111.9,187.6,111.9,190.3L111.9,190.3z"/>
	</g>
</g>
</svg>
