<?xml version="1.0" encoding="UTF-8"?>
<svg width="583px" height="34px" viewBox="0 0 583 34" version="1.1" xmlns="http://www.w3.org/2000/svg" xmlns:xlink="http://www.w3.org/1999/xlink">
    <!-- Generator: Sketch 56.3 (81716) - https://sketch.com -->
    <title>Branding/ICG-Wordmark-White</title>
    <desc>Created with Sketch.</desc>
    <g id="Branding/ICG-Wordmark-White" stroke="none" stroke-width="1" fill="none" fill-rule="evenodd">
        <g id="Group-2" fill="#FFFFFF">
            <path d="M12.3,32.4 L12.3,32.4 C11.9,32.6 9.3,32.2 6.5,32.2 C3.3,32.2 0.5,32.7 0.2,32.4 C-7.10542736e-15,32.2 -7.10542736e-15,31.3 0.2,31.2 C1.1,30.5 4.1,32.6 4.1,27.3 L3.9,5.6 C3.9,1.5 0.9,3.1 -7.10542736e-15,2.4 C-7.10542736e-15,2 -7.10542736e-15,1.2 0.2,1 C0.7,0.6 3.2,1.4 6.3,1.4 C9.1,1.4 11.7,0.9 12.1,1 C12.5,1.2 12.3,2.2 12.1,2.4 C11.6,2.8 8.2,1.7 8.2,6.1 L8.4,27.6 C8.4,32.4 11.6,30.3 12.3,31 C12.6,31.2 12.6,32.4 12.3,32.4 Z" id="Path"></path>
            <path d="M25,20.2 L25,20.2 C25.4,20.4 26.6,20.4 27.3,20.4 C29.9,20.4 33.3,20 33.3,15.6 C33.3,12.2 32.6,10.3 26.5,10.6 C25.8,10.6 25.3,10.8 24.9,11.1 C24.7,11.1 24.5,19.8 25,20.2 Z M24.7,29.1 L24.7,29.1 C24.7,30.3 25.4,31.1 26.5,31.1 C26.5,31.1 27.4,30.7 27.7,30.9 C28.1,31.3 28.1,32.1 27.7,32.1 C27.5,32.3 25.2,32.1 23.1,32.1 C20.8,32.1 18.5,32.3 18.5,32.3 C18.1,32.1 18,31.4 18.5,31.1 C18.9,30.7 19.2,31.1 19.2,31.1 C20.8,31.1 21.1,30.7 21.1,28.8 L21.1,13.2 C21.1,11.4 20.7,10.5 19.2,10.5 C19.2,10.5 18.5,10.5 18.1,10.3 C17.9,10.1 17.7,9.4 18.3,9.1 C18.7,9.1 20.9,9.6 22.5,9.6 C24.8,9.6 24.6,9.2 27.1,9.2 C34.8,9.2 37.3,10.8 37.3,14.9 C37.3,19.9 33.6,20.1 32,20.6 C31.6,21 31.6,21.7 32,21.8 C32.9,22.2 33.9,23 34.5,23.8 C35.6,25.6 37,29.5 37.3,29.8 C38.7,31.6 40.1,30.7 40.5,31 C40.7,31.4 40.7,31.9 40.5,32.1 C40.3,32.3 38.9,32.3 38.2,32.3 C34.3,32.1 33.6,30.7 33.3,29.6 C32.6,28.5 32.6,28 31.5,25.5 C30.4,23.4 30.1,22.7 29.2,22.1 C28.3,21.6 27.4,21.4 26.4,21.4 C25.5,21.4 25.2,21.4 24.6,21.9 L24.6,29.1 L24.7,29.1 Z" id="Shape" fill-rule="nonzero"></path>
            <path d="M55.1,32.3 L55.1,32.3 C54.9,32.3 53,32.1 50.7,32.1 C48.2,32.1 46.3,32.5 45.8,32.3 C45.6,32.3 45.1,31.4 45.8,31.2 C46.5,30.8 48.8,31.6 48.8,28.5 L48.6,12.7 C48.6,10.2 46.7,10.6 45.6,10.4 C45.1,10.4 45.2,9.3 45.4,9.2 C45.6,9.2 48.2,9.4 50.5,9.4 C52.8,9.4 54.9,9 55.1,9.2 C55.5,9.4 55.5,10.3 55.1,10.4 C54.7,10.8 52.1,9.5 52.1,13.1 L52.1,28.7 C52.1,31.7 54.4,30.7 55.3,31 C55.7,31.2 55.7,32.1 55.1,32.3 Z" id="Path"></path>
            <path d="M65,24.8 L65,24.8 C65.4,25.2 65.2,25.2 65.2,25.9 C65.2,27.3 65.7,31.6 71.9,31.6 C74.4,31.4 77.2,30.5 77.3,26.8 C77.5,24.3 74.8,23.1 72.6,22.4 C68.4,21.2 63.5,20.3 63.5,14.9 C63.5,10.6 68.2,8.9 71.7,8.9 C74.7,8.9 75.6,9.3 77,9.6 C77.4,9.8 79.1,9.6 79.3,9.8 C79.3,10 79.1,11 79.1,12.1 C79.3,13.3 79.6,14.1 79.5,14.6 C79.3,15.5 78.1,15.5 77.7,14.8 C77.5,14.4 78.2,10.4 71.9,10.4 C69.6,10.4 66.3,10.9 66.3,14 C66.3,17.4 68.8,17.4 74.9,19.3 C79.3,20.7 80.7,23.2 80.7,26.1 C80.7,29.8 77.5,33.2 72.1,33 C68.2,33 66.8,32.1 65.4,31.9 C64.2,31.9 63.8,32.1 63.5,31.5 C63.3,31.3 63.5,29.7 63.7,28.3 C63.7,26.9 63.3,25.3 63.7,24.9 C63.9,24.4 64.8,24.6 65,24.8 Z" id="Path"></path>
            <path d="M104.3,20.7 L104.3,20.7 L94.5,20.7 C94.5,20.7 94,20.5 93.4,20.9 C93,21.3 93,22 93,22 L93.2,28.4 C93.2,30.5 93.4,31.1 95.5,31.1 C95.5,31.1 96.2,30.9 96.4,31.3 C96.8,31.7 96.6,32.2 96.2,32.4 C95.7,32.6 93.6,32.2 91.6,32.2 C89.7,32.2 87.2,32.7 86.9,32.4 C86.5,32 86.7,31.5 86.9,31.2 C87.1,31 87.4,31 87.4,31 C88.8,31 89.7,31.4 89.7,29 L89.7,12.6 C89.7,9.9 87.4,10.8 86.7,10.5 C86.2,10.3 86.2,9.4 86.7,9.3 C87.4,9.1 88.8,9.5 91.4,9.5 C94.7,9.5 96,9.1 96.3,9.3 C96.5,9.5 96.7,10.4 96.1,10.5 C95.4,10.9 92.9,9.6 92.9,13.5 L92.9,18.5 C92.9,18.5 92.9,19 93.1,19.2 C93.5,19.6 94,19.6 94,19.6 L104.2,19.4 C104.2,19.4 104.7,19.6 104.9,19.2 C105.3,18.7 105.3,18.3 105.3,18.3 L105.3,12.6 C105.1,11.9 105.3,10.5 103.4,10.5 C103.4,10.5 102.5,10.7 102.2,10.3 C101.7,9.9 102,9.4 102.4,9.2 C102.6,9 104.9,9.4 107.3,9.4 C109.4,9.4 111.7,9 111.9,9 C112.3,9.4 112.3,10.2 111.9,10.2 C111.4,10.6 108.9,9.8 108.9,12.9 L108.9,28.4 C108.9,30.5 109.3,31.1 111,31.1 C111,31.1 111.7,30.9 111.9,31.1 C112.3,31.5 112.3,32.2 111.9,32.3 C111.7,32.5 109.3,32.1 107.3,32.1 C104.7,32.1 102.6,32.5 102.4,32.3 C102,32.1 102,31.2 102.4,31.1 C102.6,30.9 103.5,31.1 103.5,31.1 C105.6,31.1 105.4,29.7 105.4,28.8 L105.4,22 C105.4,22 105.4,21.1 105.2,20.9 C104.9,20.5 104.3,20.7 104.3,20.7 Z" id="Path"></path>
            <path d="M155.5,31.4 L155.5,31.4 C153.2,32.6 152.7,33.2 148.7,33.2 C138,33.2 132.9,24.7 132.9,16.7 C132.9,8.9 137.8,0.3 148.8,0.2 C152.3,0.2 155.6,1.3 157.6,1.8 C158.8,2 159.2,1.8 159.4,2.2 C159.6,2.4 159.6,7.4 159.8,8.1 C160,9.9 160.2,9.7 160,10.4 C160,10.8 158.6,10.9 158.2,10.4 C157.1,9.3 159.3,2.2 149.1,2.2 C141.2,2.2 137.7,8.2 137.7,16.2 C137.7,24.6 142.4,31.1 149.6,31.1 C157,31.1 158.5,25.6 159.6,24.7 C160,24.3 161,25.2 161,25.8 C161.1,26 158.4,30 155.5,31.4 Z" id="Path"></path>
            <path d="M177.5,31.7 L177.5,31.7 C182.4,31.7 185.4,26.9 185.4,21 C185.4,14.4 182.4,10.3 177.2,10.3 C172.3,10.3 169.7,14.7 169.7,21 C169.7,28.2 173.2,31.7 177.5,31.7 Z M177.7,9.2 L177.7,9.2 C185.4,9.2 189.3,14.9 189.3,21.1 C189.3,27.5 185.4,32.8 177.6,32.8 C170.2,32.8 165.7,28 165.7,21.6 C165.6,14.5 170.4,9.3 177.7,9.2 Z" id="Shape" fill-rule="nonzero"></path>
            <path d="M200.5,13.6 L200.5,13.6 C200.5,13.6 200.3,13.4 200,13.4 C199.5,13.6 199.6,13.8 199.6,13.8 L199.6,27.5 C199.6,30.3 199.8,30.7 201.5,31.1 C202,31.1 202.4,30.9 202.7,31.1 C203.1,31.3 203.1,32.2 202.7,32.3 C202.3,32.5 200.6,32.1 198.8,32.1 C197,32.1 195.6,32.5 195.1,32.3 C194.6,32.1 194.7,31.2 194.9,31.1 C195.1,31.1 195.4,31.1 195.8,31.1 C196.7,31.1 197.9,31.1 197.9,27.9 L197.9,11.9 C197.7,11.5 197.7,11.2 197.4,10.8 C196.3,10.3 195.8,10.6 195.1,10.3 C194.7,10.1 194.7,9.2 195.1,9.2 C195.6,9 196.9,9.4 198.3,9.4 C199.5,9.4 200.2,9.2 200.8,9.2 C201.3,9.2 201.9,10.1 201.9,10.1 L214.3,24.9 C214.3,24.9 214.7,25.3 215,25.3 C215.5,25.1 215.5,24.2 215.5,24.2 L215.5,13.7 C215.5,9.1 213,11 212.3,10.5 C212.1,10.3 212.1,9.4 212.3,9.3 C212.7,9.1 214.2,9.7 216,9.7 C217.8,9.7 219.5,9.3 219.7,9.3 C220.1,9.5 220.1,10.4 219.9,10.5 C218.5,10.9 216.9,9.8 217.1,13.9 L217.1,32 C217.1,32 217.1,32.7 216.7,32.7 C216.5,32.7 216.3,32.7 216,32.5 C215.5,31.6 214.9,30.9 214.9,30.9 L200.5,13.6 Z" id="Path"></path>
            <path d="M224.8,9.3 L224.8,9.3 C225.2,9.1 226,9.3 226.4,9.3 C226.6,9.3 227.3,9.3 228.2,9.3 L240.4,9.3 C242.2,9.3 242.5,9.3 243,9.3 C243,9.3 243.7,8.9 244.1,9.3 C244.1,9.3 243.9,10.5 244.1,11.8 C244.1,13.2 244.5,14.8 244.3,15 C244.1,15.2 243.4,15.5 243.1,15 C242.9,14.8 242.9,13.4 242.6,12.3 C242.2,11.2 241.2,10.5 240.1,10.5 L237.1,10.5 C237.1,10.5 236.7,10.7 236.4,10.9 C236,11.3 236.2,11.8 236.2,11.8 L236.2,28.2 C236.2,32.5 239,30.7 239.7,31 C239.9,31.2 239.9,32.1 239.7,32.2 C239.5,32.2 237.1,32 234.4,32 C232.1,32 229.3,32.4 229.2,32.2 C228.8,32 228.8,31.1 229.2,31 C230.1,30.5 232.7,32.2 232.5,28.3 L232.5,11.6 C232.5,11.6 232.5,11.1 232.3,10.9 C231.9,10.5 231.4,10.5 231.4,10.5 L228.6,10.7 C225.3,10.7 226.3,14.1 225.8,14.8 C225.6,15 224.6,15 224.6,14.8 C224.5,14.8 224.6,9.3 224.8,9.3 Z" id="Path"></path>
            <path d="M316.2,29.8 L316.2,29.8 C316,31 316,32.3 315.8,32.5 C315.4,32.9 314.4,32.3 304.1,32.3 C300.4,32.5 297.3,32.5 297.3,32.5 C296.9,32.1 296.9,31.6 297.3,31.3 C297.8,30.6 300.3,32.4 300.3,29.2 L300.3,13 C300.3,9.8 298.2,11.2 297.5,10.7 C297.1,10.5 297.3,9.6 297.5,9.6 C297.9,9.4 300.7,9.8 304,9.8 C308.9,9.8 314.3,9.4 314.7,9.6 C315.1,9.8 315.1,14.9 314.9,15.1 C314.9,15.1 314,15.3 313.8,15.1 C313.6,14.9 313.4,14.2 313.4,14.2 C313,11.7 312,11 309.9,11 L305.2,11 C305.2,11 304.5,11 304.1,11.2 C303.6,11.7 303.6,12.4 303.6,12.4 L303.6,18.8 C303.6,18.8 303.6,19.2 304,19.5 C304.2,19.9 304.7,19.9 304.7,19.9 L309.1,19.9 C311.4,19.7 311,16.5 311.4,16.3 C311.6,16.1 312.5,16.3 312.5,16.3 C312.7,16.7 312.3,18.3 312.3,20.4 C312.3,22.5 312.7,24.7 312.5,24.8 C312.3,25.2 311.4,25 311.3,25 C311.1,24.6 311.8,21.1 309.2,21.1 L305.2,21.1 C305.2,21.1 304.3,21.1 304.1,21.3 C303.7,21.7 303.9,22.5 303.9,22.5 L303.9,28.2 C303.9,30.7 304.3,31 306,30.9 L311.3,30.9 C315.7,30.9 314.8,27.3 315.9,26.1 C315.9,25.9 317,25.9 317,26.1 C316.9,26.4 316.4,28.4 316.2,29.8 Z" id="Path"></path>
            <path d="M383.1,22.3 L383.1,22.3 L388.2,22.3 C388.2,22.3 388.7,22.5 389.1,21.9 C389.3,21.5 388.9,20.8 388.9,20.8 L386.4,14.2 C386.4,14.2 386,13.7 385.7,13.7 C385.3,13.7 385,14.2 385,14.2 L382.4,20.6 C382.4,20.6 382,21.3 382.2,21.8 C382.4,22.3 383.1,22.3 383.1,22.3 Z M373.8,31 L373.8,31 C374,30.8 374.9,31 375.2,31 C376.3,30.8 376.8,30.3 377.5,28.2 L385.6,9.4 C385.6,9.4 385.8,8.9 386,8.9 C386.4,8.9 387.9,8.9 387.9,8.9 L395.8,28.1 C396.3,29.7 397,30.8 397.9,31.1 C398.6,31.3 399.5,31.1 399.5,31.1 C399.9,31.5 399.7,32.3 399.5,32.5 C399.3,32.5 397.4,32.3 394.9,32.5 C392.4,32.5 389.6,32.5 389.5,32.5 C389.1,32.3 389.3,31.4 389.5,31.3 C389.7,31.1 390.6,31.3 390.9,31.3 C391.8,31.1 392.3,30.6 392.3,29.9 C392.3,29.5 392.1,28.8 391.8,27.9 L390.2,23.8 L389.8,23.6 L381.4,23.6 L379.3,28.6 C378.9,29.3 378.9,29.7 378.9,30 C378.9,30.5 379.4,31.1 380.1,31.2 C380.5,31.2 381.7,31 381.7,31 C381.9,31.2 382.1,32.2 381.7,32.4 C381.3,32.6 379.6,32.4 377.8,32.4 C375.5,32.4 374.3,32.6 373.8,32.4 C373.6,32.3 373.4,31.2 373.8,31 Z" id="Shape" fill-rule="nonzero"></path>
            <path d="M418.4,32.3 L418.4,32.3 C416.3,32.5 413,32.3 409.5,32.3 C406.3,32.3 404.1,32.5 403.9,32.3 C403.9,32.3 403.7,31.4 404.1,31.2 C404.3,31 405.3,31.2 405.7,31 C406.6,30.8 407.1,30.3 407.1,28.2 L407.1,13.6 C407.1,11.6 406.9,10.8 405,10.6 C404.6,10.6 404.3,10.8 404.1,10.6 C403.9,10.4 403.9,9.5 404.1,9.5 C404.5,9.3 406.6,9.7 409,9.5 C411.3,9.5 413.6,9.3 413.6,9.3 C413.8,9.5 413.8,10.4 413.6,10.5 C413.4,10.7 413.1,10.7 412.5,10.7 C411.8,10.5 410.6,10.7 410.6,13.4 L410.6,28.9 C410.6,30.3 410.8,31 412.4,31 L416.4,31 C419.6,31 420.8,30.3 421.7,27.1 C422.1,26.4 422.1,25.5 422.2,25.5 C422.4,25.3 423.3,25.1 423.6,25.5 C423.6,25.9 423.4,26 422.9,28.2 C422.7,29.4 422.4,32.3 421.8,32.6 C421.4,32.6 419.5,32.3 418.4,32.3 Z" id="Path"></path>
            <path d="M471.5,30.8 L471.5,30.8 C469,31.7 463.4,33.3 458.4,33.3 C448.8,33.5 441.8,26 441.8,17.7 C441.8,9.7 445.7,0.6 459,0.8 C463.7,1 466.7,2 468.5,2 C469.2,2.2 471,2.2 471,2.2 C471,2.2 471.7,10.4 471.5,10.6 C471.3,10.6 469.7,10.8 469.6,10.8 C469.4,10.6 469.4,10.4 469.2,9.9 C469,7.9 468.5,3.1 459.9,2.6 C451.1,1.9 446.8,8.5 447.1,17.2 C447.3,27.2 453.9,31.8 459.9,31.8 C461.8,31.8 463.6,31.6 465.5,30.7 C466,30.5 466.6,30.2 466.9,29.8 C467.1,29.3 467.3,28.2 467.3,28.2 L467.3,22.7 C467.3,19.5 467.3,19 463.4,19 C463,18.8 462.7,19.2 462.3,19 C462.1,18.6 462.1,17.4 462.3,17.2 C462.7,17 464.8,17.7 469,17.6 C473.2,17.6 474.4,17.2 475,17.4 C475.2,17.6 475.2,18.8 475,18.8 C475,19 474.5,19 473.6,18.8 C471.1,19.3 471.7,21.1 471.7,22.7 L471.7,30.8 L471.5,30.8 Z" id="Path"></path>
            <path d="M535.8,9.3 L535.8,9.3 C536,9.3 537.7,9.7 540.2,9.7 C542.7,9.7 544.8,9.2 544.9,9.3 C545.3,9.7 545.1,10.4 544.9,10.5 C544.2,10.9 541.7,9.4 541.7,13.9 L541.7,24 C541.7,30 543.5,31.5 548.5,31.5 C552.5,31.5 554.8,28.8 554.8,23.5 L554.8,14 C554.8,11.3 554.1,10.6 552.5,10.6 C552.1,10.6 551.8,10.6 551.8,10.6 C551.6,10.4 551.6,9.5 551.8,9.4 C552,9.4 553.9,9.6 555.8,9.6 C557.7,9.6 559.3,9.2 559.5,9.4 C559.7,9.6 559.7,10.5 559.5,10.5 C559.5,10.7 559,10.7 558.6,10.7 C556.8,10.9 556.5,11.8 556.5,14.1 L556.5,24.1 C556.5,30.7 553.9,33.3 547.4,33.3 C539.9,33.3 538.1,29.6 538.1,24.4 L538.1,13.7 C538.1,11.9 538.1,10.9 536.5,10.7 C536.3,10.7 535.8,10.9 535.4,10.7 C535.6,10.4 535.2,9.5 535.8,9.3 Z" id="Path"></path>
            <path d="M259,32.4 L259,32.4 C258.8,32.4 256.9,32 254.6,32 C252.1,32 250.2,32.4 249.7,32.4 C249.3,32.4 249,31.3 249.7,31.2 C250.4,30.8 252.7,31.7 252.5,28.5 L252.5,12.9 C252.5,10.2 250.6,10.8 249.3,10.6 C248.9,10.4 249.1,9.4 249.3,9.4 C249.5,9.2 251.9,9.6 254.4,9.6 C256.7,9.6 258.8,9.2 259,9.2 C259.4,9.4 259.4,10.4 259,10.6 C258.6,10.8 256,9.5 256,13.1 L256,28.9 C256,31.7 258.3,30.9 259.2,31.2 C259.5,31.4 259.5,32.3 259,32.4 Z" id="Path"></path>
            <path d="M271.7,13.6 L271.7,13.6 C271.7,13.6 271.5,13.4 271.2,13.6 C270.7,13.6 270.8,13.8 270.8,13.8 L270.8,27.5 C270.8,30.5 271,30.9 272.7,31.1 C273.2,31.3 273.6,30.9 274.1,31.3 C274.3,31.5 274.3,32.2 273.9,32.5 C273.5,32.5 272,32.3 270,32.3 C268.2,32.3 266.8,32.7 266.3,32.3 C265.8,32.1 265.9,31.2 266.1,31.2 C266.3,31 266.6,31.2 267,31.2 C267.9,31.2 269.1,31.2 269.1,27.8 L269.1,11.8 C268.9,11.4 269.1,11.1 268.6,10.7 C267.5,10.2 267,10.7 266.5,10.3 C266,9.9 266.1,9.2 266.3,9.1 C266.8,8.9 268.1,9.3 269.5,9.3 C270.7,9.3 271.4,9.1 272,9.3 C272.5,9.3 273.1,10 273.1,10 L285.5,24.9 C285.5,24.9 285.9,25.3 286.2,25.1 C286.7,25.1 286.7,24 286.7,24 L286.7,13.7 C286.7,9.1 284.2,11 283.5,10.3 C283.3,10.1 283.3,9.2 283.5,9.2 C283.9,9 285.4,9.4 287.2,9.4 C289.1,9.4 290.7,9 290.9,9 C291.3,9.4 291.3,10.2 291.1,10.2 C289.7,10.6 288.3,9.5 288.3,13.6 L288.3,31.7 C288.3,31.7 288.3,32.6 288.1,32.6 C287.9,32.6 287.6,32.6 287.2,32.2 C286.7,31.3 286.1,30.6 286.1,30.6 L271.7,13.6 Z" id="Path"></path>
            <path d="M328.6,13.6 L328.6,13.6 C328.6,13.6 328.6,13.4 328.2,13.6 C327.7,13.6 327.8,13.8 327.8,13.8 L327.8,27.5 C327.8,30.5 328,30.9 329.7,31.1 C330.2,31.3 330.6,30.9 330.9,31.3 C331.3,31.5 331.3,32.2 330.7,32.5 C330.5,32.5 328.8,32.3 327,32.3 C325.2,32.3 323.8,32.7 323.1,32.3 C322.7,32.1 322.9,31.2 323.1,31.2 C323.3,31 323.6,31.2 323.8,31.2 C324.9,31.2 326.1,31.2 326.1,27.8 L325.9,11.8 C325.9,11.4 325.9,11.1 325.4,10.7 C324.5,10.2 324,10.7 323.3,10.3 C322.9,9.9 322.9,9.2 323.1,9.1 C323.8,8.9 325,9.3 326.4,9.3 C327.6,9.3 328.3,9.1 328.9,9.3 C329.3,9.3 330,10 330,10 L342.4,24.9 C342.4,24.9 342.6,25.3 343.1,25.1 C343.6,25.1 343.6,24 343.6,24 L343.6,13.7 C343.6,9.1 341,11 340.4,10.3 C340.2,10.1 340.2,9.2 340.4,9.2 C340.8,9 342.3,9.4 344.1,9.4 C345.9,9.4 347.6,9 347.8,9 C348.2,9.4 348.2,10.2 347.8,10.2 C346.6,10.6 345,9.5 345,13.6 L345.2,31.7 C345.2,31.7 345.2,32.6 344.8,32.6 C344.6,32.6 344.4,32.6 344.1,32.2 C343.4,31.3 342.9,30.6 342.9,30.6 L328.6,13.6 Z" id="Path"></path>
            <path d="M353.5,9.5 L353.5,9.5 C353.9,9.3 354.7,9.5 355.1,9.5 C355.3,9.7 356,9.7 356.9,9.7 L369.2,9.5 C371,9.5 371.3,9.7 371.8,9.5 C371.8,9.5 372.5,9.1 372.9,9.5 C372.9,9.5 372.7,10.7 372.9,12 C372.9,13.4 373.3,15 373.1,15.2 C372.9,15.4 372.2,15.7 371.7,15.4 C371.5,15.2 371.7,13.6 371.3,12.6 C370.8,11.5 369.9,11 368.8,11 L365.8,11 C365.8,11 365.4,11 365.1,11.4 C364.7,11.6 364.7,12.1 364.7,12.1 L364.9,28.6 C364.9,32.7 367.7,30.9 368.4,31.3 C368.6,31.5 368.6,32.4 368.4,32.5 C368.2,32.7 365.8,32.3 363.1,32.3 C360.8,32.3 358,32.7 357.8,32.5 C357.4,32.3 357.4,31.4 357.6,31.3 C358.7,30.8 361.1,32.5 361.1,28.6 L361.1,12 C361.1,12 361.1,11.5 360.9,11.1 C360.5,10.9 360,10.9 360,10.9 L357.2,10.9 C353.9,10.9 354.9,14.3 354.4,15 C354.2,15.2 353.2,15.2 353.2,15.2 C353.1,15 353.3,9.5 353.5,9.5 Z" id="Path"></path>
            <path d="M486.7,20.5 L486.7,20.5 C487.1,20.7 488.3,20.5 489,20.5 C491.6,20.5 495,20.1 495,15.7 C495,12.3 494.3,10.4 488.2,10.7 C487.5,10.7 487,10.9 486.6,11.2 C486.4,11.5 486,20 486.7,20.5 Z M486.4,29.2 L486.4,29.2 C486.4,30.4 487.1,31.2 488.2,31.2 C488.2,31.2 489.1,30.8 489.4,31.2 C489.8,31.4 489.8,32.3 489.2,32.4 C489,32.4 486.9,32.2 484.8,32.2 C482.5,32.2 480.2,32.6 480.1,32.4 C479.9,32.2 479.7,31.5 480.1,31.2 C480.6,30.8 481,31.2 481,31.2 C482.4,31.2 482.9,31 482.9,28.9 L482.9,13.4 C482.9,11.4 482.5,10.6 480.8,10.6 C480.8,10.6 480.3,10.6 479.9,10.4 C479.7,10.2 479.5,9.7 480.1,9.3 C480.5,9.1 482.7,9.7 484.3,9.7 C486.6,9.7 486.4,9.3 488.9,9.3 C496.6,9.3 498.9,10.9 498.9,15.2 C499.1,20 495.4,20.2 493.8,20.9 C493.4,21.1 493.4,21.8 493.8,22 C494.7,22.5 495.7,23.2 496.3,24.1 C497.4,25.7 498.8,29.6 499.1,30 C500.5,31.8 501.9,30.9 502.1,31.2 C502.5,31.6 502.5,32.1 502.1,32.3 C502.1,32.5 500.7,32.5 499.8,32.5 C496.1,32.5 495.4,30.9 494.9,30 C494.4,28.8 494.4,28.4 493.3,25.9 C492.2,23.6 491.9,22.9 491,22.3 C490.1,21.8 489.2,21.6 488.2,21.6 C487.3,21.6 487,21.6 486.4,22.1 L486.4,29.2 L486.4,29.2 Z" id="Shape" fill-rule="nonzero"></path>
            <path d="M518.1,31.9 L518.1,31.9 C523,31.9 526,27.1 526,21.1 C526,14.7 523,10.6 517.8,10.6 C512.9,10.6 510.3,15 510.3,21.3 C510.2,28.4 513.7,31.9 518.1,31.9 Z M518.2,9.3 L518.2,9.3 C525.9,9.3 529.8,15 529.8,21.2 C529.8,27.6 525.9,32.9 518.1,32.9 C510.7,32.9 506.2,28.1 506.2,21.7 C506.2,14.7 510.9,9.3 518.2,9.3 Z" id="Shape" fill-rule="nonzero"></path>
            <path d="M570.2,22 L570.2,22 C570.7,22 571.4,22.4 573,22.4 C576.7,22.4 579.1,20.4 579.1,16.4 C579.1,13.6 577.3,10.9 572.6,10.9 C572.2,10.9 571.5,10.9 571,11.1 C570.3,11.3 570.5,11.1 570.1,11.6 L570.1,22 L570.2,22 Z M570.4,29.4 L570.4,29.4 C570.4,31 571.3,31.5 572.7,31.5 C572.7,31.5 573.6,31.3 573.8,31.5 C574,31.5 574,32.4 573.8,32.6 C573.6,32.6 571.3,32.6 569.1,32.6 C566.5,32.6 564.2,32.8 563.8,32.6 C563.6,32.4 563.6,31.7 563.6,31.5 C563.8,31.3 564.1,31.3 564.7,31.3 C566.5,31.5 567.2,31.1 567.2,29.3 L567.2,12.6 C567.2,11.2 566.7,10.6 565.4,10.6 C565.4,10.6 564.7,10.6 564.3,10.4 C564.1,10.2 564.1,9.5 564.5,9.3 C565,8.9 567,9.7 568.7,9.5 C570.5,9.5 572.2,9.3 573.1,9.3 C579.9,9.5 582.9,12 582.9,15.7 C582.9,20 579.6,23.5 574.3,23.5 C573.4,23.5 572.2,23.3 571.1,23.1 C570.7,23.1 570.4,23.3 570.4,24 L570.4,29.4 L570.4,29.4 Z" id="Shape" fill-rule="nonzero"></path>
        </g>
    </g>
</svg>