<?xml version="1.0" encoding="UTF-8"?>
<svg width="93px" height="86px" viewBox="0 0 93 86" version="1.1" xmlns="http://www.w3.org/2000/svg" xmlns:xlink="http://www.w3.org/1999/xlink">
    <!-- Generator: Sketch 56.3 (81716) - https://sketch.com -->
    <title>Branding/ICG-Symbol</title>
    <desc>Created with Sketch.</desc>
    <g id="Branding/ICG-Symbol" stroke="none" stroke-width="1" fill="none" fill-rule="evenodd">
        <path d="M7.78669536,20.1060316 C14.5040383,18.6138574 83.4820817,4.48771923 83.4820817,4.48771923 C87.5539144,3.6294637 89,1.99912035 91,0 C91,0 91.6666667,0 93,0 L92.9453744,12.0217974 L93,54.9134001 L92.8997755,59.233703 C92.8907483,60.6106884 92.1856595,62.2708616 90.1666272,63.667244 C88.9069392,64.5384565 87.080534,65.3269654 84.5821716,65.8006655 L8.64420389,81.4845044 C5.3352017,82.2655545 4,82.9634943 2,86 C2,86 1.33489351,86 0.00468051629,86 L0.0046805327,72.8300044 L-2.84217094e-14,30.9691569 L0.00837570031,29.3201571 C-0.0196333134,27.4346429 0.0782093058,25.1629775 1.86043262,23.1772577 C2.95943115,21.9527742 4.74405985,20.7819152 7.78669536,20.1060316 Z" id="Path" fill="#FFFFFF"></path>
        <path d="M8.22182521,22.0465632 C14.9362776,20.5498891 83.8846847,6.38137472 83.8846847,6.38137472 C88.8954701,5.38359202 90.0980586,4.0864745 90.7995686,3.0886918 C91,2.88913525 91,3.0886918 91,3.0886918 L90.8997843,19.4523282 C90.8997843,21.1485588 88.8954701,23.2439024 84.1853319,24.1419069 C79.4751936,25.0399113 61.2359347,28.3325942 61.2359347,28.3325942 C62.0376604,21.8470067 54.7219137,16.1596452 47.7068142,20.1507761 C38.3867533,12.6674058 27.864104,25.3392461 36.1820077,33.8203991 L28.9664768,35.4168514 C25.2584956,34.4190687 22.2520243,35.2172949 19.8468473,37.4124169 L8.22182521,39.7073171 C4.11298118,40.6053215 2.50952986,42.3015521 2.00845132,43 L2.00845132,29.3303769 C2.00845132,27.6341463 1.50737278,23.5432373 8.22182521,22.0465632 Z" id="Path" fill="#68ADDF"></path>
        <path d="M19.0684597,49.1348006 L19.0684597,49.2338377 C18.7691607,49.7290234 16.9733663,53.6905089 18.569628,57.4539202 L8.19392729,59.7317744 C4.10350683,60.6231087 2.50724518,62.30674 2.00841342,63 L2.00841342,49.431912 C2.00841342,47.7482806 1.50958166,43.6877579 8.19392729,42.2022008 C9.49088987,41.9050894 13.0824786,41.1127923 17.9710298,40.0233838 C16.8736,41.607978 17.0731327,45.866575 19.0684597,49.1348006 Z M63.264954,36.4580468 C58.476169,39.7262724 49.69673,45.5694635 49.69673,45.5694635 C47.8011693,46.7579092 47.6016366,44.6781293 48.5993001,43.5887208 C49.4971973,42.5983494 59.4738326,32.5955983 59.4738326,32.5955983 C60.3717297,31.7042641 60.8705615,31.1100413 60.8705615,31.1100413 C73.740421,28.5350757 83.916589,26.3562586 83.916589,26.3562586 C88.9049066,25.3658872 90.1021028,24.0784044 90.8004673,23.088033 C91,22.8899587 91,23.088033 91,23.088033 L90.9002336,39.3301238 C90.9002336,41.0137552 88.9049066,43.0935351 84.215888,43.9848693 C82.4200937,44.480055 78.6289723,45.0742779 74.7380845,45.7675378 C76.3343462,38.2407153 68.0537389,33.1898212 63.264954,36.4580468 Z M39.4207957,53.1953232 L41.9149545,50.2242091 C43.0123844,49.0357634 45.3070105,49.7290234 44.9079451,52.0068776 L39.4207957,53.1953232 Z M47.7014029,51.5116919 C47.2025712,49.1348006 49.2976646,48.6396149 50.6943935,50.7193948 L47.7014029,51.5116919 Z M32.3373846,37.1513067 L38.1238331,35.8638239 C38.1238331,35.8638239 44.0100479,42.9944979 44.8081787,44.0839065 C45.6063095,45.0742779 44.9079451,46.6588721 43.5112161,45.866575 C41.9149545,44.8762036 32.3373846,37.1513067 32.3373846,37.1513067 Z" id="Combined-Shape" fill="#009C56"></path>
        <path d="M73.4812362,49.3273728 C77.7858467,56.8541953 68.7761968,66.9559835 61.1680479,60.6176066 L53.2595774,52.7936726 L48.2542164,53.9821183 L49.1551814,66.5598349 L43.8494986,66.5598349 L45.0507853,54.5763411 L36.9421003,56.2599725 C31.2359887,63.3906465 25.3296626,64.5790922 20.524516,59.7262724 C14.3178682,61.0137552 9.71293602,62.0041265 8.2113277,62.301238 C1.60425107,63.786795 2.00467996,67.8473177 2.00467996,69.5309491 L2.00467996,83 C2.50521607,82.30674 4.00682439,80.7221458 8.2113277,79.7317744 L84.1927089,63.9848693 C88.8977483,63.0935351 90.8998928,61.0137552 90.8998928,59.3301238 L91,43.088033 C91,43.088033 90.8998928,42.8899587 90.7997856,43.088033 C90.099035,43.9793673 88.8977483,45.3658872 83.8923873,46.3562586 C83.9924945,46.4552957 80.3886345,47.2475928 74.6825229,48.4360385 C73.1809145,48.7331499 73.4812362,49.3273728 73.4812362,49.3273728 Z" id="Path" fill="#02539A"></path>
    </g>
</svg>