<?xml version="1.0" standalone="no"?>
<!DOCTYPE svg PUBLIC "-//W3C//DTD SVG 20010904//EN"
 "http://www.w3.org/TR/2001/REC-SVG-20010904/DTD/svg10.dtd">
<svg version="1.0" xmlns="http://www.w3.org/2000/svg"
 width="480.000000pt" height="480.000000pt" viewBox="0 0 480.000000 480.000000"
 preserveAspectRatio="xMidYMid meet">
<metadata>
Created by potrace 1.11, written by Peter Selinger 2001-2013
</metadata>
<g transform="translate(0.000000,480.000000) scale(0.100000,-0.100000)"
fill="#000000" stroke="none">
<path d="M4401 4339 c-98 -91 -203 -135 -411 -172 -14 -3 -106 -21 -205 -42
-99 -20 -189 -38 -199 -41 -11 -2 -65 -13 -120 -25 -56 -11 -110 -23 -121 -25
-11 -2 -87 -17 -170 -34 -82 -17 -161 -33 -175 -36 -14 -3 -77 -16 -140 -29
-63 -13 -126 -26 -140 -29 -14 -2 -50 -10 -80 -16 -30 -6 -66 -13 -78 -16 -13
-3 -99 -20 -190 -39 -92 -19 -178 -36 -192 -39 -14 -3 -81 -16 -150 -31 -69
-14 -134 -27 -145 -29 -11 -2 -31 -7 -45 -10 -14 -3 -37 -8 -53 -10 -15 -3
-35 -7 -45 -10 -9 -3 -28 -7 -42 -10 -26 -5 -360 -74 -395 -82 -11 -2 -36 -7
-55 -10 -19 -3 -48 -9 -65 -14 -16 -4 -48 -11 -70 -15 -67 -12 -85 -15 -149
-30 -33 -8 -72 -16 -86 -19 -14 -2 -45 -9 -70 -15 -25 -5 -61 -13 -80 -16 -97
-16 -222 -50 -277 -75 -79 -36 -155 -107 -190 -179 l-28 -56 -3 -1392 -2
-1393 49 0 c45 0 51 3 70 33 28 45 89 102 136 126 52 26 135 47 420 106 127
26 239 49 250 52 11 2 31 6 45 9 14 2 99 20 190 39 91 19 176 36 190 39 14 2
212 43 440 91 228 47 483 100 565 117 83 16 157 31 165 33 123 26 275 58 310
65 25 5 146 30 270 55 124 26 236 49 250 51 14 3 88 19 165 35 175 37 169 36
235 48 259 51 306 63 392 106 62 30 136 97 165 147 17 31 18 99 21 1441 l2
1407 -47 0 c-45 -1 -53 -5 -112 -61z"/>
</g>
</svg>
