<?xml version="1.0" encoding="utf-8"?>
<!-- Generator: Adobe Illustrator 23.0.6, SVG Export Plug-In . SVG Version: 6.00 Build 0)  -->
<svg version="1.1" id="Layer_1" xmlns="http://www.w3.org/2000/svg" xmlns:xlink="http://www.w3.org/1999/xlink" x="0px" y="0px"
	 viewBox="0 0 100 100" style="enable-background:new 0 0 100 100;" xml:space="preserve">
<style type="text/css">
	.st0{display:none;}
	.st1{display:inline;}
	.st2{fill-rule:evenodd;clip-rule:evenodd;fill:#009C56;}
	.st3{fill:none;stroke:#000000;stroke-width:2;stroke-linecap:round;stroke-linejoin:round;stroke-miterlimit:10;}
</style>
<g class="st0">
	<title>Icons/Cost-Icon</title>
	<desc>Created with Sketch.</desc>
	<g class="st1">
		<g id="Group-5" transform="translate(10.000000, 7.000000)">
			<path id="Fill-1" class="st2" d="M26,41.7c-1.8,0-3.3,1.5-3.3,3.3s1.5,3.3,3.3,3.3s3.3-1.5,3.3-3.3S27.8,41.7,26,41.7z M25.5,45
				c0-0.3,0.2-0.5,0.5-0.5s0.5,0.2,0.5,0.5C26.5,45.5,25.5,45.5,25.5,45L25.5,45z"/>
			<path id="Fill-2" class="st2" d="M38.4,25.5c4.1,0,7.5-3.4,7.5-7.5s-3.4-7.5-7.5-7.5S31,13.9,31,18C31,22.2,34.3,25.5,38.4,25.5z
				 M38.4,13.4c2.6,0,4.7,2.1,4.7,4.7s-2.1,4.7-4.7,4.7c-2.6,0-4.7-2.1-4.7-4.7S35.8,13.4,38.4,13.4z"/>
			<path id="Fill-3" class="st2" d="M45.9,34.2c-0.1-0.1-3.3-1.6-7-1.8c-3.5-0.2-6.7,0.9-6.9,0.9c-0.7,0.2-1.1,1-0.9,1.8
				c0.2,0.7,1,1.1,1.8,0.9c0,0,2.9-0.9,5.9-0.8c3.1,0.2,5.9,1.5,5.9,1.5c0.2,0.1,0.4,0.1,0.6,0.1c0.5,0,1-0.3,1.3-0.8
				C46.8,35.4,46.5,34.5,45.9,34.2L45.9,34.2z"/>
			<path id="Fill-4" class="st2" d="M69.6,43.7c-1.3-1.5-3.2-1.7-5-1.3c1-1.6,2.9-2.1,2.9-2.1c0.7-0.2,1.2-0.9,1-1.7
				c-0.2-0.7-0.9-1.2-1.7-1c-0.1,0-3.1,0.7-4.7,3.4c-0.5,0.8-0.8,1.7-0.9,2.7c-0.4,0.2-0.8,0.4-1.1,0.7C57.8,35,48.6,27.9,37.6,27.9
				c-3.6,0-7.1,0.8-10.3,2.2L19.5,24c-0.5-0.4-1.2-0.4-1.7,0s-0.7,1-0.5,1.6l3.2,9.2c-2.3,2.3-4,5-5,8l-4.6,2
				c-0.5,0.2-0.8,0.7-0.8,1.3V52c0,0.6,0.3,1.1,0.8,1.3l4.6,2c1.5,4.3,4.4,8.1,8.4,10.8l1,6.1c0.1,0.7,0.7,1.2,1.4,1.2h6.1
				c0.7,0,1.3-0.5,1.4-1.2l0.4-2.3c2.3,0.3,4.6,0.3,7,0l0.4,2.3c0.1,0.7,0.7,1.2,1.4,1.2h6.1c0.7,0,1.3-0.5,1.4-1.2l1-6.1
				c5.9-4,9.4-10.3,9.4-17.1c0-0.6,0-1.1-0.1-1.7c0.3-0.2,0.5-0.4,0.8-0.6c0,0.1,0.1,0.2,0.1,0.4c0.6,2.4,2.1,3.9,4.2,4.2
				c0.2,0,0.4,0,0.5,0c1.8,0,3.5-1,4.2-2.5C71.3,47.2,71,45.3,69.6,43.7L69.6,43.7z M49.2,64.1c-0.3,0.2-0.6,0.6-0.6,1l-0.9,5.6H44
				l-0.4-2.5c-0.1-0.4-0.3-0.7-0.6-0.9c-0.3-0.3-0.7-0.4-1-0.3c-2.9,0.6-5.8,0.6-8.8,0c-0.4-0.1-0.8,0-1.1,0.2s-0.5,0.6-0.6,0.9
				l-0.4,2.5h-3.7L26.5,65c-0.1-0.4-0.3-0.7-0.6-1c-3.9-2.5-6.7-6.1-7.9-10.2c-0.1-0.4-0.4-0.7-0.8-0.9L12.9,51v-4l4.3-1.9
				c0.4-0.2,0.7-0.5,0.8-0.9c0.9-3,2.7-5.8,5.1-8c0.4-0.4,0.6-1,0.4-1.5l-1.9-5.5l4.7,3.7c0.4,0.3,1,0.4,1.5,0.1
				c3-1.5,6.4-2.3,9.9-2.3c11.2,0,20.3,8.2,20.3,18.4C57.9,55,54.7,60.7,49.2,64.1L49.2,64.1z M68,47.6c-0.3,0.7-1.2,1.1-2,1
				c-1.1-0.1-1.6-1.2-1.8-2.1c-0.1-0.3-0.1-0.7-0.2-1c1.4-0.5,2.8-0.7,3.5,0.1C68.1,46.3,68.3,47,68,47.6L68,47.6z"/>
		</g>
	</g>
</g>
<g>
	<path class="st3" d="M68.7,55.8c0-10.8-9.6-19.5-21.4-19.5c-3.6,0-7.1,0.8-10.1,2.3l-6.6-4.8c-1-0.8-1.5-0.4-1.1,0.8l2.7,7.4
		c-2.6,2.4-4.5,5.4-5.5,8.8l-4,1.7c-0.5,0.2-0.9,0.8-0.9,1.4v3.9c0,0.5,0.4,1.2,0.9,1.4l4,1.7c1.3,4.5,4.4,8.4,8.5,11l1,6.1
		c0.1,0.5,0.6,1,1.1,1h3.9c0.5,0,1.1-0.4,1.1-1l0.5-3.1c1.5,0.3,3,0.5,4.5,0.5s3.1-0.2,4.5-0.5l0.5,3.1c0.1,0.5,0.6,1,1.1,1h3.9
		c0.5,0,1.1-0.4,1.1-1l1-6.1C65.1,68.3,68.7,62.4,68.7,55.8z"/>
	<circle class="st3" cx="36.2" cy="51.9" r="2.4"/>
	<circle class="st3" cx="47.4" cy="25.4" r="6.5"/>
	<path class="st3" d="M54.9,42.6c-2.2-1.1-4.8-1.7-7.5-1.7s-5.2,0.6-7.4,1.7"/>
	<path class="st3" d="M68.6,53.9c1.9-2,4.7-3.4,7.7-3.4c1.8,0,3.2,1.4,3.2,3.2s-1.4,3.2-3.2,3.2c-2.8,0-4.2-2.3-4.2-5.1
		s1.2-4.8,3.8-5.9"/>
</g>
</svg>
