<?xml version="1.0" encoding="utf-8"?>
<!-- Generator: Adobe Illustrator 23.0.6, SVG Export Plug-In . SVG Version: 6.00 Build 0)  -->
<svg version="1.1" id="Layer_1" xmlns="http://www.w3.org/2000/svg" xmlns:xlink="http://www.w3.org/1999/xlink" x="0px" y="0px"
	 viewBox="0 0 100 100" style="enable-background:new 0 0 100 100;" xml:space="preserve">
<style type="text/css">
	.st0{fill:none;stroke:#000000;stroke-width:2;stroke-linecap:round;stroke-linejoin:round;stroke-miterlimit:10;}
</style>
<circle class="st0" cx="50" cy="28.6" r="9.2"/>
<path class="st0" d="M46.4,32.2c2,2,5.2,2,7.2,0"/>
<path class="st0" d="M33.7,56.7c-1.8,0-3.3-1.5-3.3-3.3c0-6.7,7.4-12.2,14.2-12.2h10.7c6.7,0,14.2,5.5,14.2,12.2
	c0,1.8-1.5,3.3-3.3,3.3H33.7z"/>
<path class="st0" d="M53.9,72.9l0.7,4.3c0.1,0.6-0.3,0.9-0.8,0.6l-3.8-2l-3.8,2c-0.5,0.3-0.9,0-0.8-0.6l0.7-4.3l-3.1-3
	c-0.4-0.4-0.3-0.8,0.3-0.9l4.3-0.6l1.9-3.9c0.3-0.5,0.7-0.5,1,0l1.9,3.9l4.3,0.6c0.6,0.1,0.7,0.5,0.3,0.9L53.9,72.9z"/>
<path class="st0" d="M23.4,72.9l-0.7,4.3c-0.1,0.6,0.3,0.9,0.8,0.6l3.8-2l3.8,2c0.5,0.3,0.9,0,0.8-0.6l-0.7-4.3l3.1-3
	c0.4-0.4,0.3-0.8-0.3-0.9l-4.3-0.6l-1.9-3.9c-0.3-0.5-0.7-0.5-1,0l-1.9,3.9L20.6,69c-0.6,0.1-0.7,0.5-0.3,0.9L23.4,72.9z"/>
<path class="st0" d="M76.6,72.9l0.7,4.3c0.1,0.6-0.3,0.9-0.8,0.6l-3.8-2l-3.8,2c-0.5,0.3-0.9,0-0.8-0.6l0.7-4.3l-3.1-3
	c-0.4-0.4-0.3-0.8,0.3-0.9l4.3-0.6l1.9-3.9c0.3-0.5,0.7-0.5,1,0l1.9,3.9l4.3,0.6c0.6,0.1,0.7,0.5,0.3,0.9L76.6,72.9z"/>
</svg>
