<?xml version="1.0" encoding="utf-8"?>
<!-- Generator: Adobe Illustrator 23.0.6, SVG Export Plug-In . SVG Version: 6.00 Build 0)  -->
<svg version="1.1" id="Layer_1" xmlns="http://www.w3.org/2000/svg" xmlns:xlink="http://www.w3.org/1999/xlink" x="0px" y="0px"
	 viewBox="0 0 100 100" style="enable-background:new 0 0 100 100;" xml:space="preserve">
<style type="text/css">
	.st0{fill:none;stroke:#000000;stroke-width:2;stroke-linecap:round;stroke-linejoin:round;stroke-miterlimit:10;}
</style>
<circle class="st0" cx="50" cy="50" r="48"/>
<path class="st0" d="M35.5,67.3c1.1,1.1,2.9,1.1,4,0s2.9-1.1,4,0s2.9,1.1,4,0s2.9-1.1,4,0"/>
<path class="st0" d="M51.2,71.1c1.1,1.1,2.9,1.1,4,0s2.9-1.1,4,0s2.9,1.1,4,0c1.1-1.1,2.9-1.1,4,0"/>
<polygon class="st0" points="75.8,61.8 24.2,61.8 20,49 80,49 "/>
<polyline class="st0" points="71.6,49 65.7,39.3 26.2,39.3 26.2,49 "/>
<polyline class="st0" points="57.8,39.3 52.8,30.9 28.8,30.9 28.8,39.3 "/>
<line class="st0" x1="22.5" y1="56.5" x2="77.2" y2="56.5"/>
<path class="st0" d="M34.5,35.1c0,0-0.4,0-0.9,0s-0.9,0-0.9,0s0.4,0,0.9,0S34.5,35.1,34.5,35.1z"/>
<path class="st0" d="M39.9,35.1c0,0-0.4,0-0.9,0s-0.9,0-0.9,0s0.4,0,0.9,0S39.9,35.1,39.9,35.1z"/>
<path class="st0" d="M50.8,35.1c0,0-0.4,0-0.9,0s-0.9,0-0.9,0s0.4,0,0.9,0C50.4,35.1,50.8,35.1,50.8,35.1z"/>
<path class="st0" d="M45.4,35.1c0,0-0.4,0-0.9,0s-0.9,0-0.9,0s0.4,0,0.9,0C44.9,35.1,45.4,35.1,45.4,35.1z"/>
<path class="st0" d="M32.3,44.2c0,0-0.4,0-0.9,0s-0.9,0-0.9,0s0.4,0,0.9,0S32.3,44.2,32.3,44.2z"/>
<path class="st0" d="M38.3,44.2c0,0-0.4,0-0.9,0s-0.9,0-0.9,0s0.4,0,0.9,0C37.9,44.2,38.3,44.2,38.3,44.2z"/>
<path class="st0" d="M50.3,44.2c0,0-0.4,0-0.9,0s-0.9,0-0.9,0s0.4,0,0.9,0C49.9,44.2,50.3,44.2,50.3,44.2z"/>
<path class="st0" d="M44.3,44.2c0,0-0.4,0-0.9,0s-0.9,0-0.9,0s0.4,0,0.9,0C43.9,44.2,44.3,44.2,44.3,44.2z"/>
<path class="st0" d="M62.3,44.2c0,0-0.4,0-0.9,0s-0.9,0-0.9,0s0.4,0,0.9,0C61.9,44.2,62.3,44.2,62.3,44.2z"/>
<path class="st0" d="M56.3,44.2c0,0-0.4,0-0.9,0s-0.9,0-0.9,0s0.4,0,0.9,0S56.3,44.2,56.3,44.2z"/>
</svg>
