<?xml version="1.0" encoding="utf-8"?>
<!-- Generator: Adobe Illustrator 23.0.6, SVG Export Plug-In . SVG Version: 6.00 Build 0)  -->
<svg version="1.1" id="Layer_1" xmlns="http://www.w3.org/2000/svg" xmlns:xlink="http://www.w3.org/1999/xlink" x="0px" y="0px"
	 viewBox="0 0 100 100" style="enable-background:new 0 0 100 100;" xml:space="preserve">
<style type="text/css">
	.st0{display:none;}
	.st1{display:inline;}
	.st2{fill-rule:evenodd;clip-rule:evenodd;fill:#009C56;}
	.st3{fill:none;stroke:#000000;stroke-width:2;stroke-linecap:round;stroke-linejoin:round;stroke-miterlimit:10;}
</style>
<g class="st0">
	<title>Icons/Growth-Icon</title>
	<desc>Created with Sketch.</desc>
	<g class="st1">
		<g id="Group-8" transform="translate(17.000000, 4.000000)">
			<path id="Fill-1" class="st2" d="M32.6,81.4c-10.9,0-22.5-3.1-22.5-8.8v-7.4h3v7.4c0,2.4,7.6,5.9,19.5,5.9s19.5-3.5,19.5-5.9
				v-7.4h3v7.4C55.1,78.3,43.5,81.4,32.6,81.4L32.6,81.4z"/>
			<path id="Fill-2" class="st2" d="M32.6,72.5c-10.9,0-22.5-3.1-22.5-8.8v-7.4h3v7.4c0,2.4,7.6,5.9,19.5,5.9s19.5-3.5,19.5-5.9
				v-7.4h3v7.4C55.1,69.4,43.5,72.5,32.6,72.5L32.6,72.5z"/>
			<path id="Fill-3" class="st2" d="M32.6,63.7c-10.9,0-22.5-3.1-22.5-8.8v-7.4h3v7.4c0,2.4,7.6,5.9,19.5,5.9s19.5-3.5,19.5-5.9
				v-7.4h3v7.4C55.1,60.6,43.5,63.7,32.6,63.7L32.6,63.7z"/>
			<path id="Fill-4" class="st2" d="M32.6,54.8c-10.9,0-22.5-3.1-22.5-8.8s11.5-8.8,22.5-8.8s22.5,3.1,22.5,8.8S43.5,54.8,32.6,54.8
				z M32.6,40.1c-11.8,0-19.5,3.5-19.5,5.9s7.6,5.9,19.5,5.9s19.5-3.5,19.5-5.9S44.4,40.1,32.6,40.1z"/>
			<path id="Fill-5" class="st2" d="M32.6,46c-0.9,0-1.5-0.6-1.5-1.5V25.4c0-0.9,0.6-1.5,1.5-1.5c0.9,0,1.5,0.6,1.5,1.5v19.1
				C34.1,45.3,33.5,46,32.6,46z"/>
			<path id="Fill-6" class="st2" d="M34.7,32.7h-1.3c-0.9,0-1.5-0.6-1.5-1.5v-1.3c0-7.4,6.1-13.4,13.6-13.4h1.3
				c0.9,0,1.5,0.6,1.5,1.5v1.3C48.3,26.7,42.2,32.7,34.7,32.7z M45.3,19.5c-5.7,0-10.5,4.7-10.5,10.3C40.5,29.8,45.3,25.1,45.3,19.5
				z"/>
			<path id="Fill-7" class="st2" d="M31.8,26.9h-1.3c-7.5,0-13.6-6-13.6-13.4v-1.3c0-0.9,0.6-1.5,1.5-1.5h1.3
				c7.5,0,13.6,6,13.6,13.4v1.3C33.3,26.3,32.7,26.9,31.8,26.9z M19.9,13.6c0,5.6,4.8,10.3,10.5,10.3C30.3,18.3,25.6,13.7,19.9,13.6
				z"/>
		</g>
	</g>
</g>
<g>
	<circle class="st3" cx="50" cy="50" r="48"/>
	<g>
		<line class="st3" x1="50" y1="33" x2="50" y2="48.5"/>
		<path class="st3" d="M50,38.5c0-7.2,5.8-13,13-13C63,32.7,57.2,38.5,50,38.5z"/>
		<path class="st3" d="M50,33c0-7.2-5.8-13-13-13C37,27.1,42.8,33,50,33z"/>
		<path class="st3" d="M30.8,48.5c0,3.3,8.6,6,19.2,6s19.2-2.7,19.2-6"/>
		<path class="st3" d="M30.8,65.5c0,3.3,8.6,6,19.2,6s19.2-2.7,19.2-6"/>
		<path class="st3" d="M30.8,57c0,3.3,8.6,6,19.2,6s19.2-2.7,19.2-6"/>
		<path class="st3" d="M30.8,73.1V48.5c0-3.3,8.6-6,19.2-6s19.2,2.7,19.2,6v24.6c0,3.3-8.6,6.9-19.2,6.9S30.8,76.4,30.8,73.1z"/>
	</g>
</g>
</svg>
