<?xml version="1.0" encoding="utf-8"?>
<!-- Generator: Adobe Illustrator 23.0.6, SVG Export Plug-In . SVG Version: 6.00 Build 0)  -->
<svg version="1.1" id="Layer_1" xmlns="http://www.w3.org/2000/svg" xmlns:xlink="http://www.w3.org/1999/xlink" x="0px" y="0px"
	 viewBox="0 0 100 100" style="enable-background:new 0 0 100 100;" xml:space="preserve">
<style type="text/css">
	.st0{fill:none;stroke:#000000;stroke-width:2;stroke-linecap:round;stroke-linejoin:round;}
</style>
<circle class="st0" cx="50" cy="50" r="17"/>
<circle class="st0" cx="50" cy="43.8" r="5.1"/>
<path class="st0" d="M61.9,62.1c-2.2-5.7-6.7-9.7-11.9-9.7s-9.7,3.9-11.9,9.7"/>
<line class="st0" x1="66.2" y1="33.8" x2="74.7" y2="25.3"/>
<polyline class="st0" points="74.7,30.8 74.7,25.3 69.2,25.3 "/>
<line class="st0" x1="72.9" y1="50" x2="85" y2="50"/>
<polyline class="st0" points="81.1,53.9 85,50 81.1,46.1 "/>
<line class="st0" x1="66.2" y1="66.2" x2="74.7" y2="74.7"/>
<polyline class="st0" points="69.2,74.7 74.7,74.7 74.7,69.2 "/>
<line class="st0" x1="50" y1="72.9" x2="50" y2="85"/>
<polyline class="st0" points="46.1,81.1 50,85 53.9,81.1 "/>
<line class="st0" x1="33.8" y1="66.2" x2="25.3" y2="74.7"/>
<polyline class="st0" points="25.3,69.2 25.3,74.7 30.8,74.7 "/>
<line class="st0" x1="27.1" y1="50" x2="15" y2="50"/>
<polyline class="st0" points="18.9,46.1 15,50 18.9,53.9 "/>
<line class="st0" x1="33.8" y1="33.8" x2="25.3" y2="25.3"/>
<polyline class="st0" points="30.8,25.3 25.3,25.3 25.3,30.8 "/>
<line class="st0" x1="50" y1="27.1" x2="50" y2="15"/>
<polyline class="st0" points="53.9,18.9 50,15 46.1,18.9 "/>
</svg>
