<?xml version="1.0" encoding="utf-8"?>
<!-- Generator: Adobe Illustrator 23.0.6, SVG Export Plug-In . SVG Version: 6.00 Build 0)  -->
<svg version="1.1" id="Layer_1" xmlns="http://www.w3.org/2000/svg" xmlns:xlink="http://www.w3.org/1999/xlink" x="0px" y="0px"
	 viewBox="0 0 100 100" style="enable-background:new 0 0 100 100;" xml:space="preserve">
<style type="text/css">
	.st0{fill:none;stroke:#000000;stroke-width:2;stroke-linecap:round;stroke-linejoin:round;stroke-miterlimit:10;}
</style>
<path class="st0" d="M58,53.9h8.4c0.5,0,1.2,0.4,1.5,0.8l11.4,17.8c1.5,2.3,0.4,4.1-2.3,4.1H22.9c-2.7,0-3.7-1.9-2.3-4.1L32,54.7
	c0.3-0.5,1-0.8,1.5-0.8H42"/>
<circle class="st0" cx="50" cy="37" r="9.5"/>
<path class="st0" d="M50,63.1c0.4,0,0.9-0.2,1.2-0.6L61.9,49c3-3.8,4.9-7.6,4.9-11.9s-1.6-8.6-4.9-11.9c-3.3-3.3-7.6-4.9-11.9-4.9
	s-8.6,1.6-11.9,4.9c-3.3,3.3-4.9,7.6-4.9,11.9s2,8.2,4.9,11.9l10.7,13.5C49.1,62.9,49.6,63.1,50,63.1L50,63.1z"/>
</svg>
