<?xml version="1.0" encoding="utf-8"?>
<!-- Generator: Adobe Illustrator 23.0.6, SVG Export Plug-In . SVG Version: 6.00 Build 0)  -->
<svg version="1.1" id="Layer_1" xmlns="http://www.w3.org/2000/svg" xmlns:xlink="http://www.w3.org/1999/xlink" x="0px" y="0px"
	 viewBox="0 0 100 100" style="enable-background:new 0 0 100 100;" xml:space="preserve">
<style type="text/css">
	.st0{fill:none;stroke:#000000;stroke-width:2;stroke-linecap:round;stroke-linejoin:round;stroke-miterlimit:10;}
</style>
<circle class="st0" cx="50" cy="50" r="48"/>
<path class="st0" d="M80.1,53.3v-6.5l-4.8-1.2c-0.3-1.5-0.6-2.9-1.1-4.3l3.6-3.5l-3.3-5.7l-4.8,1.4c-1-1.1-2-2.2-3.1-3.1l1.4-4.8
	l-5.7-3.2L58.7,26c-1.4-0.5-2.8-0.9-4.3-1.1l-1.2-4.8h-6.5l-1.2,4.8c-1.5,0.3-2.9,0.6-4.3,1.1l-3.5-3.6l-5.6,3.2l1.4,4.8
	c-1.1,1-2.2,2-3.1,3.1l-4.8-1.4l-3.2,5.7l3.6,3.5c-0.5,1.4-0.9,2.8-1.1,4.3L20,46.8v6.5l4.8,1.2c0.3,1.5,0.6,2.9,1.1,4.3l-3.6,3.5
	l3.3,5.7l4.8-1.4c1,1.1,2,2.2,3.1,3.1L32,74.4l5.7,3.3l3.5-3.6c1.4,0.5,2.8,0.9,4.3,1.1l1.2,4.8h6.5l1.2-4.8
	c1.5-0.3,2.9-0.6,4.3-1.1l3.5,3.6l5.7-3.3l-1.4-4.8c1.1-1,2.2-2,3.1-3.1l4.8,1.4l3.3-5.7l-3.6-3.5c0.5-1.4,0.9-2.8,1.1-4.3
	L80.1,53.3z"/>
<path class="st0" d="M72.1,50c0-12.2-9.9-22.1-22.1-22.1"/>
<path class="st0" d="M50,72.1c12.2,0,22.1-9.9,22.1-22.1"/>
<path class="st0" d="M27.9,50c0,12.2,9.9,22.1,22.1,22.1"/>
<path class="st0" d="M50,27.9c-12.2,0-22.1,9.9-22.1,22.1"/>
<line class="st0" x1="27.9" y1="50" x2="72.1" y2="50"/>
<line class="st0" x1="50" y1="27.9" x2="50" y2="72.1"/>
<path class="st0" d="M40.8,63.9L36,59.2c-1-1-1-2.5,0-3.5s2.5-1,3.5,0l1.3,1.3l1.3-1.3c1-1,2.5-1,3.5,0s1,2.5,0,3.5L40.8,63.9z"/>
<path class="st0" d="M45.8,45.7v-2.9c0-1-0.5-2.3-1.1-2.9c-0.6-0.6-1.1-1.1-1.1-1.1c1-1,1-2.7,0-3.7s-2.7-1-3.7,0s-1,2.7,0,3.7
	c0,0-0.5,0.5-1.1,1.1s-1.1,1.9-1.1,2.9v2.9H45.8z"/>
<path class="st0" d="M55.8,58.3c0-1.8,1.5-3.2,3.2-3.2c1.8,0,3.2,1.5,3.2,3.2"/>
<path class="st0" d="M55.8,60.5c0,1.8,1.5,3.2,3.2,3.2c1.8,0,3.2-1.5,3.2-3.2"/>
<line class="st0" x1="53.8" y1="58.3" x2="58.7" y2="58.3"/>
<line class="st0" x1="53.8" y1="60.5" x2="58.7" y2="60.5"/>
<line class="st0" x1="54.2" y1="45.7" x2="62.5" y2="45.7"/>
<line class="st0" x1="54.2" y1="36.3" x2="62.5" y2="36.3"/>
<line class="st0" x1="61.6" y1="36.3" x2="55.1" y2="45.7"/>
<line class="st0" x1="61.6" y1="45.7" x2="55.1" y2="36.3"/>
</svg>
