<?xml version="1.0" encoding="utf-8"?>
<!-- Generator: Adobe Illustrator 23.0.6, SVG Export Plug-In . SVG Version: 6.00 Build 0)  -->
<svg version="1.1" baseProfile="tiny" id="Layer_1" xmlns="http://www.w3.org/2000/svg" xmlns:xlink="http://www.w3.org/1999/xlink"
	 x="0px" y="0px" viewBox="0 0 100 100" xml:space="preserve">
<path fill="#68ADDF" d="M93.8,15.4L93.8,15.4c-92.3,26.3-89.6,24-90,26.3s1.3,1.7,18.5,13.8l6.2,27.5v0.2c0,0.2,0,0.2,0.2,0.4
	l0.2,0.2L29,84l0.2,0.2c0,0,0,0,0.2,0.2h0.2h0.2c0.2,0,0.4,0.2,0.6,0.2l0,0l0,0l0,0c0.2,0,0.4,0,0.6-0.2c0,0,0,0,0.2,0
	s0.4-0.2,0.4-0.4l0,0L45,71c18.1,12.1,21.2,15.6,22.5,12.5c29.2-67.3,28.7-65.4,28.7-66.2C96.2,14.8,93.3,15.4,93.8,15.4z
	 M10.4,42.7l67.3-18.8L24.2,52.1L10.4,42.7z M30.2,73.1l-3.3-14.4c0.2,0.2,5.6,3.7,5.2,3.5L30.2,73.1z M27.9,54.6l16.9-9l27.3-14.4
	L34.4,59C34.2,58.8,27.5,54.2,27.9,54.6z M33.5,77.1l2.3-12.5c0.2,0.2,6.7,4.4,6.3,4.2L33.5,77.1z M65.2,79.8
	c-1.7-1.2-22.1-15-27.5-18.5l51.9-38.3L65.2,79.8z"/>
</svg>
