<?xml version="1.0" encoding="utf-8"?>
<!-- Generator: Adobe Illustrator 23.0.6, SVG Export Plug-In . SVG Version: 6.00 Build 0)  -->
<svg version="1.1" baseProfile="tiny" xmlns="http://www.w3.org/2000/svg" xmlns:xlink="http://www.w3.org/1999/xlink" x="0px"
	 y="0px" viewBox="0 0 100 100" xml:space="preserve">
<g id="Layer_2">
</g>
<g id="Layer_1">
	<path fill="#68ADDF" d="M64.3,69.6l-8.5-6.7c-1.3-1.1-3-1.8-4.8-1.9c-2.6-0.2-5,0.8-6.7,2.8c-0.2,0.2-0.5,0.4-0.8,0.4
		c-0.3,0-0.6-0.1-0.9-0.3c-3.5-2.8-6.6-6-9.4-9.4c-0.4-0.5-0.4-1.2,0.1-1.7c2.1-1.8,3.1-4.6,2.7-7.4c-0.2-1.4-0.9-2.8-1.8-4.2
		l-6.7-8.5c-1.6-2-4-3.2-6.5-3.2c-0.6,0-1.1,0.1-1.6,0.2c-2.4,0.5-4.4,1.6-6,3.2c-2.3,2.3-5.6,7.8-1.7,18.4
		c2.6,6.9,7.5,14.1,13.8,20.3c9.7,9.7,20.9,15.7,29.4,15.7c3.9,0,7.1-1.2,9.3-3.5c1.5-1.5,2.6-3.5,3.1-5.7
		C68,75,66.8,71.6,64.3,69.6z M63.1,77.1L63.1,77.1c-0.4,1.5-1,2.7-2,3.7c-1.5,1.5-3.6,2.2-6.3,2.2c-7.3,0-17.6-5.6-26.3-14.4
		c-8.8-8.7-14.4-19.1-14.4-26.4c0-2.7,0.8-4.8,2.3-6.3c1.1-1.1,2.4-1.7,3.9-2c0.3-0.1,0.5-0.1,0.8-0.1c1.2,0,2.3,0.6,3.2,1.6
		l6.8,8.7c0.7,1,1,2.2,0.8,3.3c-0.2,1.1-0.9,2.1-1.9,2.6l-1.6,1c-0.5,0.3-0.9,0.8-1,1.5c-0.1,0.6,0,1.1,0.3,1.6
		c4.3,6,9.5,11.2,15.4,15.4c0.5,0.3,1.1,0.5,1.7,0.3c0.6-0.1,1.1-0.5,1.4-1l1-1.6c0.8-1.2,2.1-1.9,3.5-1.9c0.9,0,1.8,0.3,2.5,0.9
		l8.7,6.8C63,74,63.4,75.6,63.1,77.1z M88.2,14.8c-1.3-1.3-3-2.1-4.9-2.1h-34c-3.8,0-6.9,3.1-6.9,6.9v17.9c0,3.8,3.1,6.9,6.9,6.9
		h0.2v4.9c0,1.9,1.1,3.5,2.8,4.1c0.5,0.2,1.1,0.3,1.7,0.3c1.1,0,2.3-0.5,3.1-1.3l8-8h17.9c3.8,0,6.9-3.1,6.9-6.9V19.6
		C90.1,17.8,89.5,16.1,88.2,14.8z M85.9,37.5c0,1.5-1.2,2.7-2.7,2.7H64.4c-0.6,0-1.1,0.2-1.5,0.6l-8.7,8.7c0,0-0.1,0.1-0.2,0.1
		c0,0,0,0-0.1,0c0,0,0,0-0.1,0c-0.1,0-0.1-0.1-0.1-0.2v-7c0-1.2-1-2.2-2.2-2.2h-2.4c-1.5,0-2.7-1.2-2.7-2.7V19.6
		c0-1.5,1.2-2.7,2.7-2.7h33.9c1.5,0,2.7,1.2,2.7,2.7v17.8h0.1V37.5z M58.8,28.6c0,1.9-1.5,3.4-3.4,3.4s-3.4-1.5-3.4-3.4
		s1.5-3.4,3.4-3.4S58.8,26.7,58.8,28.6z M69.7,28.6c0,1.9-1.5,3.4-3.4,3.4s-3.4-1.5-3.4-3.4s1.5-3.4,3.4-3.4S69.7,26.7,69.7,28.6z
		 M80.7,28.6c0,1.9-1.5,3.4-3.4,3.4s-3.4-1.5-3.4-3.4s1.5-3.4,3.4-3.4S80.7,26.7,80.7,28.6z"/>
</g>
</svg>
